<?xml version="1.0" encoding="UTF-8"?>
<!DOCTYPE svg PUBLIC "-//W3C//DTD SVG 1.1//EN" "http://www.w3.org/Graphics/SVG/1.1/DTD/svg11.dtd">
<!-- Creator: CorelDRAW X7 -->
<svg xmlns="http://www.w3.org/2000/svg" xml:space="preserve" width="139.1mm" height="136.2mm" version="1.1" style="shape-rendering:geometricPrecision; text-rendering:geometricPrecision; image-rendering:optimizeQuality; fill-rule:evenodd; clip-rule:evenodd"
viewBox="0 0 13910 13620"
 xmlns:xlink="http://www.w3.org/1999/xlink">
 <defs>
  <style type="text/css">
   <![CDATA[
    .fil0 {fill:#FEFEFE}
    .fil1 {fill:#FEFEFE;fill-rule:nonzero}
   ]]>
  </style>
 </defs>
 <g id="Warstwa_x0020_1">
  <metadata id="CorelCorpID_0Corel-Layer"/>
  <g id="_2312471786512">
   <path class="fil0" d="M2742 10723l2463 0 423 -173c-144,-6 -260,-14 -330,-20l-61 -6 0 -61 -10 -7334 0 -44 40 -18c71,-32 166,-59 270,-89 134,-38 285,-82 407,-141 105,-51 201,-110 290,-171 91,-63 173,-126 250,-185l22 -17 27 3c198,24 560,146 914,290 390,159 773,345 915,454l30 23 -4 37c-16,163 -70,357 -126,556 -43,154 -87,311 -113,453l-4 22c35,-1 69,125 69,125l93 -21c54,-327 126,-633 227,-835l46 -91 66 78c124,147 243,341 358,570l153 -67c-75,-155 -155,-308 -238,-458 -28,-50 -43,-77 -57,-102 -148,-270 -195,-355 -506,-519 -262,-139 -626,-316 -991,-461 -271,-108 -543,-197 -772,-240l-41 -7 -12 -40 -13 -45 0 0c-65,-217 -248,-832 -321,-901 -62,-58 -214,-110 -389,-150 -241,-56 -517,-88 -671,-88 -165,-1 -405,26 -624,71 -181,38 -345,87 -430,143 -121,80 -279,677 -344,926l-10 38 -11 39 -39 9c-311,75 -870,264 -1339,476 -344,155 -638,320 -742,456l0 0c-562,731 -957,1764 -1214,2874 -316,1364 -425,2843 -383,4031 2,38 3,76 4,110 6,236 7,259 167,426l19 20 0 27c0,314 1,517 76,628 72,107 229,146 548,146 320,0 477,-37 550,-141 75,-109 75,-310 75,-626l0 -29 21 -20c169,-163 171,-283 175,-511 1,-63 2,-135 7,-214 18,-342 36,-653 63,-958 27,-309 64,-617 119,-954l1 -5 222 -877 127 -500 6 516 32 2872 0 1c1,341 68,416 135,492 48,54 96,108 130,224l3 10 0 9c0,718 123,717 720,712 74,-1 157,-2 189,-2l1197 0c27,-59 58,-123 86,-182l-1606 0c-351,4 -406,-17 -408,-229 0,-30 1,-64 3,-102 1,-44 3,-96 3,-166l0 -67 68 0zm-2288 5l744 -4 68 -1 0 68c0,64 0,102 1,136 7,354 7,361 -443,361 -446,-1 -446,-11 -439,-359 1,-33 2,-71 2,-134l0 -67 67 0zm-219 -302c-91,-285 -92,-861 -52,-1492 59,-913 206,-1947 298,-2373 90,-421 331,-1237 595,-1922 194,-503 403,-938 577,-1102l73 -68 36 94c198,520 273,1210 341,1836l10 84c68,624 10,781 -106,1094 -67,181 -154,417 -246,836 -66,297 -123,629 -169,968 -46,338 -80,681 -98,1001 -2,40 -3,103 -5,180 -6,311 -18,837 -115,924 -35,31 -373,72 -665,63 -193,-6 -374,-31 -451,-90l-17 -13 -6 -20zm1688 -7215c143,-111 555,-313 963,-477 346,-139 693,-253 877,-262l26 -1 20 17c93,76 165,135 242,190 75,53 154,100 258,152 106,52 236,89 358,124 121,35 235,67 323,113l36 19 0 41 14 7344 0 66 -67 1c-72,1 -185,5 -322,9 -690,23 -1987,64 -2157,-133 -131,-153 -108,-1376 -94,-2100 4,-201 7,-364 7,-451 -6,-567 -32,-1290 -85,-1994 -42,-558 -102,-1101 -183,-1540 -22,-119 -65,-282 -109,-448 -63,-236 -127,-476 -133,-613l-2 -35 28 -22zm2009 -918c10,-106 45,-258 92,-398 42,-126 95,-244 149,-313l30 -39 45 16c59,21 108,39 153,56 162,61 287,108 545,134l45 5 13 43c59,196 50,495 41,750 -2,77 -5,150 -5,223l0 77 -75 -10c-198,-24 -397,-85 -573,-170 -178,-86 -334,-198 -444,-324l-19 -21 3 -29zm1295 463l1 -908 0 -51 49 -14 770 -220 62 -17 20 60 233 675 16 45 -38 30c-113,87 -267,205 -444,300 -182,98 -389,172 -603,167l-66 -2 0 -65zm-719 -1477c283,-127 735,-73 1052,-32 40,5 79,10 137,17l241 84c-85,159 -23,234 -791,234 -53,0 -106,-2 -157,-5 -52,-4 -105,-11 -157,-20 -171,-32 -347,-71 -478,-191l153 -87z"/>
   <path class="fil1" d="M10861 4301c348,138 1209,491 1342,656 89,111 513,856 855,1498 274,515 493,976 454,1032 -61,88 -1348,786 -1351,788 -33,18 -73,6 -91,-27l-2 -4 0 0 -286 -620c-15,329 -27,662 -29,918 -1,149 -24,819 -24,1116 -38,-1 -78,-2 -115,-3 -3,-281 4,-959 6,-1114 7,-723 49,-1459 96,-2181 2,-37 34,-65 70,-63 37,3 65,35 63,71 0,3 -28,445 -53,966l364 790c255,-140 1206,-661 1243,-713 5,-8 -209,-417 -463,-893 -339,-636 -756,-1372 -841,-1477 -125,-155 -1132,-556 -1379,-652 -47,218 -184,412 -379,560 -241,182 -573,295 -938,295 -365,0 -696,-113 -937,-295 -203,-153 -342,-357 -384,-584 -262,102 -1246,495 -1370,648 -85,105 -502,841 -841,1477 -253,476 -468,885 -462,893 36,52 987,573 1243,713l364 -790c-26,-521 -53,-963 -53,-966 -3,-37 25,-68 62,-71 37,-2 69,26 71,63 0,2 23,380 47,850 22,443 44,888 49,1331 2,279 -5,790 -13,1326 -3,231 -7,806 -9,1029l0 8 -134 16c3,-232 6,-815 10,-1055 8,-535 15,-1045 12,-1323 -2,-256 -14,-590 -29,-918l-286 620 0 0 -2 4c-18,33 -58,45 -90,27 -4,-2 -1290,-700 -1351,-788 -40,-56 179,-517 454,-1032 342,-642 765,-1387 854,-1498 137,-169 1037,-536 1367,-666l228 -87c-1,14 -1,27 -1,40 0,62 8,122 24,180l1113 -494 0 -275c0,-144 115,-218 230,-292 46,-30 93,-60 125,-92l0 0 0 0 7 -6c57,-45 103,-102 135,-167 31,-64 48,-136 48,-209 0,-132 -54,-252 -140,-338l0 0 0 0c-86,-87 -206,-140 -338,-140 -132,0 -251,53 -337,140l-1 0c-86,86 -139,206 -139,338 0,27 2,53 6,79 4,26 11,52 19,76 12,35 -6,73 -41,85 -35,12 -73,-7 -85,-41 -11,-33 -19,-66 -25,-98 -5,-34 -8,-68 -8,-101 0,-169 68,-322 179,-432l0 -1c113,-114 272,-179 432,-179 169,0 322,69 433,179l0 0c110,111 179,264 179,433 0,94 -22,185 -62,268 -40,80 -97,153 -170,210 -42,42 -94,75 -145,108 -84,55 -168,109 -168,180l0 275 1108 492c16,-57 24,-117 24,-178l256 85 0 0zm-1987 7589c-466,-2 -1093,-4 -1259,-6l-29 -127c209,2 826,3 1314,3 -10,46 -18,90 -26,130zm-600 -7369c59,121 153,231 273,322 218,165 521,267 856,267 336,0 639,-102 857,-267 120,-91 214,-202 274,-324l-1128 -501 -1132 503z"/>
   <path class="fil1" d="M5028 1654l0 -276c0,-144 115,-218 230,-292 47,-30 94,-60 126,-92l0 0 0 0 6 -6c58,-45 104,-102 135,-167 31,-64 48,-136 48,-209 0,-132 -53,-252 -139,-338l0 0 0 0c-87,-86 -206,-140 -338,-140 -132,0 -252,54 -338,140l0 0c-87,86 -140,206 -140,338 0,27 2,53 6,79 5,26 11,52 20,76 12,35 -7,73 -42,85 -34,12 -72,-6 -84,-41 -11,-33 -20,-66 -25,-98 -6,-34 -9,-68 -9,-101 0,-169 69,-322 179,-432l1 -1c112,-114 271,-179 432,-179 168,0 321,69 432,180l0 -1c111,111 179,264 179,433 0,94 -22,185 -62,268 -39,81 -97,153 -169,211 -42,41 -94,75 -146,108 -84,54 -168,108 -168,179l0 276 -67 116 -67 -116z"/>
   <g>
    <path class="fil0" d="M8871 13187c66,1 107,17 187,17l4431 0c75,0 161,-7 210,-26 10,92 76,197 -8,263 -23,18 -60,40 -102,40l-4586 0c-246,0 -132,-242 -132,-294zm4718 -130l-4619 0c-73,0 -133,-50 -133,-130 0,-50 21,-122 34,-165 46,9 84,18 143,18l4553 0c63,0 78,-14 132,-18 0,65 39,137 29,187 -10,56 -68,108 -139,108zm-4752 -529c0,-72 47,-255 66,-329 129,-513 244,-1077 369,-1598 26,-109 51,-211 73,-316 55,-266 75,-225 573,-225 35,0 209,174 245,206l476 431c39,39 207,203 260,203 45,0 68,-20 91,-41 51,-47 165,-171 207,-193l0 1975 -2172 0c-102,0 -188,-45 -188,-113zm4719 113l-2183 0 0 -1966c99,52 192,225 286,225 50,0 111,-60 145,-94l359 -324c52,-49 449,-422 489,-422l363 0c184,0 179,132 200,216l479 2074c8,34 11,46 19,81 3,15 19,62 19,80 0,70 -83,130 -176,130zm-2671 -2579l786 -2 -395 314 -391 -312zm774 656c-17,-10 -44,-38 -61,-56l-192 -186 868 -687c34,40 61,65 97,101 36,36 67,61 93,101 -50,58 -190,171 -244,224l-100 94c-23,20 -32,25 -53,45l-408 364zm-1565 -727c31,-37 59,-63 96,-98 27,-26 82,-72 92,-102l873 683c-30,42 -87,91 -127,129 -45,42 -99,106 -140,115 -12,-34 -284,-265 -345,-318l-96 -89c-20,-20 -31,-26 -52,-46l-301 -274zm408 -234l1554 0c-22,25 -185,164 -220,164l-1114 0c-35,0 -198,-139 -220,-164zm-1841 2737c0,184 68,105 43,215 -24,105 -78,237 -13,341 45,71 21,61 -8,197 -5,25 -22,83 -22,104 0,140 154,269 331,269l4586 0c181,0 330,-110 330,-269 0,-174 -84,-227 -33,-312 84,-140 -22,-237 -22,-381 0,-24 71,-83 48,-184l-232 -1005c-87,-396 -194,-810 -277,-1202 -33,-155 -53,-249 -207,-314 -129,-55 -381,-32 -566,-32l-234 -240c-30,-29 -46,-63 -108,-63l-1995 0c-63,0 -107,62 -164,123 -49,51 -98,95 -145,146 -37,41 -36,35 -121,35 -55,-1 -111,-1 -166,-1 -185,0 -371,0 -461,158 -33,57 -142,561 -162,651l-306 1320c-13,52 -96,393 -96,444z"/>
    <path class="fil0" d="M12222 11117l596 -1c110,-1 84,6 98,88 15,93 39,185 55,277l55 277 -771 0c0,-119 -12,-207 -11,-321l-22 -320zm-44 779l948 0c145,0 73,-164 50,-282l-115 -568c-11,-42 -29,-68 -90,-68l-837 0c-125,0 -86,117 -78,191 4,43 -1,95 0,138 1,51 12,72 12,130 -1,99 11,163 10,260 0,90 -5,199 100,199z"/>
    <path class="fil0" d="M11461 11221c0,135 232,110 232,17 0,-145 -232,-124 -232,-17z"/>
    <path class="fil0" d="M11461 11706c0,126 232,124 232,0 0,-113 -232,-113 -232,0z"/>
    <path class="fil0" d="M11461 12191c0,118 232,118 232,0 0,-119 -232,-119 -232,0z"/>
   </g>
   <path class="fil0" d="M3726 12782l0 0zm0 0c29,-39 529,-373 559,-394l139 -100c105,-59 553,2 656,20 130,22 260,55 392,85 437,99 708,192 1204,233 -74,111 -286,269 -401,338 -55,34 -109,59 -168,87 -198,92 -570,175 -844,109 -150,-36 -215,-94 -326,-168 -194,-129 -310,-171 -531,-216 -36,-8 -73,-12 -106,-17 -43,-6 -74,-6 -120,-12 -61,-8 -164,-14 -238,-4l-216 39zm2704 -329c-53,-12 -111,-17 -169,-28 -368,-66 -775,-173 -1146,-259 0,-72 27,-204 43,-270 54,-230 128,-507 251,-710 22,-35 37,-64 59,-97 155,-231 340,-415 624,-502 107,-33 116,-34 230,76 1,1 3,3 4,4 1,1 3,3 4,4l52 55c20,25 50,72 64,100 72,140 130,343 132,509 0,42 8,123 6,146 -9,82 -7,169 -21,300 -24,211 -49,337 -100,541 -9,34 -31,100 -33,131zm65 -1816c112,26 306,133 407,194 535,327 682,921 599,1518 -33,231 -134,178 -324,162 -62,-5 -132,-17 -197,-17 -47,1 -63,-4 -99,-7 -33,-3 -72,0 -106,-1l-197 -16c0,-34 16,-75 24,-107l73 -338c56,-339 84,-710 -12,-1046 -19,-68 -42,-130 -69,-186 -35,-71 -60,-98 -99,-156zm-1520 1512c-169,-14 -187,-24 -361,-24 -55,0 -71,8 -124,8 8,-17 20,-113 25,-140 19,-118 67,-301 106,-404 69,-187 107,-286 223,-450 180,-256 492,-428 846,-510l-146 133c-86,86 -176,218 -239,320 -36,61 -62,121 -94,185 -93,185 -236,683 -236,882zm1110 -1725c24,-93 230,-88 254,16 -139,-32 -128,-30 -254,-16zm-157 16c-198,0 -599,139 -788,247 -113,65 -266,176 -346,279 -211,274 -304,492 -392,848 -22,85 -60,274 -60,360 -25,7 -594,409 -655,454 -114,85 -175,117 -175,228 0,45 64,161 206,90 195,-97 585,-58 775,-3 537,158 415,381 1041,381 307,0 595,-106 787,-223l150 -97c24,-17 44,-34 69,-54 18,-14 20,-16 36,-30 16,-14 21,-15 37,-29 73,-65 191,-186 244,-265 155,3 377,41 501,41 341,0 304,-463 304,-707 0,-330 -116,-653 -293,-890 -69,-91 -158,-181 -247,-254l-173 -123c-103,-66 -279,-150 -401,-190 -39,-13 -52,-5 -60,-39 -8,-32 -5,-52 -16,-83 -28,-81 -132,-163 -239,-163 -88,0 -152,-3 -229,68 -38,35 -70,89 -76,154z"/>
  </g>
 </g>
</svg>
