<?xml version="1.0" encoding="UTF-8"?>
<!DOCTYPE svg PUBLIC "-//W3C//DTD SVG 1.1//EN" "http://www.w3.org/Graphics/SVG/1.1/DTD/svg11.dtd">
<!-- Creator: CorelDRAW X7 -->
<svg xmlns="http://www.w3.org/2000/svg" xml:space="preserve" width="73.2mm" height="71.7mm" version="1.1" style="shape-rendering:geometricPrecision; text-rendering:geometricPrecision; image-rendering:optimizeQuality; fill-rule:evenodd; clip-rule:evenodd"
viewBox="0 0 7320 7170"
 xmlns:xlink="http://www.w3.org/1999/xlink">
 <defs>
  <style type="text/css">
   <![CDATA[
    .fil0 {fill:#2B4B71}
    .fil1 {fill:#2B4B71;fill-rule:nonzero}
   ]]>
  </style>
 </defs>
 <g id="Warstwa_x0020_1">
  <metadata id="CorelCorpID_0Corel-Layer"/>
  <g id="_2312403025200">
   <path class="fil0" d="M1442 5645l1297 0 222 -91c-76,-3 -137,-7 -173,-11l-32 -3 -1 -32 -5 -3861 0 -23 21 -9c38,-17 88,-31 142,-47 71,-21 151,-43 215,-74 55,-28 106,-59 152,-91 48,-33 92,-66 132,-97l12 -9 14 2c104,12 295,77 481,152 205,84 407,182 482,239l15 12 -1 20c-9,86 -37,188 -67,293 -23,81 -46,163 -60,238l-2 12c19,-1 37,65 37,65l49 -10c28,-173 66,-334 119,-440l25 -48 34 41c65,78 128,180 188,300l81 -35c-39,-82 -81,-162 -125,-241 -15,-26 -23,-41 -30,-54 -78,-142 -103,-187 -266,-274 -138,-73 -330,-166 -522,-242 -143,-57 -286,-104 -407,-126l-21 -4 -6 -21 -7 -24 0 0c-34,-114 -131,-438 -169,-474 -33,-31 -113,-58 -205,-79 -127,-30 -272,-46 -353,-47 -87,0 -214,14 -329,38 -95,20 -181,46 -226,76 -64,41 -147,356 -182,487l-5 20 -5 20 -21 5c-164,39 -458,139 -705,250 -181,82 -335,169 -390,241l0 0c-296,385 -504,928 -640,1513 -166,718 -223,1497 -201,2122 1,20 1,40 2,58 3,124 4,136 88,224l10 11 0 14c0,165 0,272 40,331 38,56 121,76 288,76 169,0 252,-19 290,-74 39,-58 40,-163 40,-330l0 -15 11 -10c89,-86 90,-149 92,-269 0,-34 1,-71 3,-113 10,-180 19,-344 33,-505 15,-162 34,-324 63,-501l1 -3 117 -462 66 -263 3 272 17 1512 0 0c1,180 36,219 71,259 26,28 51,57 69,118l2 5 0 5c0,378 64,377 379,375 38,-1 82,-1 99,-1l630 0c14,-31 30,-65 45,-96l-845 0c-185,2 -214,-9 -215,-120 0,-16 1,-34 1,-55 1,-23 2,-50 2,-87l0 -35 36 0zm-1205 3l392 -3 36 0 0 36c0,33 0,54 1,71 3,187 3,190 -234,190 -235,0 -235,-6 -231,-188 1,-18 1,-38 1,-71l0 -35 35 0zm-115 -159c-48,-151 -48,-454 -27,-786 31,-480 108,-1025 157,-1249 47,-222 174,-651 313,-1012 102,-265 212,-494 304,-580l38 -36 19 49c104,274 144,638 180,967l5 45c36,328 5,411 -56,575 -35,96 -81,220 -129,440 -35,157 -65,332 -89,510 -25,178 -42,358 -52,527 -1,21 -2,54 -3,95 -3,164 -9,440 -60,486 -19,16 -197,38 -350,33 -102,-2 -197,-16 -238,-47l-8 -7 -4 -10zm889 -3798c75,-59 292,-166 507,-252 182,-73 365,-133 462,-138l13 0 11 9c48,39 87,71 127,99 40,28 81,53 136,81 56,27 124,47 189,65 63,18 123,35 169,59l19 10 0 22 8 3866 0 35 -35 1c-38,0 -98,2 -170,4 -363,12 -1046,34 -1135,-69 -70,-81 -57,-725 -50,-1106 2,-106 4,-192 3,-238 -3,-298 -16,-679 -44,-1049 -22,-294 -54,-580 -96,-811 -12,-63 -35,-149 -58,-236 -33,-124 -66,-251 -70,-323l-1 -18 15 -11zm1057 -484c6,-56 24,-136 49,-209 22,-67 50,-129 78,-166l16 -20 24 9c31,10 57,20 81,29 85,32 151,57 286,71l24 2 7 23c31,103 26,260 22,395 -2,40 -3,79 -3,117l0 40 -40 -4c-104,-13 -209,-45 -301,-90 -94,-46 -176,-105 -234,-171l-10 -11 1 -15zm682 244l1 -478 0 -27 25 -7 406 -116 32 -9 11 31 123 355 8 24 -20 16c-59,46 -140,108 -234,158 -95,52 -204,91 -317,88l-35 -1 0 -34zm-378 -778c149,-67 387,-38 554,-17 21,3 41,6 72,9l127 44c-45,84 -13,124 -417,123 -28,1 -56,0 -82,-2 -28,-2 -56,-6 -83,-11 -90,-16 -183,-37 -252,-100l81 -46z"/>
   <path class="fil1" d="M5716 2264c184,73 637,259 707,346 47,58 270,450 450,788 144,271 260,514 239,544 -32,46 -709,413 -711,414 -17,10 -39,3 -48,-14l-1 -2 0 0 -151 -327c-7,174 -14,349 -15,484 -1,78 -13,431 -13,587 -20,0 -41,-1 -60,-1 -2,-148 2,-505 3,-587 3,-380 26,-768 50,-1148 1,-19 18,-34 38,-33 19,1 34,18 32,37 0,2 -14,235 -28,509l192 416c134,-74 635,-348 654,-376 3,-4 -110,-219 -243,-470 -179,-335 -398,-722 -443,-777 -66,-82 -596,-293 -726,-344 -25,115 -97,217 -200,295 -126,96 -301,156 -493,156 -192,0 -367,-60 -494,-156 -106,-81 -180,-187 -202,-307 -138,54 -656,260 -721,341 -45,55 -264,443 -443,778 -133,250 -246,465 -243,470 19,27 520,301 654,375l192 -416c-13,-274 -28,-507 -28,-508 -1,-20 13,-36 33,-38 19,-1 36,14 37,33 0,1 13,201 25,448 12,233 23,467 26,700 1,148 -3,417 -7,699 -2,121 -4,424 -5,542l0 4 -70 8c1,-122 3,-429 5,-555 4,-282 8,-551 6,-697 -1,-135 -7,-310 -15,-483l-151 326 0 0 -1 2c-9,18 -30,24 -47,15 -2,-2 -679,-369 -712,-415 -20,-30 95,-272 239,-543 181,-338 404,-731 451,-789 71,-89 545,-282 719,-351l120 -46c0,7 -1,15 -1,22 0,32 5,64 13,94l586 -260 0 -145c0,-76 60,-114 121,-153 25,-16 49,-32 66,-49l0 0 0 0 3 -3c31,-24 55,-54 72,-88 16,-34 25,-71 25,-110 0,-70 -28,-132 -74,-178l0 0 0 0c-45,-45 -108,-74 -178,-74 -69,0 -132,29 -177,74l0 0c-46,45 -74,108 -74,178 0,14 1,28 3,41 3,14 6,28 11,41 6,18 -4,38 -22,44 -18,7 -39,-3 -45,-21 -6,-18 -10,-35 -13,-52 -3,-18 -4,-36 -4,-53 0,-89 36,-169 94,-228l0 0c59,-60 143,-94 227,-94 89,0 170,36 228,94l0 0c58,58 94,139 94,228 0,49 -11,98 -32,141 -21,42 -51,81 -89,111 -23,22 -50,39 -77,57 -44,28 -89,57 -89,94l0 145 584 259c8,-30 12,-61 12,-93l135 44 0 0zm-1046 3995c-245,-1 -575,-2 -663,-3l-15 -67c110,1 435,2 692,2 -5,24 -10,47 -14,68zm-316 -3879c32,64 81,122 144,169 115,87 274,141 451,141 176,0 336,-54 451,-141 63,-48 113,-106 144,-170l-594 -264 -596 265z"/>
   <path class="fil1" d="M2646 870l0 -145c0,-75 60,-114 121,-153 24,-16 49,-32 66,-49l0 0 0 0 3 -3c30,-23 55,-54 71,-88 17,-34 26,-71 26,-110 0,-69 -29,-132 -74,-178l0 0 0 0c-45,-45 -108,-74 -178,-74 -69,0 -132,29 -178,74l0 0c-45,46 -73,108 -73,178 0,14 1,28 3,42 2,14 6,27 10,40 7,18 -3,38 -22,44 -18,7 -38,-3 -44,-21 -6,-17 -10,-35 -13,-52 -3,-18 -5,-36 -5,-53 0,-89 36,-169 95,-228l0 0c59,-60 143,-94 227,-94 89,0 169,36 228,94l0 0c58,59 94,139 94,228 0,49 -11,98 -32,141 -21,43 -52,81 -90,111 -22,22 -49,39 -76,57 -45,28 -89,57 -89,94l0 145 -35 61 -35 -61z"/>
   <g>
    <path class="fil0" d="M4668 6942c35,1 57,9 99,9l2333 0c39,0 84,-4 110,-14 5,49 41,104 -4,139 -12,10 -32,21 -54,21l-2414 0c-129,0 -70,-127 -70,-155zm2484 -68l-2431 0c-39,0 -70,-27 -70,-69 0,-26 11,-64 17,-86 25,4 45,9 76,9l2397 0c33,0 41,-8 69,-9 0,34 21,71 16,98 -6,30 -36,57 -74,57zm-2501 -279c0,-38 24,-134 34,-173 69,-270 129,-567 195,-841 14,-58 26,-111 38,-167 29,-140 39,-118 302,-118 18,0 110,92 129,108l250 227c21,21 109,107 137,107 24,0 36,-10 48,-21 27,-25 87,-90 109,-102l0 1040 -1143 0c-54,0 -99,-24 -99,-60zm2484 60l-1149 0 0 -1035c52,27 101,118 151,118 26,0 58,-32 76,-49l189 -171c27,-25 236,-222 257,-222l192 0c96,0 93,69 104,114l253 1092c4,17 6,24 10,42 2,8 10,33 10,42 0,37 -44,69 -93,69zm-1406 -1358l413 -1 -207 165 -206 -164zm408 345c-9,-5 -24,-20 -33,-29l-101 -98 457 -362c18,21 32,34 51,54 19,19 35,32 49,52 -26,31 -100,91 -128,118l-53 50c-12,10 -17,13 -28,24l-214 191zm-824 -383c16,-19 31,-33 50,-51 14,-14 43,-38 48,-53l460 359c-16,22 -46,48 -67,68 -24,22 -52,56 -74,60 -6,-18 -149,-139 -181,-167l-51 -47c-10,-10 -16,-14 -27,-24l-158 -145zm214 -123l819 0c-12,14 -98,87 -116,87l-587 0c-18,0 -104,-73 -116,-87zm-969 1441c0,97 36,55 23,113 -13,56 -42,125 -7,180 24,37 11,32 -4,104 -3,13 -12,44 -12,55 0,73 81,141 174,141l2414 0c96,0 175,-58 175,-141 0,-92 -45,-120 -18,-165 44,-73 -11,-124 -11,-200 0,-13 37,-44 25,-97l-122 -529c-46,-209 -103,-427 -146,-633 -18,-82 -28,-131 -109,-165 -68,-29 -201,-17 -298,-17l-124 -127c-15,-15 -24,-33 -56,-33l-1051 0c-32,0 -56,33 -86,65 -26,27 -52,50 -76,77 -20,22 -19,19 -64,18 -29,0 -58,0 -87,0 -98,0 -196,0 -243,83 -17,30 -75,295 -85,343l-161 695c-7,27 -51,207 -51,233z"/>
    <path class="fil0" d="M6433 5852l313 0c58,-1 45,3 52,46 8,49 21,98 29,146l29 146 -406 0c0,-63 -6,-109 -6,-169l-11 -169zm-24 411l500 0c76,0 38,-87 26,-149l-60 -299c-6,-22 -16,-36 -48,-36l-441 0c-65,0 -45,62 -41,101 3,22 0,50 0,73 1,26 7,37 6,68 0,52 6,86 6,137 0,47 -3,105 52,105z"/>
    <path class="fil0" d="M6032 5907c0,71 122,58 122,9 0,-76 -122,-65 -122,-9z"/>
    <path class="fil0" d="M6032 6162c0,67 122,66 122,0 0,-59 -122,-59 -122,0z"/>
    <path class="fil0" d="M6032 6418c0,62 122,62 122,0 0,-63 -122,-63 -122,0z"/>
   </g>
   <path class="fil0" d="M1960 6729l0 0zm0 0c15,-20 278,-196 294,-208l73 -52c56,-31 291,1 346,10 69,12 137,29 206,45 231,52 373,101 634,123 -39,59 -151,142 -211,178 -29,17 -57,31 -89,45 -104,49 -299,93 -444,58 -79,-19 -113,-49 -171,-88 -102,-68 -164,-91 -280,-114 -19,-4 -38,-7 -56,-9 -22,-3 -39,-3 -63,-7 -32,-4 -86,-7 -125,-1l-114 20zm1423 -173c-27,-6 -58,-9 -89,-15 -193,-35 -407,-91 -603,-136 0,-38 15,-108 23,-142 28,-122 67,-267 132,-374 12,-19 20,-34 31,-51 82,-122 179,-219 329,-265 56,-17 61,-18 121,40 0,1 1,2 2,2 1,1 2,2 2,3l27 29c11,13 27,38 34,52 38,74 69,181 70,268 0,22 4,65 3,77 -5,43 -4,89 -12,158 -12,111 -25,177 -52,285 -5,18 -16,52 -18,69zm35 -956c59,14 161,70 214,102 282,172 359,485 315,799 -17,122 -70,94 -170,85 -33,-2 -69,-9 -104,-8 -25,0 -33,-3 -52,-5 -18,-1 -38,1 -56,0l-104 -8c1,-18 9,-40 13,-57l39 -178c29,-178 44,-373 -7,-550 -10,-36 -22,-69 -36,-98 -18,-38 -31,-52 -52,-82zm-800 796c-89,-8 -99,-13 -191,-13 -28,0 -37,4 -65,4 5,-9 11,-59 13,-73 11,-62 36,-159 56,-213 37,-99 56,-151 118,-237 94,-135 259,-225 445,-268l-77 70c-45,45 -93,114 -125,168 -20,32 -33,64 -50,98 -49,97 -124,359 -124,464zm584 -909c13,-48 121,-46 134,9 -73,-17 -68,-16 -134,-9zm-82 9c-105,0 -316,73 -416,130 -59,34 -140,93 -181,147 -112,144 -161,259 -207,446 -11,45 -31,144 -31,190 -14,3 -313,215 -345,239 -60,45 -92,61 -92,120 0,24 33,85 108,48 103,-52 308,-31 408,-2 283,83 218,201 548,201 161,0 313,-57 414,-118l79 -51c13,-9 23,-18 37,-29 9,-7 10,-8 18,-15 9,-8 11,-8 20,-16 38,-34 101,-98 128,-139 82,2 199,21 264,21 180,0 160,-243 160,-372 0,-173 -61,-344 -154,-468 -36,-48 -83,-96 -130,-134l-91 -65c-54,-35 -147,-79 -211,-100 -21,-7 -28,-3 -32,-20 -4,-17 -3,-28 -8,-44 -15,-43 -70,-86 -126,-86 -46,0 -80,-2 -121,36 -20,18 -37,47 -39,81z"/>
  </g>
 </g>
</svg>
