<?xml version="1.0" encoding="UTF-8"?>
<!DOCTYPE svg PUBLIC "-//W3C//DTD SVG 1.1//EN" "http://www.w3.org/Graphics/SVG/1.1/DTD/svg11.dtd">
<!-- Creator: CorelDRAW X7 -->
<svg xmlns="http://www.w3.org/2000/svg" xml:space="preserve" width="138.4mm" height="136.2mm" version="1.1" style="shape-rendering:geometricPrecision; text-rendering:geometricPrecision; image-rendering:optimizeQuality; fill-rule:evenodd; clip-rule:evenodd"
viewBox="0 0 13840 13620"
 xmlns:xlink="http://www.w3.org/1999/xlink">
 <defs>
  <style type="text/css">
   <![CDATA[
    .fil0 {fill:#FEFEFE}
    .fil1 {fill:#FEFEFE;fill-rule:nonzero}
   ]]>
  </style>
 </defs>
 <g id="Warstwa_x0020_1">
  <metadata id="CorelCorpID_0Corel-Layer"/>
  <g id="_2312403045232">
   <path class="fil0" d="M219 11408l298 220 0 0c18,15 41,23 64,23 22,0 45,-8 63,-23 49,-41 98,-86 146,-133 48,-48 95,-97 140,-149 44,-51 86,-103 125,-156 38,-51 72,-103 103,-154l13 -21 -3 -2c3,-9 4,-18 4,-27 1,-16 -3,-34 -12,-49 -25,-46 -48,-85 -72,-117 -25,-33 -51,-60 -79,-84 -29,-23 -59,-42 -93,-58 -34,-16 -72,-29 -115,-41 -16,-6 -33,-7 -50,-3 -17,3 -33,11 -46,23 -45,39 -107,98 -173,166 -53,55 -109,117 -159,178 -44,53 -84,106 -118,159 -31,47 -55,92 -70,133l-10 25 4 1c-1,13 0,25 3,37 6,20 18,38 37,52zm9694 -10879l-635 741c-7,24 -13,50 -18,81l-5 24 4 1c0,8 2,15 4,23 5,15 14,29 26,41l239 226c15,16 34,26 54,30 21,4 42,2 62,-8 147,-70 271,-227 406,-398l0 0 0 0c113,-142 232,-293 370,-393 135,-97 288,-145 470,-84 53,17 105,47 150,89 43,39 79,88 105,145 24,52 39,110 41,175 2,59 -7,124 -29,193 -27,86 -125,196 -226,309l0 0c-44,50 -88,100 -130,152 -41,51 -79,103 -108,156l-13 22 3 1c-2,10 -3,19 -3,29 1,17 6,35 16,51 22,33 43,63 66,90 23,28 47,53 74,76 28,24 58,45 92,64 33,20 70,38 113,55l0 0c19,8 38,10 57,6l0 0c19,-4 37,-12 51,-26 208,-203 360,-395 467,-575 117,-199 179,-384 198,-553 12,-109 6,-212 -15,-307 -22,-101 -61,-194 -113,-278 -49,-79 -109,-149 -177,-210 -71,-64 -151,-119 -237,-164 -134,-71 -282,-116 -429,-135 -147,-19 -293,-11 -423,26 -125,36 -220,86 -297,140 -77,53 -135,111 -188,163 -8,7 -15,14 -22,22zm-774 607l560 -619c16,-26 43,-51 72,-80l1 -1c15,-15 32,-30 49,-48 82,-84 174,-157 273,-215 99,-58 204,-103 314,-132 107,-29 219,-43 333,-41 111,2 224,19 337,53 141,42 278,111 400,203 119,90 223,201 306,329 76,120 133,255 163,402 29,138 35,287 12,445 -16,107 -48,209 -92,306 -45,98 -101,191 -164,279 -64,91 -136,177 -210,259 -74,82 -150,159 -223,233 -34,34 -71,57 -109,70 -42,15 -85,19 -129,14 -40,-5 -79,-16 -118,-32 -42,-17 -83,-41 -122,-69 -39,-28 -76,-60 -109,-95 -34,-36 -64,-75 -89,-115 -37,-59 -64,-121 -75,-181 -10,-54 -8,-106 10,-152 32,-82 109,-154 189,-230l0 0 0 0 0 0c71,-68 144,-137 202,-221 58,-86 99,-187 105,-315l0 0c1,-15 -1,-30 -7,-44 -5,-13 -13,-26 -24,-36 -60,-57 -112,-100 -165,-126 -56,-28 -110,-37 -173,-24 -54,12 -108,41 -168,91 -58,49 -122,117 -199,209 -46,55 -129,147 -228,255l0 0 0 1c-281,308 -681,748 -738,921l-8 24 3 1c0,9 0,18 2,27 4,16 11,32 23,46 39,43 80,84 117,122l0 0 1 0 0 0 0 0 0 0 0 0c35,35 66,67 92,98 33,40 51,77 37,122 -15,50 -66,113 -170,200 -9,8 -33,28 -60,51l-9 8 0 0 0 0c-169,142 -403,340 -553,433l-22 13 2 3c-6,7 -12,14 -16,23 -8,15 -12,32 -11,51 12,235 57,436 95,610l0 1 0 0 0 0 1 1c18,82 35,158 46,233 10,65 14,125 7,180 -7,49 -23,95 -52,137l-333 3c2,-1 3,-2 5,-4 20,-18 30,-44 31,-69 1,-26 -8,-51 -27,-71l-172 -184 -18 -18 -2 2c-9,-5 -18,-9 -28,-12 -17,-4 -36,-4 -55,2l-640 207c-2,0 -3,1 -4,1 -2,1 -3,1 -5,2 -95,35 -143,54 -172,71 -34,19 -42,34 -58,63l0 0c-2,2 -3,5 -5,8 -2,3 -4,6 -7,10 -17,20 -25,45 -24,69 1,24 11,48 30,67 84,83 155,115 227,119 71,4 141,-20 226,-49l0 0 0 0 0 0 18 -6c-12,27 -25,55 -37,83 -15,32 -29,64 -41,92l-7 1 0 0 -22 3 -21 3 0 3c-13,5 -26,13 -36,23 -14,16 -24,36 -27,58l0 0c-8,71 -29,139 -59,201 -32,67 -75,128 -125,182 -54,58 -117,109 -185,150 -69,41 -142,73 -215,92 -10,2 -21,5 -33,8 -20,5 -23,6 -27,7 -23,5 -39,9 -54,14 -17,6 -29,12 -43,21 -26,17 -37,32 -58,61l0 0 0 0 0 0c-11,15 -26,35 -46,59l-407 464 -441 43 -4 0 -4 2 -608 285 -9 5 -4 10 -1 4c-292,100 -701,248 -1120,403 -421,156 -860,321 -1198,448 -116,44 -227,85 -262,99 -70,26 -137,51 -208,77 -25,9 -48,18 -72,26 -24,8 -47,15 -70,23l0 0 0 0c-187,61 -357,117 -474,275 -57,76 -114,162 -169,254 -57,94 -112,195 -163,297 -51,101 -97,203 -136,301 -45,112 -251,501 -245,500 120,-11 742,-238 1162,-392 417,-153 893,-337 1233,-469l5 -2c171,-66 307,-119 378,-145 329,-123 516,-213 653,-311 139,-99 225,-206 352,-363l0 0 0 0c46,-57 97,-120 156,-189l6 234 -59 67c-85,88 -173,184 -263,286 -92,104 -184,211 -279,321 -117,135 -238,276 -361,413 -123,138 -250,275 -380,406 -59,59 -115,114 -170,165 -55,50 -110,99 -167,146 -57,47 -114,92 -176,137 -61,46 -126,91 -197,138l-633 354c-153,73 -236,142 -282,205 -48,65 -57,123 -66,177 -5,29 -9,56 -48,81 -45,29 -132,59 -304,93 -180,35 -272,56 -337,86 -68,32 -103,73 -168,149l0 0c-14,16 -30,34 -50,58 -19,21 -41,45 -64,69 -29,30 -57,63 -85,96 -29,34 -54,67 -80,99 -24,30 -48,60 -72,90 -24,29 -48,57 -72,82 -73,77 -151,135 -243,140 -93,6 -205,-42 -346,-175 -10,-9 -18,-17 -26,-24 -9,-8 -16,-14 -23,-21 -60,-53 -129,-115 -167,-188 -37,-71 -47,-154 8,-254 104,-192 215,-284 314,-367 92,-77 175,-147 242,-264 66,-117 114,-279 133,-540 11,-134 31,-209 64,-259 33,-49 83,-77 150,-116l0 0c35,-20 74,-43 117,-70l22 -14 -2 -2c45,-44 77,-92 105,-148 27,-58 50,-123 76,-201 58,-168 138,-400 342,-727 205,-327 535,-749 1095,-1299 45,-44 86,-86 124,-125 38,-40 72,-76 103,-110 60,-63 109,-116 155,-158l747 -757c59,-64 131,-125 196,-182 23,-19 45,-38 68,-58 22,-19 42,-38 61,-56 56,-54 110,-107 164,-160 53,-52 106,-104 161,-158 52,-51 105,-103 159,-155 53,-53 108,-107 165,-162l76 -75c29,-29 56,-55 126,-123l0 0c42,-41 85,-83 134,-131 20,-19 37,-35 52,-49 17,-15 29,-26 39,-34l0 0 0 0 0 -1c44,-39 68,-59 89,-99 11,-21 19,-43 25,-71 7,-27 12,-59 19,-101l0 0 0 0 1 -1c6,-38 14,-84 16,-97 9,-49 28,-97 55,-143 29,-52 68,-100 111,-146 53,-55 113,-104 174,-146 72,-50 145,-91 210,-121l0 0c16,-7 30,-19 40,-33 11,-14 17,-31 19,-49 60,-629 100,-943 187,-1092 81,-139 213,-130 455,-112 94,6 201,14 326,17 125,3 267,2 427,-10l25 -2 0 -3c5,-2 9,-4 14,-6l0 0c12,-6 22,-15 31,-26 115,-141 206,-296 298,-450l0 0 0 -1c28,-47 56,-95 84,-140 28,-46 56,-91 85,-134 68,-102 123,-150 172,-164 45,-13 88,5 133,35 15,10 30,21 45,33 15,11 32,24 49,37 22,17 44,34 67,51 23,17 47,34 72,50l0 0c15,11 32,18 51,19 17,1 36,-2 53,-11 29,-15 43,-20 51,-23l0 0c7,-3 13,-6 19,-9 7,-3 13,-7 20,-12 8,-6 13,-11 19,-17 6,-6 11,-12 17,-19 12,-13 17,-19 21,-24 7,-8 14,-16 18,-21 11,-12 21,-23 29,-34 8,-10 16,-21 24,-32 4,-6 8,-11 16,-22 6,-9 12,-16 18,-23l64 -78 0 0c109,-133 192,-234 263,-294zm-5250 5056l-640 651c-24,29 -54,58 -84,85l0 0c-15,13 -31,27 -46,40l-1 0c-32,28 -64,55 -94,84 -18,18 -37,37 -56,55 -20,19 -39,37 -58,56 -64,61 -127,122 -187,183 -75,77 -515,490 -510,494 19,16 404,-118 432,-121 181,-19 661,-236 942,-348l0 0 0 0 0 0 1 -1c52,-20 96,-38 152,-59l2 -1 2158 -792 23 -9 0 0c108,-39 200,-76 282,-115 89,-41 165,-84 233,-134 69,-50 130,-107 185,-175 56,-67 107,-145 159,-239l0 0c10,-18 15,-38 14,-58 -1,-20 -9,-39 -22,-56 -59,-74 -118,-135 -178,-190 -60,-55 -120,-104 -181,-153 -27,-23 -55,-45 -80,-65 -25,-21 -51,-44 -78,-68 -11,-10 -23,-18 -37,-23l0 0c-14,-5 -29,-7 -45,-5 -107,12 -278,65 -468,132 -189,67 -396,148 -575,218 -65,26 -127,50 -173,68 -51,20 -98,38 -136,51 -35,13 -90,32 -151,53l0 0 0 0 0 0c-88,29 -190,64 -286,100 -95,35 -182,71 -238,102 -48,27 -88,59 -122,91 -34,32 -63,66 -90,97 -16,19 -31,36 -47,52l0 0zm-2992 3682l-19 496 0 0c-1,14 1,29 6,42 5,13 13,26 24,36l401 389 18 17 2 -2c7,4 15,7 23,9 15,5 32,5 48,1l510 -114 24 -5 -1 -3c24,-13 41,-33 49,-57 9,-24 8,-51 -5,-76 -17,-36 -67,-94 -134,-162 -75,-76 -173,-166 -275,-255 -110,-95 -227,-191 -325,-266 -92,-70 -168,-121 -208,-138l-22 -10 -1 3c-4,0 -8,-1 -12,-1 -27,-1 -53,9 -71,27 -19,17 -31,41 -32,69l0 0zm572 -7l517 477 18 17 2 -2c6,3 12,5 19,7 13,5 28,6 44,3 133,-21 279,-73 430,-146 169,-82 345,-190 515,-310 202,-143 398,-303 567,-456 192,-174 350,-339 441,-456l0 0c2,-3 4,-6 7,-10l0 0c2,-3 4,-7 5,-10 13,-25 283,-295 275,-319 -8,-24 -461,153 -517,165 -67,14 -143,46 -240,86l-23 10 0 0c-25,11 -53,22 -83,35 -40,16 -81,32 -122,47l0 0c-56,21 -122,45 -197,71 -76,28 -162,58 -252,90 -253,89 -542,191 -797,287 -254,96 -473,187 -587,252 -5,3 -10,6 -15,9 -5,4 -9,8 -13,12 -19,21 -27,47 -26,72 1,25 11,51 32,69zm5239 -4856c-27,31 -52,65 -74,103 -23,38 -43,78 -60,122 -9,21 -10,44 -5,65 6,21 19,41 38,55 27,19 54,41 81,64 27,24 55,50 84,75 41,38 83,76 127,112 45,37 91,71 140,99l21 13 2 -3c8,2 17,3 26,4 17,0 34,-4 49,-13 43,-24 80,-47 113,-72 34,-25 63,-51 89,-79 26,-29 48,-59 68,-93 19,-33 36,-69 51,-110 8,-19 10,-40 5,-60 -4,-21 -15,-40 -31,-54l-418 -364 -19 -16 -2 2c-10,-5 -20,-8 -31,-10 -19,-2 -38,0 -56,9 -38,18 -74,40 -107,65 -33,25 -63,54 -91,86zm-1610 -28c-64,65 -126,132 -177,193 -82,97 -436,418 -413,429 23,12 398,-129 424,-138l0 0 921 -319 0 0c2,-1 4,-2 7,-2 2,-1 4,-2 6,-3 25,-12 42,-32 51,-56 9,-24 8,-51 -3,-76 -21,-43 -38,-78 -56,-108 -18,-31 -38,-57 -64,-83 -25,-25 -52,-47 -88,-72 -35,-24 -77,-49 -131,-81l0 0c-16,-9 -34,-15 -52,-15 -18,0 -36,4 -52,14 -42,24 -100,68 -164,123 -66,57 -139,125 -209,194zm742 -1017l0 0 -7 5c-142,109 -180,138 -270,299l-12 22 3 2c-2,7 -3,15 -3,22 -1,16 3,32 10,47 19,37 58,87 111,144 58,63 132,135 210,206 89,80 183,160 264,223 79,63 147,111 185,129l0 0c17,9 37,13 56,11 19,-2 37,-9 53,-22l14 -12 13 -11c119,-98 164,-134 245,-285l12 -22 -3 -2c2,-7 3,-15 3,-22 0,-16 -4,-32 -12,-47 -17,-32 -54,-78 -104,-131 -55,-59 -127,-127 -203,-196 -87,-79 -181,-160 -262,-225 -82,-67 -151,-119 -189,-142 -17,-10 -37,-15 -57,-14 -20,0 -39,7 -56,20l-1 1zm1624 -274c-388,-352 -923,-837 -1092,-888l-24 -7 -1 4c-24,-1 -46,7 -64,20 -20,16 -34,39 -37,66l-124 952 0 0 0 0 0 1 -3 24 3 0c1,11 4,21 9,30 8,17 20,32 37,42l0 0c41,25 102,71 172,128 77,61 163,135 248,209 81,72 159,145 225,209 59,58 107,109 136,145l15 19 2 -1c6,4 13,8 20,11 14,7 30,10 46,9 54,-3 120,-14 192,-32 79,-18 166,-44 253,-73 95,-32 189,-68 272,-104 83,-35 155,-70 204,-100l0 0c1,-1 2,-2 3,-2l17 -10 -1 -3c11,-11 19,-24 24,-39l0 0c7,-22 7,-46 -2,-69l0 0c-4,-9 -8,-19 -12,-29l-10 -28 0 0c-13,-33 -19,-49 -36,-70 -14,-19 -27,-28 -50,-45l-20 -16 0 1 -7 -6c-12,-9 -26,-20 -43,-34 -37,-31 -87,-75 -146,-128 -54,-48 -127,-114 -206,-186l0 0 0 0zm382 137c113,106 238,224 358,325 14,12 470,437 478,436 27,-3 -7,-265 -11,-309 -32,-353 -92,-560 -182,-706 -90,-147 -209,-229 -358,-333 -82,-58 -175,-122 -277,-210 -102,-88 -215,-200 -339,-354l-16 -20 -3 2c-4,-3 -9,-6 -14,-8 -12,-6 -26,-10 -41,-11l0 0c-203,-8 -938,-57 -943,-43 -24,72 934,867 1018,937l0 0 0 0 3 3c37,31 71,59 93,78 63,53 144,129 233,212l1 1zm913 -1606c-130,-115 -260,-226 -367,-311 -96,-77 -173,-134 -216,-156 -23,-13 -50,-16 -74,-10 -24,6 -46,21 -61,44l-405 659 -13 22 3 2c-3,10 -5,21 -4,32 0,18 6,37 18,54 29,42 86,104 157,175 80,80 179,172 280,262 107,95 218,189 313,266 90,72 167,129 212,156l0 0c18,11 38,17 58,16 20,-1 41,-8 58,-21l615 -478 20 -16 -2 -2c11,-14 17,-30 20,-47 3,-24 -2,-50 -18,-72 -30,-42 -106,-121 -206,-219 -110,-105 -249,-233 -388,-356zm100 -547c-24,27 -45,58 -65,96 -20,37 -37,81 -55,134l-7 20 2 2c-1,12 0,24 3,36 5,18 15,35 30,48l286 251 19 17 2 -3c16,8 33,11 50,11 25,-2 49,-13 68,-33l256 -280c1,-1 2,-2 3,-3 2,-2 3,-3 3,-3 19,-21 27,-47 26,-72 -2,-26 -13,-51 -33,-69l-296 -267 -18 -17 -3 3c-10,-6 -22,-9 -34,-11 -20,-2 -40,1 -59,12 -37,20 -69,38 -98,58 -29,20 -55,43 -80,70z"/>
   <g>
    <path class="fil0" d="M8298 11139c-41,10 -74,27 -108,46l0 0c-13,7 -27,14 -34,18 -247,124 -578,191 -921,215 -404,28 -824,-3 -1147,-72 -48,-10 -104,-24 -160,-40 -48,-13 -94,-28 -132,-43l0 0 -272 -122c-19,-9 -41,0 -49,19 -2,4 -4,10 -4,15l0 0c0,44 0,73 -1,100 -4,311 -7,491 440,692 75,34 145,60 217,83 72,22 147,40 233,58 168,36 210,36 291,38 28,0 62,1 111,4 72,3 94,7 107,9 8,2 13,3 25,3 15,0 35,-2 86,-6 21,-2 46,-4 64,-6 68,-5 103,-6 130,-7 58,-2 88,-3 269,-33 155,-26 322,-75 473,-149 131,-64 250,-147 338,-251 99,-115 96,-257 93,-435 0,-29 -1,-58 -1,-100 0,-21 -17,-38 -37,-38 -4,0 -8,1 -11,2zm-1614 139c245,0 489,-1 726,-27 239,-26 470,-76 689,-174 163,-73 270,-140 337,-226 69,-87 95,-191 95,-337l0 -2813c0,-20 -17,-37 -38,-37 -3,0 -6,1 -9,1l0 0c-41,11 -48,18 -63,34l0 0c-5,5 -11,11 -22,20 -310,239 -861,358 -1421,367 -581,9 -1169,-102 -1502,-323 -25,-17 -49,-35 -73,-53 -23,-18 -46,-36 -72,-53 -17,-11 -40,-7 -51,10 -5,7 -7,15 -7,23l0 2758 0 15c0,124 0,172 43,265 57,124 164,220 289,294 163,96 358,155 518,188 85,18 174,35 268,47 94,13 193,21 293,21zm211 -3328c246,0 614,-39 938,-131 245,-70 466,-170 592,-307 47,-52 78,-103 94,-152 23,-68 18,-132 -6,-192 -22,-57 -63,-109 -115,-157 -142,-130 -370,-224 -522,-275 -143,-47 -265,-68 -415,-94l-44 -8c-3,0 -5,0 -8,0l-777 -27c-1,0 -2,0 -3,0 -87,3 -216,21 -343,45 -142,26 -284,60 -368,88 -110,37 -320,123 -468,241 -102,81 -177,177 -177,285 0,161 126,289 300,388 249,141 598,224 793,252 85,13 183,25 282,33 84,7 169,11 247,11zm1786 -671l0 3315c0,188 -82,277 -136,337 -31,33 -55,59 -61,93 -12,67 -8,151 -4,241 6,126 13,265 -23,372 -28,83 -50,110 -89,160 -6,7 -12,15 -23,29 -108,139 -302,247 -518,325 -278,100 -593,148 -813,148 -187,0 -337,-1 -483,-16 -146,-16 -290,-45 -468,-102 -95,-30 -208,-78 -310,-134 -88,-48 -167,-101 -221,-156 -216,-217 -215,-351 -211,-658 1,-52 2,-108 2,-152 0,-92 -12,-103 -44,-133 -9,-8 -19,-18 -32,-34 -26,-34 -54,-75 -75,-123 -21,-47 -35,-100 -35,-158l0 -3381c0,-127 66,-239 161,-332 134,-132 324,-228 473,-281 334,-120 730,-180 1126,-181 401,0 801,59 1140,177 157,55 346,152 479,287 97,99 165,219 165,357z"/>
    <path class="fil0" d="M7946 7235c-10,-8 -12,-9 -14,-10 -24,-16 -46,-31 -72,-44 -109,-52 -154,-62 -249,-83 -14,-4 -29,-7 -60,-14 -230,-54 -579,-74 -915,-47 -288,23 -569,81 -762,182l-26 14 8 29c22,83 95,109 169,134l0 0 8 3c38,13 74,24 110,34 36,10 73,19 112,27 275,57 448,56 696,55 22,-1 45,-1 116,-1 146,0 378,-25 568,-72 150,-37 277,-89 322,-156l20 -31 -31 -20zm-1011 429c-154,0 -283,-5 -407,-17 -124,-13 -243,-33 -376,-62 -207,-46 -353,-127 -417,-218 -29,-43 -40,-87 -30,-130 11,-46 46,-92 106,-136 174,-125 547,-221 1177,-221 83,0 187,6 299,18 189,20 399,59 562,123 152,60 260,140 260,245 0,6 -1,12 -1,18 -13,119 -141,203 -314,263 -262,89 -623,117 -859,117z"/>
    <path class="fil0" d="M8203 10660c0,126 -118,130 -302,186 -97,30 -302,104 -385,104 -66,0 -142,-133 -40,-198l329 -107c133,-45 398,-163 398,15z"/>
    <path class="fil0" d="M6750 10937c0,132 -211,175 -211,0 0,-150 211,-122 211,0z"/>
    <path class="fil0" d="M6129 10765c0,142 -211,184 -211,-13 0,-105 211,-121 211,13z"/>
    <path class="fil0" d="M5641 10567c-170,0 -180,-211 0,-211 110,0 110,211 0,211z"/>
    <path class="fil0" d="M7353 13475c10,-107 -52,-171 -39,-284l693 -312c3,-1 9,-3 12,-4 2,-1 8,-3 12,-4l142 587c-126,44 -455,18 -606,23 -76,2 -132,9 -214,-6zm2320 -994l78 325c19,88 68,239 59,320 -236,36 -511,112 -753,166 -131,30 -657,163 -745,156l-139 -632 1500 -335zm751 -283c44,-88 43,-91 112,-111l1619 -363c45,-5 -4,-7 66,3 -11,100 57,133 26,249 -99,0 -1167,257 -1422,314 -58,13 -192,51 -243,54 -147,8 -144,-125 -158,-146zm2003 -129c90,-16 161,-35 252,-55 190,-43 174,-62 284,24 -8,29 -1,3 2,36 17,183 -162,183 -374,230 -24,5 -26,5 -49,10l-89 -120c-6,-26 -8,-35 -12,-61l-14 -64zm192 358c215,-50 435,-51 479,-264 39,-188 -110,-354 -327,-308 -87,18 -289,52 -350,83 -92,-87 -48,-338 -139,-373 -30,-11 -1782,386 -1833,413 -160,84 -185,244 -113,368 99,167 278,130 397,103l1562 -352 8 35c1,5 5,19 7,24 6,25 8,35 14,61 20,89 68,263 63,330l-2427 543c-41,-63 -67,-240 -86,-324 -13,-59 -22,-100 -35,-159l-31 -144c2,-5 -1,-8 -2,-12 71,-9 128,-26 203,-43 24,-5 23,-5 48,-10 46,-10 71,-7 96,-37 51,-60 15,-27 20,-58 -31,-83 -82,-52 -170,-32l-1350 303c-292,65 -545,110 -758,209 -902,420 -719,279 -713,512 -95,73 -114,-13 -181,114 70,66 -19,5 41,43 50,32 96,-1 169,-12 25,45 16,32 29,83 34,129 77,93 382,91 559,-2 478,26 1013,-94 440,-99 862,-193 1302,-292l2287 -511c395,-89 307,-35 297,-273l98 -17z"/>
    <path class="fil0" d="M12194 7514l0 0 -67 1167 -3 50 51 2c176,7 334,13 468,-17 142,-32 255,-102 330,-246 80,-153 70,-508 62,-773 -2,-65 -3,-124 -3,-181 0,-109 3,-208 6,-303 6,-174 11,-335 -3,-474 -39,-360 -202,-578 -787,-516l-41 4 -3 42c-17,231 -13,484 -10,735 2,173 5,345 0,510zm-1475 -2592c-1138,-3 -2660,6 -2785,10l-47 2 -1 46c-8,207 -13,477 -16,781 -1,262 -1,550 3,843l-83 -37 -23 -10 -21 12 -54 30c1,-99 2,-194 2,-284 1,-132 2,-254 2,-325 0,-182 -3,-351 -6,-495 -6,-376 -10,-573 52,-665 63,-93 222,-92 556,-88 76,0 159,1 220,1l0 0 3278 0c92,0 172,0 236,15 57,14 102,41 133,95 38,65 36,154 35,246 -1,70 -3,141 12,211l7 38 39 2c32,2 68,3 104,5 457,21 897,42 1245,562 250,375 239,839 228,1354 -3,117 -6,236 -6,345l1 0 -3 750 0 0c-6,157 -42,308 -100,444 -63,147 -151,278 -254,385 -386,401 -744,400 -1114,398 -125,-1 -251,-1 -381,13l-33 3 -9 32c-86,295 -184,566 -316,792 -128,223 -289,401 -502,513 -227,120 -493,115 -780,109 -68,-1 -137,-2 -193,-2 -75,0 -179,2 -289,5 -271,6 -588,13 -777,-14 -113,-17 -216,-51 -310,-101 -84,-44 -161,-100 -232,-166l99 -155 3 -6c260,268 538,264 1039,256 83,-1 174,-2 292,-2 100,0 163,0 223,1 659,6 963,9 1277,-547 636,-1121 580,-3635 547,-5082 -2,-87 -3,-170 -5,-249l-1 -39 -37 -9c-64,-15 -596,-21 -1255,-23zm2106 4447c230,-63 420,-175 549,-332 291,-353 284,-686 274,-1159 -2,-90 -4,-186 -4,-287 0,-96 3,-199 6,-303 13,-442 26,-916 -176,-1234 -119,-188 -288,-336 -506,-426 -201,-83 -441,-115 -721,-83l-44 5 0 45 -1 382 0 47 47 3c46,3 96,4 146,5 265,6 540,12 728,339 122,211 111,593 101,925 -3,89 -5,175 -5,245 0,65 2,142 4,219 12,470 25,958 -493,1133 -134,45 -259,33 -361,23 -155,-15 -265,-26 -309,130l-1 3 0 2 -50 297 -9 50 51 7c282,40 547,26 774,-36z"/>
    <path class="fil1" d="M5054 12713l-60 102 -11 -11c-53,-57 -142,-151 -164,-195 3,1 6,3 10,4l225 100zm-1622 226l24 -65c3,-8 1,-17 -6,-22 -24,-19 -57,-35 -92,-53 -33,-16 -68,-34 -98,-55l-1 -1c-8,-6 -20,-4 -26,5l-39 54 0 0c-5,7 -5,16 0,23 29,38 92,67 147,92 24,11 47,22 64,32l0 0c1,0 2,1 3,1 10,4 20,-1 24,-11zm-422 -578c-1,-15 -2,-31 -4,-47 -1,-9 -8,-16 -17,-17l-65 -5 0 0c-9,-1 -17,5 -20,13 -19,66 -5,143 30,221 39,86 103,172 176,242 8,7 20,7 27,0l42 -45c5,-4 8,-11 6,-18 -7,-26 -22,-41 -43,-62 -26,-26 -62,-61 -98,-140 -27,-57 -30,-98 -34,-142zm2162 188c-3,35 -7,67 -11,88l-321 -143 3 -23 340 -74c-1,35 -5,96 -11,152zm-273 -241c50,-43 116,-93 155,-121l41 112c-35,10 -114,32 -180,45 -25,5 -48,9 -64,10 11,-12 28,-28 48,-46zm-1648 -490l984 1184c-38,16 -82,28 -127,37 -75,14 -153,21 -209,24 -7,0 -12,1 -16,1 -20,2 -30,2 -52,-23l0 0 -845 -1020c67,-90 144,-134 232,-184 10,-6 20,-11 33,-19zm1202 580l-560 -675c26,1 60,6 95,14 75,15 158,41 209,60 55,20 115,49 173,85 54,33 107,73 156,118 55,50 100,107 134,167 34,61 57,124 67,185 7,48 7,122 -7,193 -10,44 -24,85 -47,117l-159 -188 -1 0c-6,-8 -18,-9 -26,-3l-51 43 -1 1c-8,6 -9,18 -2,26l176 215c-58,82 -147,135 -210,171 -21,13 -40,24 -53,34l-987 -1186c48,-20 103,-34 158,-43 84,-14 167,-18 228,-17l627 751 0 0c6,8 18,9 26,2l53 -44c8,-7 9,-18 2,-26zm-1579 -160c9,-45 24,-88 47,-122l782 940c-83,-2 -190,-30 -297,-74 -126,-51 -250,-124 -333,-200 -55,-51 -101,-108 -136,-168 -34,-60 -58,-122 -68,-184 -9,-51 -9,-123 5,-192zm-208 200c28,-8 60,-17 84,-17 -10,16 -29,30 -53,47 -12,9 -26,19 -41,31l-10 9c-33,26 -66,52 -101,80l-44 -110c31,-10 64,-17 96,-24 10,-2 19,-4 32,-6 12,-3 24,-6 37,-10zm-35 -215c47,17 109,41 128,64l-2 12c-24,11 -93,30 -165,47 -72,18 -145,33 -180,37l17 -242 163 67 0 0c11,5 24,9 39,15zm37 -101c-50,-22 -102,-45 -128,-57 10,-21 25,-50 40,-74 8,-12 15,-23 21,-31 7,7 14,15 22,24 52,56 137,148 151,183 -15,-6 -59,-24 -106,-45zm-354 392c5,1 8,1 21,0l0 0c0,0 1,0 2,0l53 -13 91 248 0 0c0,2 1,4 3,5 6,8 18,10 26,3l273 -217c8,15 17,34 26,54 47,104 118,261 383,409 240,135 547,193 832,160 264,-29 510,-137 668,-331 11,-14 23,-31 35,-50 15,-22 30,-45 43,-59l224 262c1,1 3,3 5,4 9,5 20,2 26,-6l135 -230 69 34c2,1 4,2 7,2 10,1 19,-6 20,-17l49 -487c0,-2 0,-4 -1,-6 -1,-10 -11,-17 -21,-15l-78 13 -91 -249 0 0c-1,-1 -2,-3 -3,-5 -7,-8 -18,-9 -27,-3l-272 218c-7,-14 -13,-30 -20,-46 -9,-23 -18,-46 -30,-68 -39,-72 -90,-137 -149,-194 -64,-62 -137,-115 -212,-156 -120,-68 -252,-115 -385,-142 -139,-29 -280,-36 -414,-22 -517,52 -706,339 -769,435l-7 9 -226 -262 0 0c-1,-1 -3,-3 -5,-4 -9,-5 -20,-2 -25,7l-133 227c-31,-15 -58,-27 -88,-28 -1,0 -1,0 -2,0 -10,1 -18,9 -18,20 2,50 -9,141 -19,232 -13,103 -24,206 -18,250 1,8 8,16 17,17 2,0 4,0 5,1z"/>
   </g>
  </g>
 </g>
</svg>
