<?xml version="1.0" encoding="UTF-8"?>
<!DOCTYPE svg PUBLIC "-//W3C//DTD SVG 1.1//EN" "http://www.w3.org/Graphics/SVG/1.1/DTD/svg11.dtd">
<!-- Creator: CorelDRAW X7 -->
<svg xmlns="http://www.w3.org/2000/svg" xml:space="preserve" width="72.9mm" height="71.7mm" version="1.1" style="shape-rendering:geometricPrecision; text-rendering:geometricPrecision; image-rendering:optimizeQuality; fill-rule:evenodd; clip-rule:evenodd"
viewBox="0 0 7290 7170"
 xmlns:xlink="http://www.w3.org/1999/xlink">
 <defs>
  <style type="text/css">
   <![CDATA[
    .fil0 {fill:#C2200E}
    .fil1 {fill:#C2200E;fill-rule:nonzero}
   ]]>
  </style>
 </defs>
 <g id="Warstwa_x0020_1">
  <metadata id="CorelCorpID_0Corel-Layer"/>
  <g id="_2310781920384">
   <path class="fil0" d="M117 6005l157 116 0 0c10,8 22,12 34,12 12,0 24,-4 33,-12 26,-21 52,-45 77,-70 25,-25 50,-51 74,-78 23,-27 45,-54 65,-82 20,-27 39,-54 55,-81l7 -12 -2 -1c1,-4 2,-9 2,-13 0,-9 -2,-18 -6,-27 -13,-24 -26,-44 -38,-61 -13,-17 -27,-32 -42,-44 -15,-12 -31,-22 -49,-31 -18,-8 -37,-15 -60,-22 -9,-2 -18,-3 -27,-1 -8,2 -17,6 -24,12 -24,21 -56,52 -91,88 -28,29 -57,61 -84,93 -23,28 -44,56 -62,84 -16,25 -29,48 -37,70l-5 13 2 1c0,6 0,13 2,19 3,11 10,20 19,27zm5103 -5727l-334 391c-3,12 -7,26 -9,42l-3 13 2 0c1,4 1,9 3,12 2,8 7,16 13,22l126 119c8,8 18,14 29,16 10,2 22,1 32,-4 77,-37 143,-120 214,-210l0 0 0 0c59,-75 122,-154 195,-207 70,-51 151,-76 247,-44 28,9 55,25 79,47 22,20 42,46 55,76 13,27 20,58 22,92 1,32 -4,66 -15,102 -15,45 -67,103 -119,163l0 0c-24,26 -47,52 -69,79 -22,28 -42,55 -57,83l-6 11 1 1c-1,5 -2,10 -2,15 1,9 3,18 9,27 11,17 23,33 34,47 12,15 25,28 40,40 14,13 30,24 48,34 17,10 37,20 60,29l0 0c9,4 20,5 30,3l0 0c9,-2 19,-6 26,-14 110,-106 190,-207 246,-302 62,-105 95,-202 104,-291 7,-58 4,-112 -7,-162 -12,-53 -33,-102 -60,-147 -26,-41 -57,-78 -93,-110 -37,-34 -80,-63 -125,-86 -71,-37 -149,-62 -226,-71 -77,-10 -154,-6 -222,13 -66,19 -116,45 -157,74 -40,28 -71,58 -99,86 -4,4 -8,8 -12,11zm-407 320l295 -326c9,-13 22,-27 38,-42l0 0c8,-8 17,-16 26,-26 43,-44 92,-82 144,-113 52,-31 107,-54 165,-70 57,-15 116,-22 176,-21 58,1 117,10 177,28 74,22 146,59 211,107 62,47 117,105 160,173 40,63 71,134 87,212 15,72 18,151 5,234 -8,56 -25,110 -48,161 -23,52 -53,100 -86,147 -34,48 -72,93 -111,136 -39,43 -79,84 -117,123 -18,18 -37,30 -58,37 -21,7 -44,9 -68,7 -20,-2 -41,-8 -62,-17 -22,-9 -43,-21 -64,-36 -20,-15 -40,-32 -57,-50 -18,-19 -34,-39 -47,-60 -19,-32 -33,-64 -39,-96 -6,-28 -4,-56 5,-80 17,-43 57,-81 99,-121l0 0 0 0 0 0c38,-36 76,-72 107,-117 30,-45 52,-98 55,-165l0 0c0,-8 -1,-16 -3,-23 -3,-7 -7,-14 -13,-20 -32,-29 -59,-52 -87,-66 -29,-14 -58,-19 -91,-12 -28,6 -57,21 -89,48 -30,25 -64,61 -104,110 -25,29 -68,77 -120,134l0 0 -1 0c-147,163 -358,394 -388,485l-4 13 2 0c-1,5 0,10 1,14 1,9 5,18 12,25 20,23 42,44 61,64l0 0 0 0 0 0 0 0 1 0 0 0c18,19 35,36 48,52 18,20 27,40 20,64 -8,26 -35,59 -90,105 -5,4 -17,15 -32,27l-4 4 0 0 0 0c-89,75 -212,179 -291,228l-12 7 1 2c-3,3 -6,7 -8,12 -4,8 -7,17 -6,26 6,124 30,230 50,322l0 0 0 0 0 0 0 1c10,43 19,83 25,122 5,35 7,66 3,95 -3,26 -12,50 -27,72l-175 2c1,-1 1,-1 2,-2 11,-10 16,-23 17,-37 0,-13 -5,-27 -15,-37l-90 -97 -9 -9 -2 1c-4,-3 -9,-5 -14,-6 -10,-3 -20,-3 -29,0l-337 109c-1,1 -2,1 -2,1 -1,0 -2,1 -3,1 -50,18 -75,28 -91,37 -17,10 -22,19 -30,33l0 0c-1,2 -2,3 -3,5 -1,1 -2,3 -4,5 -9,11 -13,24 -12,36 1,13 6,26 16,35 44,44 81,61 119,63 38,2 74,-10 119,-25l0 0 0 0 0 0 10 -3c-7,13 -13,28 -20,43 -8,17 -15,34 -21,48l-4 1 0 0 -12 2 -11 1 0 2c-7,2 -13,7 -18,12 -8,8 -13,19 -15,30l0 0c-4,38 -15,73 -31,106 -17,35 -39,67 -66,96 -28,31 -62,57 -97,79 -36,22 -75,38 -114,48 -4,2 -10,3 -17,5 -10,2 -12,3 -14,3 -12,3 -21,5 -29,8 -8,3 -15,6 -22,10 -13,9 -19,18 -31,33l0 0 0 0 0 0c-5,8 -13,18 -24,31l-214 244 -232 23 -2 0 -3 1 -319 150 -5 2 -2 6 -1 2c-153,52 -369,131 -590,212 -221,82 -452,169 -630,236 -61,23 -119,45 -138,52 -37,14 -72,27 -110,41 -12,4 -25,9 -37,13 -13,4 -25,8 -37,12l0 0 0 0c-99,33 -188,62 -250,145 -30,40 -60,85 -89,134 -30,49 -59,102 -86,156 -26,53 -51,107 -71,159 -24,58 -132,263 -129,263 63,-6 390,-125 612,-207 219,-80 470,-177 649,-246l2 -1c90,-35 162,-63 200,-77 172,-65 271,-112 343,-164 73,-52 119,-108 186,-191l0 0 0 0c24,-29 50,-63 82,-99l2 123 -31 35c-44,47 -90,97 -138,151 -48,54 -97,111 -147,169 -61,71 -125,145 -190,217 -64,73 -131,145 -200,214 -31,31 -60,60 -89,87 -29,26 -58,52 -88,77 -30,25 -60,48 -93,72 -32,24 -66,48 -104,73l-333 186c-80,38 -124,74 -148,108 -25,34 -30,65 -35,93 -3,15 -5,29 -25,42 -24,16 -70,32 -160,49 -95,19 -144,30 -178,46 -35,17 -54,38 -88,78l0 0c-7,9 -16,18 -27,31 -10,11 -21,23 -33,36 -15,16 -30,33 -45,51 -15,18 -28,35 -42,52 -13,16 -25,31 -38,47 -13,15 -25,30 -38,43 -38,41 -79,71 -128,74 -49,3 -108,-22 -182,-92 -5,-5 -9,-9 -13,-13 -5,-4 -9,-7 -13,-11 -31,-28 -67,-61 -88,-99 -19,-37 -24,-81 4,-134 55,-100 114,-149 166,-193 48,-40 92,-77 127,-139 35,-61 60,-147 71,-284 5,-70 15,-110 33,-136 18,-26 43,-41 79,-62l0 0c19,-10 39,-22 62,-36l11 -7 -1 -2c24,-23 41,-48 55,-78 15,-30 27,-64 41,-105 30,-89 72,-211 179,-383 108,-172 282,-395 577,-684 24,-23 45,-45 65,-66 20,-21 38,-40 54,-57 32,-34 58,-62 82,-84l393 -398c31,-34 69,-66 104,-96 11,-10 23,-20 35,-31 12,-10 22,-20 32,-29 30,-29 58,-57 87,-84 27,-28 56,-55 84,-83 28,-27 56,-55 84,-82 28,-28 57,-56 87,-86l40 -39c15,-15 30,-29 66,-65l0 0c22,-21 45,-44 71,-69 10,-10 19,-18 27,-25 9,-9 15,-14 21,-19l0 0 0 0 0 0c23,-20 35,-31 46,-52 6,-11 10,-23 14,-37 3,-15 6,-31 10,-54l0 0 0 0 0 0c4,-20 8,-44 9,-51 5,-26 15,-51 28,-75 16,-27 36,-53 59,-77 28,-29 60,-55 92,-77 38,-27 76,-48 110,-64l0 0c9,-4 16,-10 21,-17 6,-7 9,-16 10,-26 32,-331 53,-496 99,-575 43,-73 112,-68 239,-59 50,4 106,8 172,9 66,2 140,1 225,-5l13 -1 0 -2c2,-1 5,-2 7,-3l0 0c6,-3 12,-8 17,-13 60,-75 108,-156 156,-238l0 0 0 0c15,-25 30,-50 44,-74 15,-24 30,-48 45,-70 36,-54 65,-79 91,-87 24,-6 46,3 70,19 8,5 16,11 24,17 7,6 16,13 25,20 12,9 23,18 36,27 12,9 24,17 37,26l0 0c8,6 18,9 27,10 10,1 19,-1 28,-6 16,-8 23,-10 27,-12l0 0c4,-2 7,-3 10,-5 4,-1 7,-3 11,-6 4,-3 7,-6 10,-9 3,-3 5,-6 9,-10 6,-7 9,-10 11,-12 4,-5 7,-9 9,-12 6,-6 11,-12 15,-17 5,-6 9,-12 13,-17 2,-3 4,-7 9,-12 3,-5 6,-9 9,-12l34 -41 0 0c57,-70 101,-123 138,-155zm-2763 2662l-338 342c-12,16 -28,31 -44,45l0 0c-8,7 -16,14 -24,21l0 0c-17,15 -34,29 -50,44 -10,10 -20,20 -30,29 -10,10 -20,20 -30,30 -34,32 -67,64 -98,96 -40,41 -271,258 -269,260 10,9 213,-62 227,-64 96,-10 348,-124 496,-183l0 0 0 0 0 0 1 0c27,-11 50,-20 80,-31l1 -1 1136 -417 12 -4 0 0c57,-21 106,-41 149,-61 46,-22 86,-44 122,-70 37,-27 68,-57 98,-93 29,-35 56,-76 83,-126l0 0c6,-9 8,-19 8,-30 -1,-10 -5,-21 -12,-30 -31,-38 -62,-71 -94,-100 -31,-28 -63,-54 -95,-80 -14,-12 -29,-24 -42,-34 -13,-12 -27,-23 -41,-36 -6,-5 -12,-10 -20,-12l0 0c-7,-3 -15,-4 -23,-3 -56,7 -147,34 -247,70 -99,35 -208,78 -302,115 -35,13 -67,26 -91,35 -27,11 -52,20 -72,27 -18,7 -47,17 -80,28l0 0 0 0 0 0c-46,15 -99,34 -150,52 -50,19 -96,38 -125,54 -26,15 -46,31 -65,48 -17,17 -32,35 -47,52 -8,9 -16,18 -24,27l0 0zm-1576 1938l-10 261 0 0c0,7 1,15 4,22 2,7 6,14 12,19l211 205 10 9 1 -1c3,2 7,4 12,5 8,2 16,2 25,0l269 -60 12 -3 0 -1c12,-7 21,-18 26,-30 4,-13 3,-27 -3,-40 -9,-19 -35,-50 -71,-86 -39,-40 -91,-87 -144,-134 -58,-50 -120,-100 -172,-140 -48,-36 -88,-64 -109,-72l-12 -5 0 1c-2,0 -4,0 -6,-1 -15,0 -28,5 -38,14 -10,10 -16,22 -17,37l0 0zm301 -4l272 252 10 8 1 -1c3,2 7,3 10,4 7,2 15,3 23,2 70,-12 147,-39 227,-77 89,-44 181,-101 271,-164 106,-75 209,-159 298,-240 102,-91 184,-178 232,-240l0 0c1,-1 3,-3 4,-5l0 0c1,-2 2,-3 3,-5 6,-13 149,-155 144,-168 -4,-13 -242,80 -271,87 -36,7 -76,24 -127,45l-12 5 0 0c-14,6 -28,12 -44,19 -21,8 -42,17 -64,25l0 0c-29,10 -64,23 -104,37 -40,14 -85,30 -133,47 -133,47 -285,101 -419,151 -134,51 -249,99 -309,133 -3,1 -5,3 -8,5 -2,2 -5,4 -7,6 -10,11 -14,25 -14,38 1,13 7,27 17,36zm2758 -2556c-14,16 -27,34 -39,54 -12,20 -22,41 -31,64 -5,11 -6,24 -3,35 3,11 10,21 20,28 14,10 28,22 43,35 14,12 29,25 44,39 22,20 44,40 67,59 23,19 48,37 74,52l11 7 1 -2c4,1 9,2 14,2 8,0 17,-2 25,-7 23,-12 43,-25 60,-37 18,-14 33,-27 46,-42 14,-15 26,-31 36,-49 10,-17 19,-37 27,-58 4,-10 5,-21 3,-32 -2,-11 -8,-21 -17,-28l-220 -192 -10 -8 -1 1c-5,-3 -10,-4 -16,-5 -10,-1 -20,0 -30,4 -20,10 -38,21 -56,35 -17,13 -33,28 -48,45zm-847 -15c-34,34 -67,69 -94,102 -42,51 -229,220 -217,226 12,6 210,-68 224,-73l0 0 484 -168 0 0c1,0 2,-1 4,-1 1,-1 2,-1 3,-2 13,-6 22,-17 27,-29 5,-13 4,-27 -2,-40 -10,-23 -19,-41 -29,-57 -10,-16 -20,-30 -34,-44 -13,-13 -27,-25 -46,-37 -19,-13 -41,-26 -69,-43l0 0c-8,-5 -18,-8 -28,-8 -9,0 -18,2 -27,7 -22,13 -52,36 -86,65 -35,30 -73,66 -110,102zm390 -535l0 0 -3 2c-75,58 -95,73 -142,158l-7 11 2 1c-1,4 -2,8 -2,12 0,8 2,17 6,25 9,19 30,46 58,75 30,34 69,72 111,109 46,42 96,84 138,118 42,33 78,58 98,68l0 0c9,4 19,6 29,5 10,-1 20,-5 28,-12l8 -6 7 -6c62,-51 86,-70 128,-149l7 -12 -2 -1c1,-4 2,-8 2,-12 0,-8 -2,-17 -6,-25 -9,-17 -29,-41 -55,-68 -29,-31 -67,-67 -107,-104 -46,-41 -95,-84 -138,-118 -43,-35 -80,-63 -100,-75 -9,-5 -19,-8 -30,-7 -10,0 -20,4 -29,10l-1 1zm856 -144c-205,-186 -486,-441 -575,-468l-13 -3 -1 1c-12,0 -24,4 -33,11 -11,8 -18,21 -20,35l-65 501 0 0 0 0 0 1 -2 12 2 0c1,6 2,11 5,16 4,9 10,17 19,22l0 0c22,13 54,37 91,67 40,33 86,71 130,111 43,37 84,76 119,110 31,30 56,57 71,76l8 10 1 -1c4,2 7,5 11,6 7,4 16,5 24,5 28,-2 63,-8 101,-17 42,-10 88,-23 133,-39 50,-16 100,-35 143,-54 44,-19 82,-37 108,-53l0 0c0,0 1,-1 2,-1l8 -5 0 -2c5,-5 10,-13 12,-20l0 0c4,-12 4,-25 -1,-36l0 0c-2,-5 -4,-11 -6,-16l-5 -14 0 0c-7,-18 -10,-26 -19,-38 -8,-9 -14,-14 -26,-23l-11 -9 0 1 -4 -3c-6,-5 -13,-11 -22,-18 -20,-16 -46,-40 -77,-67 -28,-26 -67,-61 -108,-98l0 0 0 0zm200 72c60,56 126,118 189,171 7,6 247,230 251,229 15,-1 -3,-139 -5,-162 -17,-186 -49,-295 -96,-372 -48,-77 -110,-121 -189,-176 -43,-30 -92,-63 -145,-110 -54,-46 -114,-105 -179,-186l-8 -11 -2 2c-2,-2 -5,-4 -7,-5 -7,-3 -14,-5 -22,-6l0 0c-107,-4 -494,-30 -496,-22 -13,37 491,456 536,493l0 0 0 0 1 1c20,17 38,31 49,41 33,28 76,68 123,112l0 1zm481 -846c-68,-60 -137,-119 -193,-164 -50,-40 -91,-70 -114,-82 -12,-7 -26,-8 -39,-5 -13,3 -24,11 -32,24l-213 346 -7 12 2 1c-2,5 -3,11 -3,17 1,9 4,19 10,28 15,22 45,55 83,92 42,42 94,91 147,138 56,50 115,100 165,140 47,38 88,68 112,82l0 0c9,6 19,9 30,9 11,-1 21,-4 31,-11l323 -252 11 -8 -1 -2c5,-7 9,-15 10,-24 2,-13 -1,-27 -9,-38 -16,-22 -56,-64 -109,-115 -57,-56 -131,-123 -204,-188zm53 -288c-13,15 -24,31 -35,51 -10,19 -19,42 -29,70l-3 11 1 1c-1,6 0,13 1,19 3,9 8,18 17,25l150 132 10 9 1 -1c8,4 17,6 26,5 13,0 26,-6 36,-17l135 -147c0,-1 1,-1 2,-2 0,-1 1,-1 1,-2 10,-10 14,-24 14,-37 -1,-14 -7,-27 -18,-37l-155 -140 -10 -9 -1 1c-6,-3 -12,-5 -19,-5 -10,-2 -21,0 -31,6 -19,10 -36,20 -51,31 -15,10 -29,22 -42,36z"/>
   <g>
    <path class="fil0" d="M4370 5864c-21,5 -38,14 -57,24l0 0c-7,4 -14,8 -18,10 -129,65 -303,100 -484,113 -213,15 -434,-2 -604,-38 -25,-5 -55,-13 -84,-21 -25,-7 -50,-15 -70,-23l0 0 -143 -64c-10,-5 -21,0 -26,10 -1,2 -2,5 -2,8l0 0c0,23 0,38 0,53 -3,163 -4,258 231,364 40,18 76,32 115,43 37,12 77,22 122,31 89,19 111,19 153,20 15,0 33,1 59,2 38,2 49,4 56,5 4,1 7,1 13,1 8,0 19,-1 45,-3 11,-1 25,-2 34,-3 36,-3 54,-3 69,-4 30,-1 46,-1 141,-17 82,-14 170,-39 249,-78 69,-34 132,-78 178,-132 52,-61 51,-136 49,-230 0,-15 0,-30 0,-52 0,-11 -9,-20 -20,-20 -2,0 -4,0 -6,1zm-849 73c129,0 257,-1 382,-14 126,-14 247,-40 363,-92 85,-38 142,-74 177,-119 36,-46 50,-100 50,-177l0 -1481c0,-11 -9,-19 -20,-19 -1,0 -3,0 -5,0l0 0c-21,6 -25,10 -33,18l0 0c-2,3 -5,6 -11,11 -163,125 -454,188 -748,193 -306,4 -616,-54 -791,-170 -13,-9 -26,-19 -38,-28 -13,-10 -25,-19 -38,-28 -9,-6 -21,-4 -28,5 -2,4 -3,8 -3,12l0 1452 0 8c0,65 0,91 23,140 30,65 86,115 152,154 86,51 188,82 272,99 45,10 92,19 141,25 50,7 102,11 155,11zm111 -1752c129,0 323,-20 494,-69 129,-36 245,-89 311,-162 25,-27 41,-54 50,-80 12,-35 9,-69 -3,-100 -12,-30 -34,-58 -61,-83 -75,-69 -195,-118 -275,-145 -75,-25 -139,-36 -218,-49l-23 -4c-2,-1 -3,-1 -4,-1l-410 -14c0,0 -1,0 -1,0 -46,2 -114,11 -181,24 -75,14 -149,31 -194,46 -58,19 -168,65 -246,127 -54,42 -93,93 -93,150 0,85 67,152 158,204 131,75 315,118 417,133 45,7 97,13 149,17 44,4 89,6 130,6zm940 -353l0 1745c0,99 -43,146 -72,177 -16,18 -28,31 -32,49 -6,35 -4,80 -2,127 4,67 7,140 -12,196 -15,44 -26,58 -47,84 -3,4 -6,8 -12,15 -57,74 -159,131 -272,172 -147,52 -313,78 -428,78 -99,0 -178,-1 -255,-9 -77,-8 -153,-24 -246,-53 -50,-16 -110,-41 -163,-71 -47,-25 -88,-53 -117,-82 -114,-114 -113,-185 -111,-347 1,-27 1,-56 1,-79 0,-49 -6,-55 -23,-71 -4,-4 -10,-9 -17,-17 -14,-18 -28,-40 -39,-65 -11,-25 -19,-53 -19,-83l0 -1780c0,-67 35,-126 85,-175 71,-70 171,-120 249,-148 176,-63 384,-95 593,-95 211,0 422,31 600,93 83,29 182,80 252,151 51,52 87,115 87,188z"/>
    <path class="fil0" d="M4185 3809c-5,-4 -6,-5 -7,-6 -13,-8 -24,-16 -38,-22 -58,-28 -81,-33 -131,-45 -8,-1 -16,-3 -32,-7 -121,-28 -304,-39 -481,-25 -152,12 -300,43 -401,97l-14 7 4 15c11,44 50,57 89,70l0 0 4 2c20,7 39,13 58,18 19,5 38,10 59,14 145,30 236,30 366,29 12,0 24,0 61,0 77,0 199,-13 299,-38 80,-20 146,-47 170,-82l11 -17 -17 -10zm-532 226c-81,0 -149,-3 -214,-10 -66,-6 -129,-17 -198,-32 -109,-24 -186,-67 -220,-115 -15,-22 -21,-46 -16,-68 6,-24 24,-49 56,-72 92,-65 288,-116 620,-116 43,0 98,3 157,9 100,11 210,31 296,65 80,31 137,74 137,129 0,3 0,7 -1,9 -6,63 -74,108 -165,139 -138,47 -328,62 -452,62z"/>
    <path class="fil0" d="M4320 5612c0,66 -62,68 -159,98 -51,15 -159,55 -202,55 -35,0 -75,-71 -21,-105l173 -56c70,-24 209,-86 209,8z"/>
    <path class="fil0" d="M3556 5758c0,69 -112,92 -112,0 0,-79 112,-65 112,0z"/>
    <path class="fil0" d="M3229 5667c0,75 -111,97 -111,-7 0,-55 111,-63 111,7z"/>
    <path class="fil0" d="M2972 5563c-90,0 -95,-111 0,-111 58,0 58,111 0,111z"/>
    <path class="fil0" d="M3873 7094c5,-57 -28,-90 -21,-150l365 -164c2,-1 5,-2 6,-2 2,-1 5,-2 7,-2l74 309c-66,23 -239,9 -319,12 -39,1 -69,4 -112,-3zm1221 -524l41 171c11,47 36,126 31,169 -124,19 -268,59 -396,88 -69,15 -346,85 -392,82l-74 -333 790 -177zm396 -149c23,-46 22,-47 59,-58l852 -191c24,-3 -2,-4 35,1 -6,53 30,70 13,131 -52,1 -614,136 -748,166 -31,7 -101,27 -128,28 -78,5 -76,-65 -83,-77zm1054 -68c48,-8 85,-18 133,-29 100,-22 91,-32 149,13 -4,15 -1,2 1,19 9,97 -85,97 -197,121 -12,3 -13,3 -25,6l-47 -64c-3,-13 -4,-18 -7,-32l-7 -34zm101 189c113,-26 229,-27 252,-139 21,-99 -58,-186 -172,-162 -46,9 -152,27 -184,43 -49,-45 -25,-177 -73,-196 -16,-6 -938,203 -965,217 -85,45 -98,129 -60,194 52,88 147,69 209,55l823 -186 4 19c1,2 3,10 3,12 4,14 5,19 8,32 10,47 36,139 33,174l-1278 286c-21,-33 -35,-126 -45,-171 -7,-31 -11,-52 -18,-83l-17 -76c1,-3 0,-4 -1,-6 38,-5 68,-14 107,-23 13,-3 12,-3 26,-5 24,-5 37,-4 50,-20 27,-31 8,-14 10,-30 -16,-44 -43,-28 -89,-17l-711 159c-154,35 -287,58 -399,110 -475,221 -378,147 -375,270 -50,38 -60,-7 -95,60 37,35 -10,2 21,23 27,17 51,-1 89,-7 14,24 8,17 15,44 18,68 41,49 201,48 295,-1 252,14 534,-50 231,-52 454,-101 685,-153l1204 -270c208,-46 162,-18 157,-143l51 -9z"/>
    <path class="fil0" d="M6422 3956l0 0 -36 614 -1 27 26 1c93,3 176,6 247,-10 75,-17 134,-53 174,-129 41,-81 36,-267 32,-407 -1,-34 -2,-65 -2,-95 0,-58 2,-110 4,-160 3,-91 6,-176 -2,-249 -20,-190 -106,-305 -414,-272l-22 2 -1 22c-9,122 -7,255 -6,387 2,91 3,182 1,269zm-777 -1365c-599,-2 -1400,3 -1466,6l-25 0 -1 25c-4,109 -7,251 -8,411 -1,138 0,289 2,443l-44 -19 -12 -5 -11 6 -28 16c0,-52 0,-102 1,-149 0,-70 1,-134 1,-172 0,-95 -2,-184 -3,-260 -4,-198 -6,-302 27,-350 33,-49 117,-49 292,-47 40,0 84,1 116,1l0 0 1726 0c48,0 90,0 124,8 30,7 54,21 70,50 20,34 19,81 18,129 0,37 -1,74 7,111l4 20 20 1c17,1 36,2 55,3 241,11 472,22 655,296 132,197 126,442 120,713 -1,61 -3,124 -3,181l0 0 -1 395 0 0c-3,83 -22,162 -53,234 -33,77 -79,146 -133,202 -204,212 -392,211 -587,210 -65,0 -132,-1 -200,7l-18 2 -5 17c-45,154 -97,297 -166,416 -67,118 -152,211 -264,270 -120,64 -260,61 -411,58 -35,-1 -72,-2 -101,-2 -40,0 -94,2 -153,3 -142,3 -309,7 -408,-7 -60,-9 -114,-27 -164,-53 -44,-23 -84,-53 -122,-88l52 -81 2 -3c137,141 283,139 547,135 44,-1 91,-2 153,-2 53,0 87,0 118,1 347,3 507,4 673,-288 334,-590 304,-1914 287,-2675 -1,-46 -2,-90 -2,-132l-1 -20 -20 -5c-33,-8 -313,-11 -660,-12zm1109 2341c120,-33 221,-92 289,-174 153,-186 149,-362 144,-611 -1,-47 -2,-98 -2,-151 0,-51 1,-104 3,-159 7,-233 14,-482 -93,-650 -62,-99 -152,-177 -266,-224 -106,-44 -232,-61 -380,-44l-23 3 0 23 0 202 0 24 24 2c25,1 51,2 77,2 140,3 284,7 384,179 64,111 58,312 53,487 -2,47 -3,92 -3,129 0,34 1,74 2,115 7,248 13,504 -259,596 -71,24 -137,18 -190,13 -82,-8 -140,-14 -163,68l-1 2 0 1 -26 156 -4 26 26 4c149,21 288,14 408,-19z"/>
    <path class="fil1" d="M2663 6693l-32 53 -6 -6c-28,-29 -74,-79 -86,-102 2,1 3,1 5,2l119 53zm-854 119l12 -35c2,-4 1,-8 -3,-11 -13,-10 -30,-19 -48,-28 -18,-9 -36,-18 -52,-29l0 0c-5,-4 -11,-3 -14,2l-21 29 0 0c-2,3 -2,8 0,11 16,20 49,36 78,49 13,6 25,11 33,17l0 0c1,0 2,0 2,0 5,2 11,0 13,-5zm-222 -305c-1,-8 -1,-16 -2,-25 -1,-4 -5,-8 -9,-8l-35 -3 0 0c-4,-1 -9,2 -10,7 -10,34 -3,75 16,116 20,45 54,90 92,128 4,3 11,3 14,-1l23 -23c2,-3 4,-6 3,-10 -4,-13 -12,-21 -23,-32 -14,-14 -32,-33 -52,-74 -14,-30 -15,-52 -17,-75zm1138 99c-2,19 -4,36 -6,47l-169 -76 2 -12 178 -39c0,19 -2,51 -5,80zm-144 -126c26,-24 61,-50 81,-65l22 59c-18,6 -60,17 -94,24 -14,3 -26,5 -34,6 5,-7 14,-15 25,-24zm-868 -258l519 623c-20,8 -44,14 -67,19 -40,8 -81,11 -110,13 -4,0 -6,0 -9,0 -10,1 -15,2 -27,-12l0 0 -445 -537c35,-47 76,-70 122,-97 5,-3 11,-6 17,-9zm634 305l-296 -356c14,1 32,4 51,8 39,8 83,21 109,31 30,11 61,26 92,45 28,18 56,38 82,62 28,27 52,57 70,88 18,32 30,65 35,98 4,25 4,64 -3,101 -5,23 -13,45 -25,62l-84 -99 0 0c-3,-5 -10,-5 -14,-2l-27 23 0 0c-4,3 -5,10 -1,14l92 113c-30,43 -77,71 -110,90 -11,7 -21,13 -28,18l-520 -624c25,-11 54,-18 84,-23 44,-7 88,-9 120,-9l329 395 0 0c4,5 10,5 14,2l28 -24c4,-3 5,-9 2,-13zm-832 -84c5,-24 13,-47 25,-65l411 495c-43,-1 -100,-16 -156,-39 -66,-27 -132,-65 -175,-105 -29,-27 -53,-57 -72,-89 -18,-31 -30,-64 -36,-96 -4,-27 -4,-65 3,-101zm-110 105c15,-4 32,-9 45,-9 -6,8 -15,15 -28,25 -7,4 -14,10 -22,16l-5 4c-18,14 -35,28 -53,43l-23 -58c16,-5 34,-9 50,-13 5,-1 10,-2 17,-3 6,-2 13,-3 19,-5zm-18 -113c25,9 58,21 68,33l-1 6c-13,6 -49,16 -87,26 -38,9 -77,17 -95,19l9 -128 86 36 0 0c5,2 12,5 20,8zm20 -54c-27,-11 -54,-23 -68,-30 5,-11 13,-26 21,-39 4,-6 8,-12 12,-16 3,4 7,8 11,13 27,29 72,78 79,96 -7,-3 -30,-13 -55,-24zm-187 207c3,0 4,0 11,0l0 0c1,0 1,0 1,0l28 -7 48 130 0 0c0,1 1,2 2,3 3,4 9,5 13,2l144 -115c5,8 9,18 14,29 25,55 62,137 201,215 127,71 288,102 438,85 140,-16 269,-73 352,-175 6,-7 12,-16 19,-26 7,-12 15,-24 22,-31l118 137c1,1 2,2 3,3 4,3 10,1 13,-4l72 -120 36 18c1,0 2,1 3,1 6,0 11,-4 11,-9l26 -257c0,-1 0,-2 0,-3 -1,-5 -6,-9 -12,-8l-41 7 -48 -131 0 0c0,-1 -1,-2 -1,-3 -4,-4 -10,-5 -14,-1l-144 114c-3,-7 -7,-15 -10,-24 -5,-12 -10,-24 -16,-36 -20,-37 -48,-71 -78,-101 -34,-33 -73,-61 -112,-83 -63,-35 -133,-60 -203,-75 -73,-15 -147,-18 -218,-11 -272,27 -372,178 -405,229l-3 5 -119 -138 0 0c-1,-1 -2,-2 -3,-2 -4,-3 -10,-2 -13,3l-70 120c-16,-8 -30,-14 -46,-15 -1,0 -1,0 -1,0 -6,0 -10,5 -10,10 1,27 -4,75 -10,123 -6,54 -13,108 -9,131 0,5 4,9 8,9 2,0 3,0 3,1z"/>
   </g>
  </g>
 </g>
</svg>
