<?xml version="1.0" encoding="UTF-8"?>
<!DOCTYPE svg PUBLIC "-//W3C//DTD SVG 1.1//EN" "http://www.w3.org/Graphics/SVG/1.1/DTD/svg11.dtd">
<!-- Creator: CorelDRAW X7 -->
<svg xmlns="http://www.w3.org/2000/svg" xml:space="preserve" width="34.1mm" height="32mm" version="1.1" style="shape-rendering:geometricPrecision; text-rendering:geometricPrecision; image-rendering:optimizeQuality; fill-rule:evenodd; clip-rule:evenodd"
viewBox="0 0 3410 3200"
 xmlns:xlink="http://www.w3.org/1999/xlink">
 <defs>
  <style type="text/css">
   <![CDATA[
    .fil0 {fill:#FEFEFE}
   ]]>
  </style>
 </defs>
 <g id="Warstwa_x0020_1">
  <metadata id="CorelCorpID_0Corel-Layer"/>
  <g id="_2480775161904">
   <path class="fil0" d="M98 2240c0,-229 288,-362 462,-188 170,168 47,461 -188,461 -151,0 -274,-130 -274,-273zm-100 19l0 -34c5,-122 67,-239 167,-292 0,-46 0,-93 0,-140 -1,-46 11,-86 53,-86 69,0 54,103 54,173 87,-7 151,-36 278,35 11,6 38,25 48,25 22,0 94,8 94,-40 0,-94 -94,-44 -144,-63 -95,-36 50,-159 70,-190 -69,0 -153,15 -153,-54 0,-76 140,-53 247,-53 39,0 66,14 66,53 0,36 -68,100 -100,147 38,18 58,21 85,55 67,82 41,188 -78,245 29,54 86,179 53,247l380 0c38,0 100,12 100,-27l0 -900 -946 0 0 160c0,78 -107,78 -107,0l0 -480c0,-64 57,-127 120,-127l113 0 0 -46c0,-30 27,-60 54,-60 59,0 53,77 53,106l480 0 0 -53c0,-50 58,-72 88,-35 17,21 12,53 12,88 74,0 148,-11 195,32 15,13 38,50 38,75l0 1267c0,33 -29,68 -55,84 -8,5 -19,10 -27,13 -47,19 -454,9 -524,9 -22,41 -27,51 -55,86 -132,167 -389,186 -554,23 -68,-68 -101,-156 -105,-243zm274 -1219c0,-38 76,-27 126,-27 0,39 -8,107 54,107 60,0 53,-60 53,-107l480 0c0,35 -9,107 47,107 91,0 24,-107 73,-107 143,0 113,-31 113,240l-946 0 0 -213z"/>
   <path class="fil0" d="M1525 2933c0,-128 180,-124 180,0 0,110 -180,110 -180,0zm0 -893c0,-114 180,-121 180,7 0,104 -180,125 -180,-7zm100 -793c-143,0 -124,-180 -7,-180 109,0 114,180 7,180zm0 -887c-146,0 -118,-174 -13,-178 119,-4 120,178 13,178zm-207 -87c0,91 73,170 147,187l0 513c-54,5 -110,61 -131,109 -30,71 -12,146 30,199 125,158 101,-162 101,559 0,37 -86,15 -131,129 -29,76 -13,135 28,194 18,25 66,61 103,64l0 513c-76,18 -147,95 -147,187 0,94 87,193 180,193 267,0 268,-333 67,-380l0 -513c73,-6 152,-108 145,-192 -14,-163 -145,-162 -145,-195l0 -480c0,-34 131,-31 145,-195 7,-84 -72,-186 -145,-192l0 -513c129,-30 201,-206 89,-322 -121,-125 -336,-37 -336,135z"/>
   <path class="fil0" d="M2098 2173c0,-73 -8,-230 7,-293 368,0 781,6 1147,0 82,-2 60,-28 60,307 0,32 -68,20 -134,20l-1073 0c-3,-15 -7,-16 -7,-34zm-100 -286l0 320c0,55 56,106 134,106l1160 0c62,0 120,-50 120,-113l0 -313c0,-61 -53,-114 -114,-114l-1186 0c-59,0 -114,55 -114,114z"/>
   <path class="fil0" d="M2098 413c0,-74 -8,-243 7,-306 368,0 781,5 1147,-1 82,-1 60,-27 60,307 0,16 -11,27 -27,27l-1160 0c-16,0 -27,-11 -27,-27zm-100 -293l0 307c0,53 49,113 100,113l1214 0c45,0 100,-55 100,-100l0 -333c0,-71 -75,-107 -154,-107l-1106 0c-44,0 -81,9 -107,27 -23,15 -47,54 -47,93z"/>
   <path class="fil0" d="M1998 993l0 320c0,59 55,114 114,114l1186 0c61,0 114,-53 114,-114l0 -313c0,-63 -58,-113 -120,-113l-294 0c-29,0 -60,27 -60,53 0,114 374,8 374,73l0 287c0,27 -25,21 -53,20 -371,-5 -783,0 -1154,0 -12,-53 -12,-274 0,-327l659 -1c69,-14 57,-105 -12,-105l-620 0c-38,0 -71,10 -92,28 -17,14 -42,51 -42,78z"/>
   <path class="fil0" d="M1998 2773l0 307c0,86 73,120 154,120l1106 0c78,0 154,-35 154,-107l0 -333c0,-45 -55,-100 -100,-100l-767 0c-37,0 -53,33 -53,40 0,82 88,60 166,60l567 0c112,-1 87,-38 87,313 0,27 -25,21 -53,21 -371,-6 -783,-1 -1154,-1 -15,-63 -7,-232 -7,-306 0,-55 167,-11 231,-29 51,-15 49,-98 -17,-98l-214 0c-51,0 -100,60 -100,113z"/>
   <path class="fil0" d="M2278 2927c0,39 27,53 67,53l733 0c72,0 74,-107 -6,-107l-734 0c-32,0 -60,22 -60,54z"/>
   <path class="fil0" d="M2278 267c0,36 24,60 60,60l734 0c80,0 78,-107 6,-107l-733 0c-35,0 -67,13 -67,47z"/>
   <path class="fil0" d="M2278 2040c0,32 21,53 54,53l746 0c75,0 63,-100 14,-100l-774 0c-19,0 -40,28 -40,47z"/>
   <path class="fil0" d="M2278 1153c0,25 19,54 40,54l774 0c49,0 61,-100 -14,-100l-746 0c-29,0 -54,20 -54,46z"/>
   <path class="fil0" d="M845 1593c0,52 41,54 73,54l0 346c0,67 107,81 107,-20l0 -360c0,-84 -60,-73 -113,-73 -40,0 -67,14 -67,53z"/>
   <path class="fil0" d="M318 2067c0,257 -30,226 187,226 42,0 89,-106 -40,-106l-40 0c0,-109 18,-174 -67,-174 -21,0 -40,29 -40,54z"/>
  </g>
 </g>
</svg>
