<?xml version="1.0" encoding="UTF-8"?>
<!DOCTYPE svg PUBLIC "-//W3C//DTD SVG 1.1//EN" "http://www.w3.org/Graphics/SVG/1.1/DTD/svg11.dtd">
<!-- Creator: CorelDRAW X7 -->
<svg xmlns="http://www.w3.org/2000/svg" xml:space="preserve" width="11.7mm" height="11.3mm" version="1.1" style="shape-rendering:geometricPrecision; text-rendering:geometricPrecision; image-rendering:optimizeQuality; fill-rule:evenodd; clip-rule:evenodd"
viewBox="0 0 1170 1130"
 xmlns:xlink="http://www.w3.org/1999/xlink">
 <defs>
  <style type="text/css">
   <![CDATA[
    .fil0 {fill:#2B4B71}
   ]]>
  </style>
 </defs>
 <g id="Warstwa_x0020_1">
  <metadata id="CorelCorpID_0Corel-Layer"/>
  <g id="_2480954060048">
   <path class="fil0" d="M49 966l0 -286c0,-47 34,-88 76,-105 6,-3 15,-5 20,-8 0,110 0,219 0,328 0,31 3,46 19,62 15,14 29,24 57,25 52,3 111,0 165,0 -15,61 -63,97 -129,97 -68,0 -126,8 -171,-35l-3 -2c-18,-20 -34,-47 -34,-76zm341 -82l48 0 0 48 -48 0 0 -48zm704 48l-605 0c0,-96 -3,-19 65,-89 15,-16 31,-46 31,-76l0 -569 509 0c15,0 27,8 27,23l0 688c0,14 -12,23 -27,23zm-899 -23l0 -688c0,-25 30,-23 46,-23l0 553c0,58 29,105 80,124 23,9 19,-7 19,57l-117 0c-15,0 -28,-8 -28,-23zm97 -154l0 -621c0,-99 94,-82 165,-82 43,0 78,29 78,69l0 648c0,20 -12,34 -23,44 -11,12 -27,20 -48,20l-101 0c-41,0 -71,-34 -71,-78zm-51 -616l0 9c-38,0 -70,5 -88,40 -13,27 -8,73 -8,104 0,75 0,150 0,225 -47,11 -66,19 -99,52 -21,21 -48,65 -48,106l0 294c0,47 27,84 56,114 53,53 124,46 199,46 25,0 53,-4 71,-11 18,-7 39,-17 53,-30 15,-13 27,-27 38,-45 9,-15 21,-38 21,-61l656 0c44,0 80,-31 80,-71l0 -692c0,-24 -12,-38 -25,-51 -13,-12 -31,-20 -55,-20l-507 0c0,-46 -2,-81 -41,-115 -44,-39 -101,-32 -165,-32 -86,0 -138,52 -138,138z"/>
   <path class="fil0" d="M684 297l341 0 0 96 -341 0 0 -96zm-51 -25l0 146c0,14 12,26 25,26l392 0c18,0 25,-17 25,-35 0,-29 5,-137 -5,-152 -4,-5 -12,-10 -20,-10l-392 0c-13,0 -25,11 -25,25z"/>
   <path class="fil0" d="M658 661c0,82 -8,76 74,76 32,0 25,-42 25,-71 0,-36 -34,-28 -76,-28 -13,0 -23,11 -23,23z"/>
   <path class="fil0" d="M805 661c0,82 -8,76 73,76 33,0 26,-42 26,-71 0,-36 -34,-28 -76,-28 -13,0 -23,11 -23,23z"/>
   <path class="fil0" d="M952 661c0,82 -9,76 73,76 32,0 25,-42 25,-71 0,-36 -34,-28 -75,-28 -13,0 -23,11 -23,23z"/>
   <path class="fil0" d="M658 808c0,81 -8,76 74,76 32,0 25,-43 25,-71 0,-36 -34,-28 -76,-28 -13,0 -23,10 -23,23z"/>
   <path class="fil0" d="M805 808c0,81 -8,76 73,76 33,0 26,-43 26,-71 0,-36 -34,-28 -76,-28 -13,0 -23,10 -23,23z"/>
   <path class="fil0" d="M952 808c0,81 -9,76 73,76 32,0 25,-43 25,-71 0,-36 -34,-28 -75,-28 -13,0 -23,10 -23,23z"/>
   <path class="fil0" d="M658 515c0,81 -8,75 74,75 32,0 25,-42 25,-71 0,-35 -34,-27 -76,-27 -13,0 -23,10 -23,23z"/>
   <path class="fil0" d="M805 515c0,81 -8,75 73,75 33,0 26,-42 26,-71 0,-35 -34,-27 -76,-27 -13,0 -23,10 -23,23z"/>
   <path class="fil0" d="M952 515c0,81 -9,75 73,75 32,0 25,-42 25,-71 0,-35 -34,-27 -75,-27 -13,0 -23,10 -23,23z"/>
  </g>
 </g>
</svg>
