<?xml version="1.0" encoding="UTF-8"?>
<!DOCTYPE svg PUBLIC "-//W3C//DTD SVG 1.1//EN" "http://www.w3.org/Graphics/SVG/1.1/DTD/svg11.dtd">
<!-- Creator: CorelDRAW X7 -->
<svg xmlns="http://www.w3.org/2000/svg" xml:space="preserve" width="11.7mm" height="6.7mm" version="1.1" style="shape-rendering:geometricPrecision; text-rendering:geometricPrecision; image-rendering:optimizeQuality; fill-rule:evenodd; clip-rule:evenodd"
viewBox="0 0 1170 670"
 xmlns:xlink="http://www.w3.org/1999/xlink">
 <defs>
  <style type="text/css">
   <![CDATA[
    .fil0 {fill:#2B4B71}
   ]]>
  </style>
 </defs>
 <g id="Warstwa_x0020_1">
  <metadata id="CorelCorpID_0Corel-Layer"/>
  <g id="_2480745923760">
   <path class="fil0" d="M542 370c41,28 73,79 116,79 21,0 27,0 47,-12 14,-9 69,-61 78,-67 12,9 24,20 36,30l144 124c4,4 4,3 9,7l63 55c9,7 31,25 36,33l-818 0 170 -147c4,-3 6,-5 9,-8l110 -94zm284 -35l98 -84c4,-4 5,-6 9,-9 4,-4 4,-3 8,-7 4,-3 6,-5 9,-8l37 -32c7,-5 11,-10 18,-15l109 -93c1,11 3,10 3,23l0 450c0,13 -2,12 -3,23 -7,-4 -11,-10 -17,-15l-190 -163c-5,-4 -5,-3 -10,-7 -3,-3 -4,-5 -8,-8l-17 -15c-10,-9 -41,-32 -46,-40zm-573 -284l818 0c-8,12 -129,113 -149,130l-101 86c-35,33 -88,74 -125,108 -42,37 -45,15 -104,-32 -5,-4 -7,-7 -12,-11 -37,-30 -94,-83 -127,-108 -5,-5 -6,-6 -12,-11l-188 -162zm-96 43c0,28 -7,74 25,74 38,0 28,-55 28,-79 11,3 95,77 108,90l118 100c4,3 5,5 9,8l36 31c8,7 11,7 18,17l-43 39c-4,4 -5,3 -10,7 -3,3 -4,5 -7,8 -5,4 -6,4 -10,8l-198 169c-7,6 -11,12 -21,15 0,-23 5,-58 -8,-71 -17,-16 -45,-5 -45,17 0,46 -5,78 28,114 11,12 42,31 63,31l826 0c32,0 52,-18 69,-35 16,-17 27,-44 27,-77l0 -450c0,-62 -45,-112 -96,-112l-826 0c-40,0 -91,47 -91,96z"/>
   <path class="fil0" d="M0 401c0,11 12,25 25,25l233 0c41,0 36,-53 3,-53l-233 0c-17,0 -28,16 -28,28z"/>
   <path class="fil0" d="M79 267c0,19 10,30 30,30l152 0c32,0 39,-53 -3,-53l-154 0c-12,0 -25,12 -25,23z"/>
  </g>
 </g>
</svg>
