<?xml version="1.0" encoding="UTF-8"?>
<!DOCTYPE svg PUBLIC "-//W3C//DTD SVG 1.1//EN" "http://www.w3.org/Graphics/SVG/1.1/DTD/svg11.dtd">
<!-- Creator: CorelDRAW X7 -->
<svg xmlns="http://www.w3.org/2000/svg" xml:space="preserve" width="7.8mm" height="11.3mm" version="1.1" style="shape-rendering:geometricPrecision; text-rendering:geometricPrecision; image-rendering:optimizeQuality; fill-rule:evenodd; clip-rule:evenodd"
viewBox="0 0 780 1130"
 xmlns:xlink="http://www.w3.org/1999/xlink">
 <defs>
  <style type="text/css">
   <![CDATA[
    .fil0 {fill:#2B4B71}
   ]]>
  </style>
 </defs>
 <g id="Warstwa_x0020_1">
  <metadata id="CorelCorpID_0Corel-Layer"/>
  <g id="_2480877122992">
   <path class="fil0" d="M62 389c0,-131 86,-254 193,-298 20,-8 37,-15 60,-20 54,-13 94,-13 147,-1 60,13 117,45 160,88 50,50 96,132 96,231 0,116 -88,240 -139,312 -30,41 -59,70 -84,102 -9,11 -17,17 -25,28l-80 80 -153 -164 -68 -92c-8,-11 -14,-20 -21,-31l-39 -70c-5,-12 -11,-21 -17,-35 -16,-41 -30,-83 -30,-130zm-60 -24c0,66 -1,79 21,144 10,30 23,58 36,85 7,13 15,25 22,38 20,35 60,95 85,125l126 147c10,10 20,20 30,30l46 44c28,24 48,-6 58,-15 27,-21 65,-65 91,-90 6,-7 7,-9 13,-16l43 -49c10,-11 18,-22 27,-33 9,-11 18,-22 27,-34 27,-36 72,-104 94,-147 24,-49 57,-127 57,-184 0,-82 -3,-112 -36,-189 -8,-17 -24,-42 -35,-57 -7,-9 -12,-16 -19,-25 -23,-29 -67,-65 -100,-85l-62 -29c-92,-33 -176,-33 -268,-2 -91,31 -179,111 -219,196 -17,38 -37,94 -37,146z"/>
   <path class="fil0" d="M2 948l0 16c0,63 85,109 136,126 150,49 357,57 502,1 49,-19 138,-62 138,-125 0,-48 -11,-66 -46,-97 -22,-19 -58,-37 -85,-47 -29,-10 -47,2 -47,31 0,16 13,22 25,27 15,7 25,10 39,17 121,68 9,121 -76,146 -52,16 -141,26 -198,26 -90,0 -242,-21 -308,-78 -60,-53 30,-93 71,-110 16,-7 27,-11 27,-30 0,-14 -5,-22 -14,-28 -13,-8 -19,-6 -31,-1 -33,11 -69,30 -95,54l-4 4c-16,17 -34,39 -34,68z"/>
   <path class="fil0" d="M301 394c0,-96 102,-117 151,-70 59,55 14,154 -52,154 -31,0 -49,0 -75,-27 -13,-13 -24,-32 -24,-57zm-63 -5c0,46 20,82 44,106 79,79 199,53 245,-42 38,-78 0,-166 -73,-201 -39,-19 -86,-20 -126,-1 -51,23 -90,76 -90,138z"/>
  </g>
 </g>
</svg>
