<?xml version="1.0" encoding="UTF-8"?>
<!DOCTYPE svg PUBLIC "-//W3C//DTD SVG 1.1//EN" "http://www.w3.org/Graphics/SVG/1.1/DTD/svg11.dtd">
<!-- Creator: CorelDRAW X7 -->
<svg xmlns="http://www.w3.org/2000/svg" xml:space="preserve" width="10.2mm" height="10.2mm" version="1.1" style="shape-rendering:geometricPrecision; text-rendering:geometricPrecision; image-rendering:optimizeQuality; fill-rule:evenodd; clip-rule:evenodd"
viewBox="0 0 1020 1020"
 xmlns:xlink="http://www.w3.org/1999/xlink">
 <defs>
  <style type="text/css">
   <![CDATA[
    .fil0 {fill:#2B4B71}
   ]]>
  </style>
 </defs>
 <g id="Warstwa_x0020_1">
  <metadata id="CorelCorpID_0Corel-Layer"/>
  <g id="_2480877143408">
   <path class="fil0" d="M416 695c33,22 46,36 98,36 18,0 38,-5 50,-11 30,-15 18,-11 40,-25l350 291 -888 0 65 -55c62,-48 135,-115 197,-163l43 -37c8,-6 15,-11 22,-18 7,-6 15,-14 23,-18zm83 -695l21 0c26,3 51,12 73,29l79 54c16,5 154,-6 177,6 40,22 6,119 23,137 2,3 11,8 15,10l77 55c10,7 19,14 30,22 14,9 26,15 26,26l0 635c0,22 -24,46 -46,46l-928 0c-22,0 -46,-24 -46,-46l0 -635c0,-10 6,-12 12,-17l137 -97c15,-20 -16,-112 21,-135 22,-14 154,-2 177,-6 12,-2 82,-62 109,-73 14,-6 29,-9 43,-11zm487 379l0 585c-8,-2 -59,-47 -66,-53l-265 -220c-5,-4 -18,-16 -24,-18 7,-10 74,-62 88,-74 7,-7 14,-11 21,-18 5,-4 7,-5 11,-9 4,-3 8,-6 12,-10 46,-40 113,-91 155,-128 7,-6 61,-54 68,-55zm-952 585l0 -585c8,2 98,79 111,90l133 110c13,12 104,84 111,94 -9,3 -116,95 -133,109l-133 110c-4,4 -82,70 -89,72zm154 -844l644 0 0 336c0,5 -9,11 -17,17l-211 175c-27,22 -46,46 -93,48 -43,2 -67,-25 -92,-45l-172 -143c-8,-6 -52,-46 -59,-48l0 -340zm680 308l0 -161 53 37c18,13 35,25 53,37 -4,4 -21,17 -26,22l-52 43c-9,8 -19,16 -28,22zm-716 -161l0 161c-13,-8 -97,-83 -106,-85 3,-5 19,-15 25,-19 10,-7 18,-13 27,-19 9,-7 17,-12 26,-19l28 -19zm458 -183l-200 0c3,-4 16,-12 21,-16 26,-17 41,-32 79,-33 37,-1 56,18 78,33 5,3 19,12 22,16z"/>
   <path class="fil0" d="M480 454l-12 0c-45,0 -51,-65 -18,-111 29,-40 77,-54 101,-7 11,23 10,21 2,53 -7,25 -44,65 -73,65zm-177 -69c0,39 1,62 21,98 10,18 29,39 45,51 57,44 172,55 239,34 41,-12 64,-26 92,-54 5,-5 13,-11 14,-20 1,-10 -7,-20 -17,-20 -21,0 -29,46 -110,63 -78,17 -191,2 -231,-70 -19,-34 -24,-68 -14,-107 7,-22 18,-41 31,-59 7,-9 14,-15 22,-23 8,-8 14,-14 23,-21 56,-44 154,-52 208,2 48,48 54,129 8,178 -12,14 -24,17 -42,17 -27,0 -10,-31 -1,-74 4,-21 17,-75 17,-93 0,-13 -36,-29 -36,14l-4 0c-2,-8 -5,-8 -10,-12 -5,-3 -8,-6 -13,-9 -63,-35 -130,31 -146,89 -30,109 70,148 132,103 6,-4 10,-9 15,-12 7,29 74,56 126,-13 89,-121 -31,-324 -230,-244 -22,9 -49,27 -65,43 -25,25 -27,25 -48,57 -10,17 -26,56 -26,82z"/>
  </g>
 </g>
</svg>
