<?xml version="1.0" encoding="UTF-8"?>
<!DOCTYPE svg PUBLIC "-//W3C//DTD SVG 1.1//EN" "http://www.w3.org/Graphics/SVG/1.1/DTD/svg11.dtd">
<!-- Creator: CorelDRAW X7 -->
<svg xmlns="http://www.w3.org/2000/svg" xml:space="preserve" width="62.6mm" height="19.8mm" version="1.1" style="shape-rendering:geometricPrecision; text-rendering:geometricPrecision; image-rendering:optimizeQuality; fill-rule:evenodd; clip-rule:evenodd"
viewBox="0 0 6260 1980"
 xmlns:xlink="http://www.w3.org/1999/xlink">
 <defs>
  <style type="text/css">
   <![CDATA[
    .fil0 {fill:#FEFEFE;fill-rule:nonzero}
   ]]>
  </style>
 </defs>
 <g id="Warstwa_x0020_1">
  <metadata id="CorelCorpID_0Corel-Layer"/>
  <g id="_2312401523184">
   <path class="fil0" d="M5539 1228c22,4 44,6 64,7 21,2 41,2 61,2 20,0 40,0 61,-2 21,-1 42,-3 63,-7l0 -432c0,-63 8,-112 22,-148 15,-35 34,-61 56,-79 22,-17 45,-28 70,-32 25,-4 47,-6 67,-6l29 0c16,0 30,1 43,3 5,-21 8,-43 10,-67 1,-23 2,-45 2,-65 0,-16 0,-32 -2,-47 -1,-15 -2,-29 -5,-40 -7,-3 -18,-5 -33,-6 -15,-1 -29,-1 -41,-1 -56,0 -103,14 -140,43 -38,28 -69,61 -95,97 -1,-8 -3,-18 -4,-31 -2,-12 -4,-24 -7,-37 -2,-12 -5,-24 -8,-35 -2,-11 -6,-19 -9,-25 -17,-4 -33,-7 -50,-9 -17,-2 -35,-3 -52,-3 -19,0 -36,0 -52,2 -16,2 -33,5 -50,8l0 910zm-700 -553c6,-60 24,-106 55,-139 30,-33 75,-49 133,-49 52,0 92,17 121,52 29,34 44,80 46,136l-355 0zm582 174c3,-13 5,-30 6,-52 2,-22 3,-44 3,-66 0,-61 -9,-118 -26,-171 -18,-54 -44,-100 -79,-138 -34,-39 -76,-69 -125,-92 -49,-22 -106,-33 -169,-33 -73,0 -136,13 -191,38 -54,25 -100,59 -137,103 -37,43 -64,94 -83,152 -19,59 -28,122 -28,189 0,67 9,130 27,188 18,57 46,107 84,148 38,42 88,74 148,98 60,23 133,35 217,35 115,0 218,-18 309,-53 -1,-37 -6,-73 -16,-105 -9,-33 -20,-61 -33,-85 -37,14 -77,25 -119,33 -41,7 -82,11 -122,11 -72,0 -131,-16 -176,-47 -44,-32 -69,-83 -73,-153l583 0zm-1390 376c20,5 41,7 63,9 22,1 42,1 60,1 16,0 37,0 62,-1 24,-2 48,-4 70,-7l344 -907c-29,-6 -55,-10 -78,-11 -23,-1 -43,-1 -61,-1 -22,0 -44,0 -66,2 -23,2 -44,5 -64,8l-195 677 -298 -881c-20,-5 -42,-8 -65,-9 -23,-1 -47,-1 -70,-1 -18,0 -39,0 -63,1 -24,1 -50,5 -78,11l439 1109z"/>
   <path class="fil0" d="M3155 985c-29,-49 -43,-119 -43,-210 0,-91 14,-161 43,-210 29,-49 75,-73 140,-73 65,0 112,24 141,73 29,49 43,119 43,210 0,91 -14,161 -43,210 -29,49 -76,73 -141,73 -65,0 -111,-24 -140,-73zm333 227c55,-24 101,-58 137,-100 36,-43 63,-93 81,-151 17,-57 26,-119 26,-186 0,-67 -9,-129 -26,-188 -18,-59 -45,-109 -81,-152 -36,-43 -82,-76 -137,-101 -55,-25 -120,-37 -193,-37 -74,0 -138,12 -193,37 -54,25 -99,58 -135,101 -36,43 -63,93 -81,152 -18,59 -27,121 -27,188 0,67 9,129 27,186 18,58 45,108 81,151 36,42 81,76 135,100 55,24 119,36 193,36 73,0 138,-12 193,-36zm-1139 -293c0,113 28,194 84,244 57,49 138,74 245,74 57,0 113,-6 167,-19 1,-8 2,-17 2,-26 1,-8 1,-19 1,-32 0,-19 -2,-40 -5,-64 -4,-24 -9,-47 -18,-70 -13,3 -27,5 -44,8 -17,3 -35,5 -52,5 -23,0 -42,-3 -58,-7 -17,-5 -30,-14 -42,-27 -11,-13 -19,-30 -25,-52 -6,-23 -9,-52 -9,-88l0 -357 213 0c3,-19 6,-36 7,-51 1,-15 2,-31 2,-48 0,-15 -1,-29 -2,-43 -1,-15 -4,-30 -7,-48l-213 0 0 -265 -40 0 -331 411 11 44 114 0 0 411zm-621 0c0,113 28,194 84,244 57,49 138,74 245,74 57,0 113,-6 167,-19 1,-8 2,-17 2,-26 1,-8 1,-19 1,-32 0,-19 -1,-40 -5,-64 -3,-24 -9,-47 -18,-70 -13,3 -27,5 -44,8 -17,3 -35,5 -52,5 -22,0 -42,-3 -58,-7 -17,-5 -30,-14 -42,-27 -11,-13 -19,-30 -25,-52 -6,-23 -9,-52 -9,-88l0 -357 213 0c3,-19 6,-36 7,-51 1,-15 2,-31 2,-48 0,-15 -1,-29 -2,-43 -1,-15 -4,-30 -7,-48l-213 0 0 -265 -40 0 -329 420 9 35 114 0 0 411zm-711 66c-28,-49 -43,-119 -43,-210 0,-91 15,-161 43,-210 29,-49 76,-73 140,-73 66,0 113,24 141,73 29,49 44,119 44,210 0,91 -15,161 -44,210 -28,49 -75,73 -141,73 -64,0 -111,-24 -140,-73zm333 227c55,-24 101,-58 137,-100 37,-43 64,-93 81,-151 18,-57 27,-119 27,-186 0,-67 -9,-129 -27,-188 -17,-59 -44,-109 -81,-152 -36,-43 -82,-76 -137,-101 -55,-25 -119,-37 -193,-37 -74,0 -138,12 -193,37 -54,25 -99,58 -135,101 -36,43 -62,93 -81,152 -18,59 -27,121 -27,188 0,67 9,129 27,186 19,58 45,108 81,151 36,42 81,76 135,100 55,24 119,36 193,36 74,0 138,-12 193,-36zm-740 -182c-15,5 -29,8 -44,10 -14,3 -28,4 -43,5 -14,0 -30,1 -48,1 -68,0 -122,-22 -162,-65 -39,-44 -59,-113 -59,-208 0,-88 18,-155 55,-203 37,-47 92,-71 164,-71 34,0 64,2 91,6 26,4 57,12 92,24 15,-31 26,-62 33,-96 8,-33 11,-63 11,-90 -25,-10 -47,-17 -67,-23 -20,-6 -40,-11 -59,-14 -20,-4 -41,-6 -63,-7 -22,-1 -45,-2 -71,-2 -73,0 -137,12 -192,37 -55,25 -101,59 -138,102 -36,43 -64,94 -82,151 -18,57 -27,119 -27,186 0,68 9,131 28,189 18,58 46,108 83,150 37,43 84,76 140,100 56,24 122,36 198,36 45,0 88,-3 129,-8 41,-5 85,-17 132,-36 0,-42 -5,-79 -14,-110 -10,-31 -22,-58 -36,-82 -20,7 -37,13 -51,18z"/>
   <path class="fil0" d="M6198 200c13,-6 24,-13 33,-22 9,-9 16,-20 21,-33 5,-13 7,-27 7,-42 0,-14 -2,-28 -7,-41 -5,-13 -12,-24 -21,-33 -9,-9 -20,-17 -33,-22 -13,-5 -27,-8 -43,-8 -15,0 -29,3 -42,8 -13,6 -24,13 -33,22 -9,9 -16,20 -21,33 -5,13 -7,27 -7,41 0,15 2,29 7,42 5,13 12,24 21,33 9,9 20,16 33,22 13,5 27,8 42,8 16,0 30,-3 43,-8zm-77 -17c-11,-5 -20,-11 -27,-18 -7,-8 -12,-17 -16,-28 -4,-10 -6,-21 -6,-34 0,-11 2,-23 6,-33 4,-11 9,-20 16,-27 7,-8 16,-14 27,-19 10,-4 22,-6 34,-6 14,0 25,2 35,6 11,5 20,11 27,19 7,7 12,16 16,27 4,10 6,22 6,33 0,13 -2,24 -6,34 -4,11 -9,20 -16,28 -7,7 -16,13 -27,18 -10,4 -21,6 -35,6 -12,0 -24,-2 -34,-6zm0 -27c3,0 7,0 11,0 4,0 8,0 10,0l0 -91c2,0 4,0 6,-1 2,0 3,0 5,0 6,0 11,2 15,5 4,3 6,7 6,12 0,6 -2,10 -6,14 -4,3 -8,6 -13,8l-5 2 32 50c3,1 7,1 10,1 3,0 5,0 7,0 2,0 4,0 7,-1l-29 -44c4,-3 9,-6 13,-12 4,-5 6,-11 6,-20 0,-6 -1,-11 -3,-15 -3,-4 -6,-8 -10,-10 -4,-3 -9,-5 -14,-6 -6,-2 -12,-2 -19,-2 -5,0 -10,0 -15,0 -4,1 -9,1 -14,2l0 108z"/>
   <path class="fil0" d="M4526 1800c0,26 7,44 19,55 13,11 31,17 53,17 8,0 16,-1 22,-2 7,0 14,-2 20,-3 0,-5 0,-11 0,-18 -1,-6 -2,-13 -4,-19 -4,1 -9,2 -13,3 -5,0 -10,1 -15,1 -7,0 -13,-1 -17,-2 -5,-2 -9,-5 -11,-9 -3,-4 -5,-10 -6,-18 -1,-8 -2,-18 -2,-31l0 -111 62 0c0,-3 1,-6 1,-9 0,-3 1,-6 1,-10 0,-6 -1,-12 -2,-18l-62 0 0 -60 -3 0 -81 91 2 6 36 0 0 137zm-235 -76c2,-21 8,-37 19,-49 10,-11 24,-17 44,-17 9,0 18,2 25,5 7,4 13,9 17,15 5,6 8,13 11,21 2,7 3,16 3,25l-119 0zm164 35c0,-4 0,-8 1,-13 0,-5 0,-9 0,-14 0,-16 -2,-31 -6,-44 -5,-14 -11,-26 -20,-36 -8,-10 -19,-17 -31,-23 -13,-6 -27,-8 -44,-8 -19,0 -36,3 -51,10 -14,7 -26,16 -35,27 -10,12 -17,25 -21,41 -5,15 -7,32 -7,50 0,18 2,35 7,50 5,15 12,28 22,39 11,11 24,20 39,26 16,6 35,9 57,9 15,0 29,-1 41,-3 12,-2 24,-5 34,-10 0,-6 -1,-13 -3,-20 -1,-7 -3,-12 -6,-17 -20,8 -41,12 -63,12 -26,0 -45,-6 -58,-19 -13,-12 -20,-31 -21,-57l165 0zm-471 109c3,0 7,1 11,1 5,0 9,1 12,1 4,0 7,-1 12,-1 4,0 8,-1 11,-1l0 -123c0,-14 2,-27 6,-38 3,-10 8,-19 14,-25 6,-7 13,-12 21,-15 7,-3 16,-4 25,-4 15,0 26,5 33,15 6,11 10,27 10,49l0 141c3,0 7,1 11,1 5,0 9,1 12,1 3,0 7,-1 12,-1 4,0 8,-1 12,-1l0 -153c0,-31 -7,-55 -20,-71 -13,-15 -34,-23 -61,-23 -10,0 -19,1 -27,4 -8,2 -16,6 -22,10 -6,4 -12,9 -17,14 -4,6 -9,11 -12,16 0,-5 0,-12 -1,-20 -1,-8 -2,-14 -3,-19 -3,0 -7,-1 -10,-1 -3,0 -6,-1 -9,-1 -4,0 -7,1 -10,1 -4,0 -7,1 -10,1l0 242zm-116 -150c-5,-1 -10,-2 -16,-2 -7,-1 -15,-1 -25,-1 -14,0 -27,2 -39,5 -12,3 -23,9 -32,15 -10,7 -17,15 -23,26 -5,10 -8,22 -8,35 0,14 2,26 7,36 5,9 12,17 20,24 9,6 19,10 32,13 12,3 26,4 41,4 17,0 33,-1 48,-4 16,-2 29,-5 40,-7l0 -151c0,-32 -8,-55 -24,-69 -16,-14 -40,-21 -72,-21 -12,0 -24,1 -37,2 -13,2 -24,5 -35,8 0,15 3,27 9,38 9,-3 18,-5 28,-7 9,-2 20,-3 31,-3 18,0 31,4 41,11 9,7 14,20 14,39l0 9zm0 113c-6,2 -13,3 -21,4 -7,0 -15,1 -22,1 -6,0 -12,-1 -18,-1 -6,-1 -12,-3 -17,-5 -5,-3 -10,-7 -13,-13 -4,-5 -5,-12 -5,-22 0,-15 5,-25 15,-33 10,-7 25,-11 45,-11 5,0 11,1 18,1 7,1 13,2 18,2l0 77zm-269 -26c0,13 2,23 5,32 4,8 8,15 14,20 6,5 13,9 21,11 8,2 16,3 25,3 6,0 12,0 18,-1 6,0 11,-1 16,-3 0,-13 -2,-25 -4,-35 -3,0 -6,1 -10,1 -3,0 -6,0 -9,0 -4,0 -8,0 -12,-1 -3,-1 -6,-2 -9,-5 -3,-3 -5,-6 -6,-12 -2,-5 -3,-11 -3,-20l0 -272c-3,-1 -7,-1 -11,-2 -5,0 -8,0 -12,0 -3,0 -7,0 -11,0 -5,1 -9,1 -12,2l0 282zm-231 -75c0,-12 2,-22 6,-31 3,-8 8,-15 13,-21 6,-6 12,-10 20,-13 7,-2 14,-4 22,-4 21,0 36,7 46,22 9,15 13,35 13,60 0,16 -2,29 -5,41 -4,11 -10,21 -16,28 -7,8 -15,13 -25,17 -9,4 -19,5 -31,5 -10,0 -18,0 -24,-1 -7,-1 -13,-3 -19,-5l0 -98zm-46 249c3,0 7,1 11,1 5,1 8,1 12,1 3,0 7,0 11,-1 5,0 9,-1 12,-1l0 -111c6,2 12,3 19,4 7,1 14,1 21,1 42,0 73,-11 96,-35 22,-23 33,-55 33,-97 0,-21 -2,-39 -7,-54 -5,-15 -12,-28 -20,-37 -9,-10 -19,-18 -31,-22 -12,-5 -25,-7 -40,-7 -9,0 -18,1 -25,3 -8,2 -15,5 -21,9 -6,4 -11,8 -16,13 -4,4 -8,9 -11,14 0,-1 0,-3 -1,-6 0,-4 -1,-7 -1,-11 -1,-4 -1,-8 -2,-11 0,-3 0,-5 -1,-6 -3,0 -6,-1 -10,-1 -3,0 -6,-1 -9,-1 -4,0 -7,1 -11,1 -3,0 -6,1 -9,1l0 353zm-408 -165c-13,-12 -20,-28 -20,-50 0,-10 2,-19 5,-28 4,-9 8,-17 15,-24 6,-7 14,-12 23,-16 9,-4 19,-6 30,-6l96 0 0 56c0,11 -1,21 -4,32 -2,10 -7,19 -13,27 -7,8 -16,14 -28,19 -12,5 -27,7 -45,7 -26,0 -45,-6 -59,-17zm-9 -224c2,-5 5,-10 10,-14 4,-5 10,-8 17,-11 7,-2 16,-4 26,-4 8,0 15,1 23,2 7,1 15,3 23,5 4,-5 6,-10 8,-16 1,-5 2,-12 2,-19 -11,-4 -21,-6 -31,-7 -10,-2 -19,-2 -27,-2 -14,0 -27,1 -40,5 -12,3 -23,8 -32,15 -9,6 -16,15 -22,25 -5,10 -8,22 -8,36 0,19 5,34 14,45 10,11 21,20 34,26 -8,3 -16,8 -23,15 -8,6 -14,13 -20,22 -5,9 -9,18 -12,28 -3,10 -5,20 -5,31 0,18 4,33 10,46 7,13 17,24 29,32 11,8 25,14 40,18 16,4 32,5 48,5 21,0 40,-2 57,-7 17,-4 32,-11 44,-21 12,-10 22,-22 28,-36 7,-15 10,-31 10,-50l0 -70 61 0c1,-3 1,-7 2,-10 0,-3 0,-6 0,-10 0,-7 0,-13 -2,-18l-61 0 0 -60 -4 0 -43 60 -103 0c-19,0 -34,-4 -43,-12 -9,-8 -13,-19 -13,-33 0,-5 1,-11 3,-16zm-390 134c2,-21 8,-37 18,-49 10,-11 25,-17 44,-17 10,0 18,2 25,5 7,4 13,9 18,15 4,6 8,13 10,21 2,7 4,16 4,25l-119 0zm163 35c1,-4 1,-8 1,-13 1,-5 1,-9 1,-14 0,-16 -2,-31 -7,-44 -4,-14 -11,-26 -19,-36 -9,-10 -19,-17 -32,-23 -12,-6 -27,-8 -43,-8 -20,0 -37,3 -51,10 -14,7 -26,16 -36,27 -9,12 -16,25 -21,41 -4,15 -6,32 -6,50 0,18 2,35 7,50 4,15 12,28 22,39 10,11 23,20 39,26 16,6 34,9 56,9 15,0 29,-1 42,-3 12,-2 23,-5 34,-10 -1,-6 -2,-13 -3,-20 -2,-7 -4,-12 -6,-17 -20,8 -42,12 -64,12 -25,0 -44,-6 -57,-19 -14,-12 -20,-31 -21,-57l164 0zm-340 46c0,13 2,23 5,32 4,8 8,15 14,20 6,5 13,9 21,11 8,2 16,3 25,3 6,0 12,0 18,-1 6,0 11,-1 16,-3 0,-13 -2,-25 -4,-35 -3,0 -6,1 -10,1 -3,0 -6,0 -9,0 -4,0 -8,0 -12,-1 -3,-1 -6,-2 -9,-5 -3,-3 -5,-6 -7,-12 -1,-5 -2,-11 -2,-20l0 -272c-3,-1 -7,-1 -11,-2 -5,0 -8,0 -12,0 -3,0 -7,0 -11,0 -5,1 -9,1 -12,2l0 282zm-231 -75c0,-12 2,-22 6,-31 3,-8 8,-15 13,-21 6,-6 12,-10 19,-13 8,-2 15,-4 23,-4 21,0 36,7 46,22 9,15 13,35 13,60 0,16 -2,29 -6,41 -3,11 -9,21 -15,28 -7,8 -15,13 -25,17 -9,4 -20,5 -31,5 -10,0 -18,0 -24,-1 -7,-1 -13,-3 -19,-5l0 -98zm-46 249c3,0 7,1 11,1 5,1 8,1 12,1 3,0 7,0 11,-1 5,0 9,-1 12,-1l0 -111c6,2 12,3 19,4 7,1 14,1 21,1 41,0 73,-11 96,-35 22,-23 33,-55 33,-97 0,-21 -2,-39 -7,-54 -5,-15 -12,-28 -20,-37 -9,-10 -19,-18 -31,-22 -12,-5 -25,-7 -40,-7 -9,0 -18,1 -25,3 -8,2 -15,5 -21,9 -6,4 -11,8 -16,13 -4,4 -8,9 -11,14 0,-1 0,-3 -1,-6 0,-4 -1,-7 -1,-11 -1,-4 -1,-8 -2,-11 0,-3 0,-5 -1,-6 -3,0 -6,-1 -10,-1 -3,0 -6,-1 -9,-1 -4,0 -7,1 -11,1 -3,0 -6,1 -9,1l0 353zm-221 -166c-10,-16 -15,-38 -15,-66 0,-28 5,-49 15,-65 10,-15 26,-23 48,-23 21,0 37,8 48,23 10,16 15,37 15,65 0,28 -5,50 -15,66 -11,15 -27,23 -48,23 -22,0 -38,-8 -48,-23zm97 51c14,-7 26,-16 35,-27 10,-11 17,-25 21,-40 5,-15 7,-32 7,-50 0,-18 -2,-34 -7,-50 -4,-15 -11,-28 -21,-40 -9,-11 -21,-20 -35,-27 -14,-6 -31,-9 -49,-9 -19,0 -36,3 -50,9 -14,7 -26,16 -35,27 -10,12 -17,25 -21,40 -5,16 -7,32 -7,50 0,18 2,35 7,50 4,15 11,29 21,40 9,11 21,20 35,27 14,6 31,9 50,9 18,0 35,-3 49,-9zm-374 -140c2,-21 9,-37 19,-49 10,-11 25,-17 44,-17 10,0 18,2 25,5 7,4 13,9 17,15 5,6 8,13 11,21 2,7 3,16 3,25l-119 0zm164 35c0,-4 1,-8 1,-13 0,-5 0,-9 0,-14 0,-16 -2,-31 -6,-44 -5,-14 -11,-26 -19,-36 -9,-10 -19,-17 -32,-23 -13,-6 -27,-8 -44,-8 -19,0 -36,3 -50,10 -15,7 -26,16 -36,27 -9,12 -16,25 -21,41 -4,15 -7,32 -7,50 0,18 3,35 7,50 5,15 13,28 23,39 10,11 23,20 39,26 15,6 34,9 56,9 15,0 29,-1 41,-3 13,-2 24,-5 34,-10 0,-6 -1,-13 -2,-20 -2,-7 -4,-12 -7,-17 -20,8 -41,12 -63,12 -26,0 -45,-6 -58,-19 -13,-12 -20,-31 -20,-57l164 0zm-431 -29c0,-12 2,-22 6,-31 3,-8 8,-15 13,-21 6,-6 12,-10 19,-13 8,-2 15,-4 23,-4 21,0 36,7 46,22 9,15 13,35 13,60 0,16 -2,29 -6,41 -3,11 -9,21 -16,28 -6,8 -14,13 -24,17 -9,4 -20,5 -31,5 -10,0 -18,0 -24,-1 -7,-1 -13,-3 -19,-5l0 -98zm-46 249c3,0 7,1 11,1 5,1 8,1 12,1 3,0 7,0 11,-1 5,0 9,-1 12,-1l0 -111c6,2 12,3 19,4 7,1 14,1 21,1 41,0 73,-11 96,-35 22,-23 33,-55 33,-97 0,-21 -2,-39 -7,-54 -5,-15 -12,-28 -20,-37 -9,-10 -19,-18 -31,-22 -12,-5 -25,-7 -40,-7 -9,0 -18,1 -25,3 -8,2 -15,5 -21,9 -6,4 -11,8 -16,13 -4,4 -8,9 -11,14 0,-1 0,-3 -1,-6 0,-4 -1,-7 -1,-11 -1,-4 -1,-8 -2,-11 0,-3 0,-5 -1,-6 -3,0 -6,-1 -10,-1 -3,0 -6,-1 -9,-1 -4,0 -7,1 -11,1 -3,0 -6,1 -9,1l0 353z"/>
  </g>
 </g>
</svg>
