<?xml version="1.0" encoding="UTF-8"?>
<!DOCTYPE svg PUBLIC "-//W3C//DTD SVG 1.1//EN" "http://www.w3.org/Graphics/SVG/1.1/DTD/svg11.dtd">
<!-- Creator: CorelDRAW X7 -->
<svg xmlns="http://www.w3.org/2000/svg" xml:space="preserve" width="67.8mm" height="14.9mm" version="1.1" style="shape-rendering:geometricPrecision; text-rendering:geometricPrecision; image-rendering:optimizeQuality; fill-rule:evenodd; clip-rule:evenodd"
viewBox="0 0 6780 1490"
 xmlns:xlink="http://www.w3.org/1999/xlink">
 <defs>
  <style type="text/css">
   <![CDATA[
    .fil0 {fill:#FEFEFE;fill-rule:nonzero}
   ]]>
  </style>
 </defs>
 <g id="Warstwa_x0020_1">
  <metadata id="CorelCorpID_0Corel-Layer"/>
  <g id="_2312397919376">
   <path class="fil0" d="M120 1488c-81,0 -121,-26 -121,-77l0 -95c0,-51 40,-77 121,-77l215 0c6,0 11,2 13,6 2,3 3,9 3,17 0,7 -1,12 -3,16 -2,4 -7,6 -13,6l-213 0c-24,0 -42,3 -52,9 -11,6 -17,14 -17,23l0 95c0,9 6,17 17,23 10,6 28,9 52,9l214 0c7,0 11,2 13,6 2,4 3,9 3,16 0,8 -1,13 -3,17 -2,4 -6,6 -13,6l-216 0z"/>
   <path class="fil0" d="M382 1316c0,-51 41,-77 122,-77l93 0c81,0 122,26 122,77l0 95c0,51 -41,77 -122,77l-93 0c-81,0 -122,-26 -122,-77l0 -95zm282 0c0,-9 -5,-17 -16,-23 -11,-6 -29,-9 -53,-9l-90 0c-24,0 -41,3 -52,9 -11,6 -16,14 -16,23l0 95c0,9 5,17 16,23 11,6 28,9 52,9l90 0c24,0 42,-3 53,-9 11,-6 16,-14 16,-23l0 -95z"/>
   <path class="fil0" d="M810 1469c0,8 -3,14 -7,17 -5,2 -12,4 -21,4 -9,0 -16,-2 -20,-4 -5,-3 -7,-9 -7,-17l0 -281c0,-9 2,-14 7,-17 4,-3 11,-4 20,-4 9,0 16,1 21,4 4,3 7,8 7,17l0 281z"/>
   <path class="fil0" d="M905 1469c0,8 -3,14 -7,17 -5,2 -12,4 -21,4 -9,0 -16,-2 -20,-4 -5,-3 -7,-9 -7,-17l0 -281c0,-9 2,-14 7,-17 4,-3 11,-4 20,-4 9,0 16,1 21,4 4,3 7,8 7,17l0 281z"/>
   <path class="fil0" d="M995 1389l0 22c0,9 6,17 17,23 11,6 28,9 52,9l147 0c7,0 11,2 12,6 2,4 3,9 3,16 0,8 -1,13 -3,17 -1,4 -5,6 -12,6l-149 0c-80,0 -121,-26 -121,-77l0 -95c0,-51 41,-77 121,-77l100 0c43,0 74,6 93,19 19,13 28,32 28,58l0 50c0,9 -1,15 -5,18 -3,3 -10,5 -21,5l-262 0zm0 -44l234 0 0 -29c0,-11 -6,-18 -17,-24 -10,-6 -28,-8 -52,-8l-96 0c-24,0 -41,3 -52,9 -11,6 -17,14 -17,23l0 29z"/>
   <path class="fil0" d="M1434 1488c-81,0 -122,-26 -122,-77l0 -95c0,-51 41,-77 122,-77l214 0c7,0 11,2 13,6 2,3 3,9 3,17 0,7 -1,12 -3,16 -2,4 -6,6 -13,6l-213 0c-24,0 -41,3 -52,9 -11,6 -16,14 -16,23l0 95c0,9 5,17 16,23 11,6 28,9 52,9l215 0c6,0 11,2 12,6 2,4 3,9 3,16 0,8 -1,13 -3,17 -1,4 -6,6 -12,6l-216 0z"/>
   <path class="fil0" d="M1724 1239l0 -51c0,-9 2,-14 7,-17 4,-3 11,-4 20,-4 10,0 16,1 21,4 4,3 7,8 7,17l0 51 90 0c7,0 11,2 13,6 2,4 3,9 3,17 0,7 -1,12 -3,16 -2,4 -6,6 -13,6l-90 0 0 185c0,8 -3,14 -7,17 -5,2 -11,4 -21,4 -9,0 -16,-2 -20,-4 -5,-3 -7,-9 -7,-17l0 -185 -24 0c-7,0 -11,-2 -13,-6 -2,-4 -3,-9 -3,-16 0,-8 1,-13 3,-17 2,-4 6,-6 13,-6l24 0z"/>
   <path class="fil0" d="M1903 1194c0,-9 3,-16 8,-20 6,-5 14,-7 26,-7 12,0 21,2 26,7 6,4 8,11 8,20 0,10 -2,17 -8,21 -5,4 -14,6 -26,6 -12,0 -20,-2 -26,-6 -5,-4 -8,-11 -8,-21zm62 275c0,8 -3,14 -7,17 -5,2 -12,4 -21,4 -9,0 -16,-2 -20,-4 -5,-3 -7,-9 -7,-17l0 -208c0,-8 2,-14 7,-17 4,-2 11,-3 20,-3 9,0 16,1 21,3 4,3 7,9 7,17l0 208z"/>
   <path class="fil0" d="M2001 1316c0,-51 41,-77 122,-77l93 0c81,0 122,26 122,77l0 95c0,51 -41,77 -122,77l-93 0c-81,0 -122,-26 -122,-77l0 -95zm282 0c0,-9 -5,-17 -16,-23 -11,-6 -28,-9 -52,-9l-91 0c-24,0 -41,3 -52,9 -11,6 -16,14 -16,23l0 95c0,9 5,17 16,23 11,6 28,9 52,9l91 0c24,0 41,-3 52,-9 11,-6 16,-14 16,-23l0 -95z"/>
   <path class="fil0" d="M2400 1490c-9,0 -16,-2 -21,-4 -4,-3 -6,-9 -6,-17l0 -153c0,-51 40,-77 121,-77l94 0c81,0 121,26 121,77l0 153c0,8 -2,14 -7,17 -4,2 -11,4 -20,4 -10,0 -16,-2 -21,-4 -4,-3 -6,-9 -6,-17l0 -153c0,-9 -6,-17 -17,-23 -10,-6 -28,-9 -52,-9l-90 0c-24,0 -42,3 -52,9 -11,6 -17,14 -17,23l0 153c0,8 -2,14 -7,17 -4,2 -11,4 -20,4z"/>
   <path class="fil0" d="M320 461c-213,0 -320,-69 -320,-207l0 -43c0,-137 107,-206 320,-206l252 0c17,0 28,5 34,15 5,10 8,25 8,45 0,20 -3,35 -8,45 -6,10 -17,15 -34,15l-255 0c-64,0 -108,8 -135,25 -26,16 -39,37 -39,61l0 43c0,24 13,44 39,61 27,18 71,26 135,26l255 0c214,0 321,69 321,206l0 56c0,137 -107,206 -321,206l-530 0c-17,0 -28,-5 -34,-15 -5,-10 -8,-25 -8,-45 0,-20 3,-35 8,-45 6,-10 17,-15 34,-15l534 0c63,0 108,-8 134,-25 27,-16 40,-37 40,-61l0 -56c0,-23 -13,-44 -40,-61 -26,-17 -71,-25 -134,-25l-256 0z"/>
   <path class="fil0" d="M1037 182l0 -129c0,-22 5,-36 16,-43 11,-6 29,-10 52,-10 23,0 40,4 52,10 11,7 17,21 17,43l0 129 228 0c17,0 27,5 32,15 5,9 7,23 7,42 0,18 -2,32 -7,42 -5,9 -15,13 -32,13l-228 0 0 467c0,22 -6,36 -17,43 -12,6 -29,10 -52,10 -23,0 -41,-4 -52,-10 -11,-7 -16,-21 -16,-43l0 -467 -62 0c-17,0 -27,-4 -32,-13 -5,-10 -7,-24 -7,-42 0,-19 2,-33 7,-42 5,-10 15,-15 32,-15l62 0z"/>
   <path class="fil0" d="M1614 560l0 56c0,22 14,41 41,57 28,16 72,24 132,24l411 0c16,0 27,5 32,14 4,9 7,23 7,42 0,18 -3,32 -7,42 -5,9 -16,14 -32,14l-415 0c-204,0 -306,-64 -306,-193l0 -241c0,-128 102,-193 306,-193l250 0c108,0 186,16 234,48 48,32 72,80 72,145l0 128c0,21 -4,36 -12,44 -8,9 -26,13 -53,13l-660 0zm0 -110l587 0 0 -75c0,-26 -13,-45 -40,-60 -27,-14 -71,-21 -133,-21l-241 0c-60,0 -104,8 -132,24 -27,15 -41,34 -41,57l0 75z"/>
   <path class="fil0" d="M3147 53c0,-22 6,-36 17,-43 12,-6 29,-10 52,-10 23,0 40,4 52,10 11,7 16,21 16,43l0 563c0,129 -102,193 -306,193l-260 0c-204,0 -305,-64 -305,-193l0 -241c0,-128 101,-193 305,-193l429 0 0 -129zm-424 241c-61,0 -105,8 -132,24 -28,15 -41,34 -41,57l0 241c0,22 13,41 41,57 27,16 71,24 132,24l251 0c60,0 104,-8 132,-24 27,-16 41,-35 41,-57l0 -322 -424 0z"/>
   <path class="fil0" d="M4485 814c-23,0 -40,-4 -52,-10 -11,-7 -17,-21 -17,-43l0 -386c0,-23 -12,-42 -37,-57 -24,-16 -67,-24 -128,-24l-60 0c-30,0 -56,2 -75,7 -20,4 -36,9 -49,17 -12,7 -20,16 -26,26 -5,10 -7,20 -7,31l0 386c0,22 -6,36 -17,43 -12,6 -29,10 -52,10 -25,0 -42,-4 -53,-11 -10,-8 -15,-22 -15,-42l0 -386c0,-11 -3,-21 -8,-31 -5,-10 -14,-19 -26,-26 -12,-8 -28,-13 -48,-17 -20,-5 -45,-7 -75,-7l-61 0c-60,0 -103,8 -127,24 -25,15 -37,34 -37,57l0 386c0,22 -6,36 -18,43 -11,6 -28,10 -51,10 -24,0 -41,-4 -52,-10 -11,-7 -17,-21 -17,-43l0 -386c0,-65 25,-113 73,-145 49,-32 118,-48 205,-48l108 0c90,0 158,19 202,56 44,-37 112,-56 203,-56l107 0c88,0 157,16 205,48 49,32 73,80 73,145l0 386c0,22 -5,36 -17,43 -11,6 -28,10 -51,10z"/>
   <path class="fil0" d="M4941 809c-204,0 -306,-64 -306,-193l0 -59c0,-128 102,-193 306,-193l463 0 0 -1c0,-21 -14,-38 -41,-50 -27,-12 -71,-19 -133,-19l-387 0c-17,0 -28,-4 -33,-13 -5,-10 -7,-24 -7,-42 0,-19 2,-34 7,-43 5,-9 16,-14 33,-14l392 0c204,0 306,65 306,193l0 241c0,129 -102,193 -306,193l-294 0zm289 -112c61,0 105,-8 133,-24 27,-16 41,-35 41,-57l0 -144 -459 0c-61,0 -105,8 -132,23 -28,16 -41,35 -41,58l0 63c0,22 13,41 41,57 27,16 71,24 132,24l285 0z"/>
   <path class="fil0" d="M5697 814c-23,0 -40,-4 -52,-10 -11,-7 -16,-21 -16,-43l0 -386c0,-128 102,-193 306,-193l236 0c204,0 306,65 306,193l0 386c0,22 -6,36 -18,43 -11,6 -29,10 -51,10 -24,0 -41,-4 -52,-10 -11,-7 -17,-21 -17,-43l0 -386c0,-23 -13,-42 -41,-57 -27,-16 -71,-24 -132,-24l-227 0c-60,0 -105,8 -132,24 -27,15 -41,34 -41,57l0 386c0,22 -6,36 -17,43 -12,6 -29,10 -52,10z"/>
   <path class="fil0" d="M6781 192c0,20 -6,35 -17,46 -11,11 -30,17 -55,17l-99 0c-25,0 -44,-6 -55,-17 -11,-11 -17,-26 -17,-46l0 -109c0,-20 6,-35 17,-46 11,-11 30,-17 55,-17l99 0c25,0 44,6 55,17 11,11 17,26 17,46l0 109zm-223 -2c0,15 4,26 13,33 9,7 22,11 39,11l99 0c17,0 31,-4 39,-11 9,-7 13,-18 13,-33l0 -105c0,-15 -4,-26 -13,-33 -8,-7 -22,-11 -39,-11l-99 0c-17,0 -30,4 -39,11 -9,7 -13,18 -13,33l0 105zm28 -108c0,-5 3,-8 8,-8l94 0c15,0 26,2 35,8 9,5 13,11 13,19l0 22c0,8 -4,15 -13,20 -9,5 -20,7 -35,7l-41 0 78 33c3,1 5,3 5,7 0,5 -3,8 -10,8 -6,0 -11,-1 -14,-2l-97 -43 0 37c0,3 -1,5 -3,7 -2,1 -5,1 -9,1 -3,0 -6,0 -8,-1 -2,-2 -3,-4 -3,-7l0 -108zm23 10l0 40 77 0c11,0 19,-1 23,-3 3,-2 6,-5 6,-8l0 -18c0,-3 -3,-5 -6,-7 -4,-3 -12,-4 -23,-4l-77 0z"/>
   <path class="fil0" d="M2891 1485c-15,0 -25,-4 -29,-13 -5,-10 -7,-23 -7,-41 0,-18 2,-32 7,-41 4,-9 14,-14 29,-14l3550 0c14,0 24,5 29,14 4,9 7,23 7,41 0,18 -3,31 -7,41 -5,9 -15,13 -29,13l-3550 0z"/>
  </g>
 </g>
</svg>
