<?xml version="1.0" encoding="UTF-8"?>
<!DOCTYPE svg PUBLIC "-//W3C//DTD SVG 1.1//EN" "http://www.w3.org/Graphics/SVG/1.1/DTD/svg11.dtd">
<!-- Creator: CorelDRAW X7 -->
<svg xmlns="http://www.w3.org/2000/svg" xml:space="preserve" width="67.8mm" height="8.4mm" version="1.1" style="shape-rendering:geometricPrecision; text-rendering:geometricPrecision; image-rendering:optimizeQuality; fill-rule:evenodd; clip-rule:evenodd"
viewBox="0 0 6780 840"
 xmlns:xlink="http://www.w3.org/1999/xlink">
 <defs>
  <style type="text/css">
   <![CDATA[
    .fil0 {fill:#FEFEFE;fill-rule:nonzero}
   ]]>
  </style>
 </defs>
 <g id="Warstwa_x0020_1">
  <metadata id="CorelCorpID_0Corel-Layer"/>
  <g id="_2312323685536">
   <path class="fil0" d="M3482 838l3298 1 0 -837 -2098 0 0 186 135 0 0 91 -135 0 0 211c0,34 6,59 16,73 11,14 31,22 58,22 28,0 54,-8 77,-23l0 104c-26,9 -64,14 -114,14 -48,0 -87,-14 -113,-41 -26,-27 -39,-66 -39,-116l0 -244 -57 0 0 -91 57 0 0 -186 -487 0c-75,21 -143,55 -185,132 -65,118 -64,254 -92,383 -27,127 -84,246 -217,292 -34,12 -69,21 -104,29zm2477 -198l41 -90c34,27 73,40 116,40 45,0 67,-16 67,-47 0,-18 -6,-33 -20,-45 -14,-12 -40,-26 -79,-41 -84,-35 -127,-83 -127,-146 0,-41 16,-74 49,-97 32,-23 74,-35 124,-35 52,0 100,11 145,34l-33 87c-25,-21 -60,-32 -105,-32 -40,0 -60,16 -60,47 0,13 6,24 19,34 13,10 42,23 85,40 43,16 75,37 93,60 19,24 29,53 29,86 0,45 -17,80 -51,106 -34,26 -80,39 -138,39 -33,0 -59,-3 -79,-8 -20,-5 -45,-16 -76,-32zm-150 -347c-21,-13 -43,-20 -68,-20 -27,0 -50,12 -71,36 -21,23 -31,52 -31,87l0 275 -115 0 0 -483 115 0 0 44c32,-35 75,-53 129,-53 38,0 68,6 90,17l-49 97zm-555 329c-10,17 -28,31 -54,42 -26,10 -53,16 -81,16 -54,0 -95,-13 -126,-39 -30,-26 -45,-63 -45,-111 0,-56 22,-100 64,-131 43,-32 104,-47 182,-47 14,0 30,2 49,6 0,-57 -37,-85 -111,-85 -43,0 -79,7 -108,21l-25 -87c40,-19 86,-28 142,-28 75,0 130,17 165,50 34,34 52,97 52,191l0 103c0,64 13,105 40,121 -10,16 -20,26 -32,30 -12,4 -25,6 -40,6 -17,0 -32,-6 -45,-18 -13,-12 -22,-25 -27,-40zm-11 -179c-19,-3 -34,-5 -44,-5 -90,0 -136,29 -136,87 0,43 26,65 77,65 69,0 103,-34 103,-101l0 -46zm-1198 197l41 -90c35,27 73,40 117,40 44,0 66,-16 66,-47 0,-18 -6,-33 -20,-45 -13,-12 -40,-26 -78,-41 -85,-35 -128,-83 -128,-146 0,-41 16,-74 49,-97 32,-23 74,-35 125,-35 51,0 99,11 144,34l-33 87c-25,-21 -60,-32 -105,-32 -40,0 -60,16 -60,47 0,13 6,24 20,34 13,10 41,23 84,40 44,16 74,37 94,60 19,24 28,53 28,86 0,45 -17,80 -51,106 -33,26 -80,39 -138,39 -32,0 -59,-3 -79,-8 -19,-5 -45,-16 -76,-32z"/>
   <path class="fil0" d="M4005 1l-4005 0 0 838 3447 0 1 0 -35 0c76,-20 146,-52 190,-121 77,-119 75,-263 103,-398 26,-127 82,-247 215,-294 27,-10 56,-18 84,-25zm-1013 406c0,-74 21,-133 65,-180 43,-46 101,-69 171,-69 75,0 134,22 175,67 41,44 62,105 62,182 0,77 -21,138 -63,184 -42,45 -101,68 -174,68 -74,0 -132,-23 -174,-69 -42,-46 -62,-107 -62,-183zm119 0c0,107 39,160 117,160 37,0 65,-14 85,-42 22,-27 32,-67 32,-118 0,-105 -39,-157 -117,-157 -35,0 -64,14 -85,41 -21,28 -32,67 -32,116zm-389 243l0 -303c0,-63 -29,-95 -87,-95 -17,0 -34,5 -50,15 -16,10 -27,21 -33,34l0 349 -115 0 0 -320c0,-24 -8,-43 -23,-57 -15,-14 -36,-21 -64,-21 -14,0 -30,5 -47,16 -17,10 -29,22 -37,34l0 348 -115 0 0 -483 79 0 24 42c32,-34 73,-51 124,-51 65,0 114,17 148,52 14,-16 34,-29 60,-38 25,-9 51,-14 77,-14 55,0 97,15 128,46 31,31 46,73 46,127l0 319 -115 0zm-1193 -243c0,-74 22,-133 65,-180 43,-46 101,-69 171,-69 75,0 134,22 175,67 41,44 62,105 62,182 0,77 -21,138 -63,184 -43,45 -101,68 -174,68 -74,0 -132,-23 -174,-69 -42,-46 -62,-107 -62,-183zm119 0c0,107 40,160 117,160 37,0 65,-14 86,-42 21,-27 31,-67 31,-118 0,-105 -39,-157 -117,-157 -35,0 -64,14 -85,41 -21,28 -32,67 -32,116zm-231 -135c-21,-13 -43,-20 -68,-20 -27,0 -50,12 -71,36 -20,23 -31,52 -31,87l0 275 -115 0 0 -483 115 0 0 44c32,-35 75,-53 128,-53 40,0 70,6 91,17l-49 97zm-770 366l0 201 -114 0 0 -672 114 0 0 32c29,-27 64,-41 107,-41 156,0 235,85 235,254 0,79 -22,140 -65,183 -44,42 -102,64 -177,64 -37,0 -70,-7 -100,-21zm0 -353l0 254c21,16 46,24 73,24 53,0 92,-12 115,-37 23,-25 35,-64 35,-117 0,-57 -12,-97 -35,-121 -23,-23 -61,-35 -114,-35 -28,0 -52,11 -74,32z"/>
  </g>
 </g>
</svg>
