<?xml version="1.0" encoding="UTF-8"?>
<!DOCTYPE svg PUBLIC "-//W3C//DTD SVG 1.1//EN" "http://www.w3.org/Graphics/SVG/1.1/DTD/svg11.dtd">
<!-- Creator: CorelDRAW X7 -->
<svg xmlns="http://www.w3.org/2000/svg" xml:space="preserve" width="49.3mm" height="23.1mm" version="1.1" style="shape-rendering:geometricPrecision; text-rendering:geometricPrecision; image-rendering:optimizeQuality; fill-rule:evenodd; clip-rule:evenodd"
viewBox="0 0 4930 2310"
 xmlns:xlink="http://www.w3.org/1999/xlink">
 <defs>
  <style type="text/css">
   <![CDATA[
    .fil0 {fill:#FEFEFE;fill-rule:nonzero}
   ]]>
  </style>
 </defs>
 <g id="Warstwa_x0020_1">
  <metadata id="CorelCorpID_0Corel-Layer"/>
  <g id="_2310791051008">
   <path class="fil0" d="M250 900l0 397c0,30 3,58 7,86 4,28 8,47 11,55l-259 0c8,-36 11,-76 11,-122l0 -855c0,-22 -1,-44 -4,-65 -3,-21 -8,-42 -14,-63l261 0c-2,11 -5,27 -8,48 -3,22 -5,41 -5,58l0 358 120 0 0 -358c0,-17 -2,-36 -5,-58 -3,-21 -6,-37 -9,-48l261 0c-5,21 -9,42 -12,63 -4,21 -6,43 -6,65l0 855c0,46 4,86 12,122l-259 0c3,-8 7,-27 11,-55 5,-28 7,-56 7,-86l0 -397 -120 0z"/>
   <path class="fil0" d="M944 393c1,-5 2,-11 2,-18 1,-7 1,-13 3,-20 1,-7 1,-15 1,-22l295 0c0,7 0,15 1,22 0,7 0,13 1,20 0,7 1,13 2,18 10,71 20,146 31,224 11,79 22,159 33,241 11,83 23,166 36,251 12,84 25,168 38,250 1,8 2,17 4,25 1,9 3,17 5,26 2,9 5,19 7,28l-262 0c1,-7 2,-15 3,-22 2,-14 2,-29 0,-44 -3,-34 -7,-77 -13,-129 -5,-51 -11,-103 -18,-156l-157 0c-8,56 -14,106 -20,152 -4,45 -9,90 -14,134 -1,7 -1,14 0,22 0,7 0,15 0,21l0 22 -157 0 7 -24c2,-6 4,-13 6,-21 1,-8 3,-15 6,-21 7,-40 16,-89 26,-146 11,-57 21,-118 32,-181 11,-64 21,-129 32,-196 11,-67 21,-129 30,-189 9,-60 17,-113 24,-160 7,-47 13,-83 16,-107zm95 73l-76 524 141 0 -65 -524z"/>
   <path class="fil0" d="M1838 920l-41 0 0 398c0,29 3,54 7,72 6,20 11,35 16,48l-264 0c8,-36 12,-76 12,-122l0 -842c0,-23 -2,-46 -5,-69 -3,-23 -8,-47 -13,-72l409 0c70,0 119,10 146,31 28,20 42,57 42,110l0 247c0,47 -13,81 -39,100 -26,18 -62,33 -109,44 46,7 82,19 108,35 26,17 40,47 40,92l0 334c0,24 2,45 8,63 5,18 11,34 16,49l-254 0 0 -427c0,-34 -8,-58 -23,-71 -14,-13 -33,-20 -56,-20zm17 -481l-58 0 0 380 44 0c29,0 49,-10 60,-30 10,-20 16,-40 16,-60l0 -225c0,-18 -6,-33 -16,-46 -11,-13 -26,-19 -46,-19z"/>
   <path class="fil0" d="M2323 415c-2,-7 -5,-16 -7,-25 -2,-10 -4,-19 -6,-27 -3,-11 -6,-21 -9,-30l255 0c0,8 0,17 2,27 0,8 0,17 0,25 1,9 1,17 3,24 4,39 9,80 15,124 6,44 12,88 18,133 5,45 12,89 18,133 6,44 13,86 18,126 13,94 27,188 40,280l10 0c12,-92 24,-185 36,-278 4,-39 9,-81 14,-125 6,-43 11,-88 16,-132 5,-44 9,-88 14,-130 5,-43 9,-84 12,-123 1,-8 2,-18 2,-27l0 -27c0,-11 -1,-21 -2,-30l157 0c-3,11 -6,21 -10,31 -2,9 -4,18 -7,28 -4,10 -6,20 -7,28 -7,40 -13,85 -21,135 -6,49 -14,102 -22,157 -8,56 -16,112 -24,169 -8,57 -16,112 -23,166 -19,127 -38,257 -56,391l-276 0c0,-6 -1,-14 -1,-24 -2,-8 -3,-18 -5,-28 -2,-11 -3,-23 -5,-38 -8,-47 -17,-107 -28,-181 -12,-73 -24,-153 -38,-239 -13,-85 -27,-173 -42,-262 -15,-89 -28,-173 -41,-251z"/>
   <path class="fil0" d="M3516 1438l-443 0c8,-36 12,-76 12,-122l0 -842c0,-23 -2,-46 -5,-69 -4,-23 -8,-47 -13,-72l430 0 0 105c-6,-3 -12,-5 -17,-6 -5,-2 -11,-2 -20,-2l-146 0 0 368 79 0c16,0 32,-1 47,-3 15,-2 25,-4 31,-6l0 117c-8,-2 -18,-4 -32,-7 -14,-3 -29,-4 -44,-4l-81 0 0 436c30,0 56,-1 78,-1 22,-1 48,-2 77,-4 9,0 16,-1 24,-2 6,-1 15,-2 23,-2l0 116z"/>
   <path class="fil0" d="M4255 974l0 330c0,31 -5,57 -16,76 -11,20 -28,35 -51,45 -23,11 -54,18 -91,22 -38,4 -85,5 -140,5 -67,0 -121,-1 -163,-4 -42,-2 -81,-6 -118,-12l0 -408 207 0 0 253c0,20 5,37 16,49 11,13 31,19 58,19 29,0 47,-6 55,-17 9,-12 13,-28 13,-49l0 -220c0,-20 -5,-37 -16,-50 -10,-13 -24,-25 -41,-34 -17,-9 -35,-18 -54,-25 -19,-7 -38,-13 -55,-20 -27,-10 -51,-19 -74,-26 -22,-8 -41,-18 -57,-30 -16,-13 -29,-30 -38,-52 -9,-22 -14,-51 -14,-89l0 -274c0,-32 6,-57 16,-76 11,-19 29,-34 53,-44 24,-10 55,-16 93,-20 38,-3 84,-4 139,-4 60,0 113,1 157,4 44,4 82,6 115,8l0 400 -204 0 0 -256c0,-22 -5,-36 -16,-44 -10,-7 -27,-11 -52,-11 -25,0 -43,4 -54,11 -11,8 -17,23 -17,48l0 213c0,24 6,43 17,57 11,15 26,27 43,38 17,10 36,18 56,24 21,6 40,13 58,19 21,7 42,15 63,22 21,8 39,17 56,28 17,11 31,24 41,39 10,15 15,33 15,55z"/>
   <path class="fil0" d="M4876 448c-10,-1 -20,-1 -31,-2 -11,0 -20,-1 -29,-1l-31 0 0 870c0,29 2,53 6,72 4,19 8,36 12,51l-259 0c8,-36 12,-76 12,-122l0 -871 -27 0 -27 0c-8,0 -16,1 -24,2 -12,2 -23,4 -32,6 -10,1 -20,3 -32,5l0 -125 514 0 0 125c-9,-2 -18,-4 -26,-5 -9,-2 -17,-4 -26,-5z"/>
   <path class="fil0" d="M1004 1886c-1,0 -2,-1 -4,-1 -1,0 -3,0 -5,0 -12,0 -21,4 -26,10 -5,6 -7,13 -7,21 0,7 1,15 3,23 2,8 4,16 7,23 2,8 6,16 8,25 2,8 3,16 3,24 0,6 -1,12 -3,17 -2,7 -5,12 -9,16 -3,5 -9,9 -16,12 -6,3 -15,5 -24,5l-87 0c-2,0 -3,0 -3,0 -1,0 -1,0 -1,-1 0,-1 1,-3 3,-6 2,-3 4,-5 5,-7 13,1 24,-1 33,-6 9,-5 14,-14 14,-26 0,-6 -2,-13 -4,-21 -2,-7 -5,-15 -7,-23 -3,-8 -5,-16 -7,-24 -3,-8 -4,-15 -4,-22 0,-18 5,-32 16,-41 11,-9 24,-13 41,-13l80 -1 0 3c0,2 0,4 -1,6 0,1 -1,4 -1,7l-4 0z"/>
   <path class="fil0" d="M1346 1894c0,4 -1,10 -2,16 -1,7 -2,14 -3,21 -1,7 -3,13 -4,19 -1,6 -2,10 -3,11 -4,20 -10,36 -17,48 -8,13 -17,23 -27,30 -9,8 -20,13 -31,16 -12,3 -24,4 -36,5l-53 1c-2,0 -5,0 -8,0 -4,0 -6,1 -6,2 -3,14 -6,28 -8,42 -2,14 -4,28 -7,43 0,0 -1,1 -2,3 -1,1 -2,3 -3,4 -2,2 -4,5 -5,7l-34 3c-9,1 -17,2 -23,3 -7,0 -12,1 -12,1 -4,0 -7,-1 -6,-3 0,-2 0,-3 -1,-5l21 -102 -18 0 5 -21 17 2c4,-23 8,-43 12,-61 2,-8 3,-16 4,-24 2,-7 4,-15 5,-22 1,-6 2,-13 2,-18 1,-5 2,-8 2,-11 0,-6 -2,-11 -5,-15 -4,-3 -8,-5 -12,-7 -4,-1 -10,-1 -16,-1l3 -6c4,-1 13,-2 25,-3 12,-1 25,-2 39,-3 15,0 31,-1 50,-1 5,1 7,4 7,7 0,1 0,3 0,4l0 5c-1,2 -1,4 -1,5 8,-3 15,-6 22,-9 7,-4 13,-6 20,-8 11,-3 23,-4 34,-4 12,0 24,0 35,0 11,0 20,2 28,5 8,3 12,10 12,21zm-84 23c0,0 0,-2 1,-5 0,-4 1,-7 0,-11 0,-4 -1,-7 -3,-9 -3,-3 -7,-5 -12,-4 -13,1 -25,7 -36,19 -10,12 -19,26 -27,41 -7,16 -12,32 -17,47 -3,16 -5,28 -5,37 0,0 0,2 1,5 0,2 2,4 4,4 16,0 30,-5 42,-15 11,-10 21,-21 28,-34 8,-14 14,-27 18,-41 4,-14 6,-25 6,-34z"/>
   <path class="fil0" d="M1645 1913c0,9 -1,18 -3,28 -3,11 -5,20 -6,29 -4,23 -11,40 -21,53 -10,12 -22,21 -34,28 -13,6 -26,10 -41,11 -13,2 -26,2 -38,2l-26 0c-10,0 -20,-1 -30,-3 -9,-2 -18,-5 -25,-10 -8,-5 -14,-12 -18,-20 -5,-8 -7,-18 -7,-31 0,-9 1,-21 5,-36 3,-14 8,-28 14,-42 7,-14 16,-26 27,-35 10,-10 23,-15 38,-15 7,-2 15,-2 24,-2 10,-1 19,-1 29,-1 10,0 19,0 29,1 8,0 16,0 22,0 6,0 12,1 19,3 7,1 14,3 20,6 7,3 12,7 16,13 4,6 6,13 6,21zm-82 13c0,-2 0,-4 0,-9 0,-4 -1,-9 -2,-13 -1,-5 -4,-9 -7,-12 -3,-4 -7,-6 -12,-6 -8,0 -15,3 -22,8 -6,5 -11,11 -17,19 -4,8 -9,17 -12,26 -4,10 -7,19 -9,28 -2,9 -4,17 -5,24 -2,7 -2,13 -2,16l0 10c0,5 1,9 2,14 1,5 3,8 6,12 2,3 7,5 11,5 11,0 22,-5 31,-16 8,-12 15,-24 21,-38 6,-14 10,-28 13,-41 3,-13 4,-23 4,-27z"/>
   <path class="fil0" d="M1886 1863c0,11 -2,21 -6,30 -5,10 -13,17 -25,24 -3,0 -5,0 -7,1 -1,1 -2,0 -2,-3 0,0 0,-1 1,-3 1,-2 2,-4 3,-6 1,-2 2,-4 3,-6 0,-2 1,-3 1,-4 0,-4 -1,-7 -2,-11 -1,-5 -2,-7 -4,-7 -4,0 -9,2 -12,6 -3,4 -6,9 -9,15 -4,6 -6,11 -8,17 -2,5 -3,9 -3,11 -3,14 -6,29 -10,44 -2,15 -5,29 -7,41 -3,12 -4,22 -6,31 -1,8 -2,13 -3,15 -2,0 -6,0 -14,0 -7,1 -15,1 -22,2 -9,0 -16,1 -23,2 -7,1 -11,1 -12,1 -4,1 -7,1 -8,1 -1,-1 -2,-1 -3,-2 -1,-1 -1,-2 -1,-4 5,-23 9,-45 14,-66 1,-8 3,-17 5,-25 2,-9 3,-17 5,-25 1,-8 2,-14 3,-20 2,-6 3,-10 4,-13 0,-1 1,-3 1,-7 0,-3 -2,-7 -7,-9 -3,-2 -6,-1 -10,0 -5,2 -9,2 -11,2 -1,-1 -1,-2 0,-3 1,-1 1,-3 0,-5 1,0 5,-1 12,-4 6,-2 14,-4 22,-6 9,-2 17,-4 26,-6 8,-2 15,-3 21,-3 8,0 14,3 18,7 2,5 5,10 6,16 2,-4 5,-10 9,-15 4,-6 8,-11 13,-17 5,-5 10,-9 16,-12 6,-4 11,-6 17,-6 7,0 11,3 12,8 2,5 3,10 3,14z"/>
   <path class="fil0" d="M1979 1872c3,-14 7,-27 10,-39 2,-12 4,-22 6,-29 1,-3 4,-5 12,-7 8,-2 16,-4 25,-5 10,-1 18,-2 26,-3 8,-1 11,-1 12,-1 1,0 3,1 4,4l1 3 -17 77 33 0 -5 16 -31 0 -29 135c1,3 1,6 3,9 0,1 1,3 3,5 1,2 3,2 6,2 1,0 4,0 8,-1 5,-1 10,-2 14,-3 5,-2 9,-3 14,-4 4,-1 6,-1 7,-1 1,0 1,1 2,2 0,1 0,3 -1,5l-3 7c-9,4 -19,8 -29,11 -10,2 -19,5 -28,7 -9,1 -16,2 -23,2 -6,1 -9,1 -10,1l-19 0c-6,0 -11,-1 -16,-3 -4,-3 -7,-7 -7,-15 0,-4 1,-13 3,-23 2,-12 4,-24 6,-39 3,-15 6,-30 9,-47 4,-17 8,-34 11,-50l-30 0 5 -16 28 0z"/>
   <path class="fil0" d="M2298 1886c-1,0 -3,-1 -4,-1 -2,0 -4,0 -6,0 -11,0 -19,4 -25,10 -5,6 -8,13 -8,21 0,7 1,15 4,23 2,8 4,16 7,23 3,8 5,16 7,25 2,8 3,16 3,24 0,6 0,12 -2,17 -2,7 -5,12 -9,16 -4,5 -9,9 -15,12 -8,3 -16,5 -26,5l-86 0 -3 0c-1,0 -1,0 -1,-1 0,-1 1,-3 3,-6 2,-3 3,-5 4,-7 14,1 25,-1 34,-6 9,-5 13,-14 13,-26 0,-6 -1,-13 -3,-21 -2,-7 -5,-15 -7,-23 -3,-8 -5,-16 -8,-24 -2,-8 -3,-15 -3,-22 0,-18 5,-32 16,-41 10,-9 24,-13 40,-13l82 -1c0,1 -1,2 -1,3 0,2 0,4 0,6 -1,1 -1,4 -2,7l-4 0z"/>
   <path class="fil0" d="M3296 1938c-3,2 -7,3 -10,3 -4,2 -9,2 -15,2 -1,4 -2,7 -3,10 -1,3 -3,6 -4,9 -1,3 -2,6 -3,8 -6,15 -15,29 -26,41 -10,12 -23,22 -37,30 -14,8 -29,15 -45,18 -16,5 -33,7 -50,7 -7,0 -13,-4 -16,-13 -3,-8 -5,-18 -6,-29 0,-10 -1,-21 0,-32 0,-10 1,-18 1,-22l-4 -1c-13,17 -25,31 -35,43 -10,11 -21,21 -31,29 -12,8 -25,14 -39,17 -14,4 -33,6 -57,7 -1,0 -2,-1 -4,-1 -2,-1 -3,-3 -2,-5 3,-11 6,-23 11,-35 3,-12 6,-24 9,-36 3,-12 6,-24 8,-36 2,-12 3,-24 3,-36 0,-7 -2,-14 -6,-19 -2,-1 -3,-2 -6,-2 -2,-1 -5,-1 -7,-1 -4,0 -6,0 -8,1 -2,0 -4,0 -4,0 0,0 0,0 0,0 0,-1 0,-2 -1,-4 7,-3 15,-6 23,-9 9,-2 19,-4 28,-6 10,-2 20,-4 29,-4 9,-1 17,-2 25,-2 5,0 8,1 8,2 1,1 2,3 3,5l-2 30c-2,18 -5,34 -9,49 -5,16 -8,32 -10,50 -1,3 0,5 2,7 3,2 5,2 8,1 5,-3 13,-9 22,-19 10,-10 19,-21 28,-34 9,-13 17,-26 23,-40 7,-14 11,-26 11,-37 1,-2 1,-4 2,-5 2,-2 4,-3 7,-4 1,0 5,1 11,0 6,0 12,0 19,-1 7,0 14,-1 20,-1 6,-1 9,-1 12,-2 3,1 5,2 6,3 0,1 0,3 -1,6 -3,17 -6,35 -11,54 -4,19 -6,36 -6,54 0,2 0,6 0,11 1,5 1,11 3,16 0,5 2,9 4,13 2,4 5,6 8,6 9,0 18,-3 24,-10 7,-7 13,-15 18,-24 4,-9 9,-19 11,-29 3,-10 5,-19 6,-25 -4,0 -7,0 -7,0 -1,0 -4,0 -8,1 -4,0 -7,-1 -8,-5 -1,-3 -2,-7 -2,-10 0,-4 1,-10 2,-15 1,-6 2,-11 4,-16 1,-6 3,-12 5,-19 0,-2 1,-5 2,-7 3,-1 4,-2 6,-3 4,-2 8,-3 13,-5 5,-1 10,-2 15,-3 6,-1 10,-2 15,-2 4,-1 8,-1 10,-1 3,0 6,0 9,1 2,1 4,3 4,7 0,9 -2,19 -5,30 -2,10 -5,20 -8,29l7 0c1,0 2,0 3,0 1,-1 3,-1 5,-1 1,0 4,-1 7,-1l1 6c0,3 -2,5 -5,6z"/>
   <path class="fil0" d="M3556 1881c0,18 -3,33 -10,43 -6,11 -15,20 -26,26 -9,7 -21,12 -32,15 -12,3 -23,6 -33,10 -10,3 -19,7 -26,12 -6,4 -10,10 -10,19 0,9 3,18 9,25 7,8 15,12 25,12 4,0 9,-1 16,-3 5,-1 12,-3 18,-5 7,-2 13,-5 19,-7 6,-2 11,-4 16,-5l5 9c0,1 -3,3 -7,5 -5,2 -10,5 -18,8 -7,2 -14,5 -23,8 -8,3 -17,6 -24,8 -9,3 -16,4 -23,6 -6,2 -11,2 -14,2 -12,0 -24,0 -33,-2 -9,-1 -17,-4 -24,-8 -6,-4 -11,-11 -14,-19 -4,-8 -6,-19 -6,-32 0,-10 1,-20 4,-30 2,-10 5,-20 8,-30 4,-10 8,-19 14,-28 5,-10 11,-18 19,-25 5,-6 14,-11 25,-14 12,-4 25,-7 38,-9 13,-2 28,-4 42,-4 15,-1 28,-1 40,-1 2,0 5,0 8,1 3,0 5,1 8,3 3,1 5,3 6,4 2,2 3,4 3,6zm-64 32c0,-6 -2,-12 -4,-18 -2,-7 -8,-9 -16,-9 -5,0 -10,3 -15,9 -5,6 -10,13 -14,22 -5,8 -8,17 -11,25 -3,8 -4,15 -4,19 0,3 1,4 3,5 3,1 5,1 7,1 7,0 14,-2 20,-5 7,-2 13,-7 17,-12 5,-5 9,-10 12,-17 3,-6 5,-13 5,-20z"/>
   <path class="fil0" d="M3849 2021c-1,4 0,7 1,9 2,3 4,5 8,6 3,2 5,4 9,5 3,1 5,3 7,4 -2,2 -7,5 -15,7 -8,2 -17,5 -27,6 -10,2 -20,4 -29,5 -9,2 -15,2 -19,2 -3,0 -6,-2 -7,-6 -1,-3 -2,-8 -3,-13 0,-4 0,-9 0,-14 0,-5 -1,-9 -1,-12 -7,5 -16,11 -27,16 -10,4 -22,9 -35,13 -12,4 -24,7 -36,10 -12,2 -23,4 -31,4 -12,0 -24,-3 -33,-8 -9,-5 -14,-15 -14,-29 0,-19 3,-38 10,-57 6,-19 15,-36 27,-51 12,-16 26,-28 43,-38 17,-10 35,-15 56,-15 5,0 12,0 20,1 8,1 18,2 27,3 10,1 20,2 30,3 10,1 19,2 28,2 9,0 17,0 24,0 7,-1 11,-2 15,-4l4 6 -32 145zm-52 -116c0,-6 -2,-11 -5,-15 -3,-3 -9,-5 -14,-5 -11,0 -21,4 -32,14 -11,9 -21,20 -31,33 -8,13 -16,26 -22,40 -6,14 -8,25 -8,34l0 8c1,3 1,6 2,9 2,3 3,5 5,7 2,2 5,3 9,3 6,0 13,-3 20,-7 7,-5 15,-11 22,-19 6,-8 14,-17 20,-26 7,-10 12,-19 17,-28 5,-10 10,-19 12,-27 4,-9 5,-16 5,-21z"/>
   <path class="fil0" d="M4124 1863c0,11 -3,21 -7,30 -3,10 -12,17 -24,24 -3,0 -5,0 -7,1 -2,1 -3,0 -3,-3 0,0 1,-1 1,-3 1,-2 2,-4 4,-6 1,-2 2,-4 3,-6 0,-2 1,-3 1,-4 0,-4 -1,-7 -2,-11 -1,-5 -2,-7 -5,-7 -4,0 -8,2 -11,6 -3,4 -7,9 -10,15 -2,6 -5,11 -7,17 -2,5 -3,9 -3,11 -4,14 -7,29 -9,44 -3,15 -6,29 -8,41 -2,12 -5,22 -6,31 -2,8 -3,13 -3,15 -2,0 -6,0 -14,0 -7,1 -14,1 -23,2 -8,0 -16,1 -22,2 -7,1 -11,1 -12,1 -4,1 -7,1 -8,1 -1,-1 -2,-1 -3,-2 -1,-1 -2,-2 0,-4 4,-23 8,-45 12,-66 2,-8 3,-17 6,-25 2,-9 3,-17 5,-25 1,-8 2,-14 4,-20 1,-6 2,-10 2,-13 1,-1 1,-3 2,-7 0,-3 -2,-7 -7,-9 -3,-2 -6,-1 -11,0 -4,2 -8,2 -10,2 -1,-1 -1,-2 0,-3 1,-1 1,-3 0,-5 1,0 5,-1 11,-4 7,-2 14,-4 23,-6 8,-2 17,-4 25,-6 9,-2 16,-3 22,-3 8,0 14,3 17,7 3,5 6,10 7,16 2,-4 5,-10 9,-15 4,-6 8,-11 13,-17 5,-5 10,-9 16,-12 5,-4 11,-6 17,-6 6,0 10,3 12,8 2,5 3,10 3,14z"/>
   <path class="fil0" d="M1358 1c-3,2 -4,3 -5,3 -1,1 -2,2 -3,4 -2,2 -4,6 -5,9 -1,3 -1,8 -1,13l0 55c0,7 0,12 -1,17 0,5 -1,9 -2,13 -1,4 -2,7 -3,10 -2,3 -4,6 -6,8 -5,6 -11,11 -19,13 -9,3 -18,5 -29,5 -2,0 -3,0 -5,0l-5 0c-2,-1 -3,-1 -5,-1 -2,0 -5,-1 -7,-1 -3,0 -5,-1 -7,-1 -2,0 -3,0 -4,0 -2,-1 -3,-1 -3,-1l-3 0c-2,0 -3,0 -5,1 -1,0 -3,1 -5,3l0 -44c3,3 7,5 10,7 3,2 7,4 11,6 4,1 8,3 12,3 4,1 9,2 12,2 19,0 28,-11 28,-32l0 -63c0,-8 -1,-15 -4,-19 -2,-4 -5,-7 -10,-10l64 0z"/>
   <path class="fil0" d="M1890 147c2,-2 3,-4 4,-6 2,-1 2,-3 2,-6 0,-3 -1,-7 -3,-10l-3 -8 -86 0 -2 5c-2,4 -3,8 -3,12 0,3 0,5 1,7 1,2 3,4 5,6l-56 0c1,-1 3,-3 4,-4 1,-2 2,-3 3,-4 1,-2 2,-3 2,-5 1,-1 2,-3 3,-5l59 -120c0,0 0,-1 1,-1l0 -1 0 -2c0,-1 0,-2 -1,-4l59 0c-1,2 -3,3 -3,4 0,1 2,3 2,5l51 112c2,2 3,4 4,6 1,2 2,4 3,5 1,3 2,5 4,7 1,2 3,5 5,7l-55 0zm-42 -124l-31 67 62 0 -31 -67z"/>
   <path class="fil0" d="M2501 147c2,-1 3,-2 4,-3 1,-1 2,-2 3,-3 3,-4 6,-11 6,-22l0 -94 -44 113 0 1c-1,0 -1,1 -1,2 -1,1 -1,2 -1,3 0,1 1,2 2,3l-42 0c1,-1 2,-2 2,-3 0,-1 0,-1 -1,-1l0 -1c0,-1 0,-1 0,-2l-45 -118 0 97c0,2 0,5 1,8 0,3 0,5 1,6 1,4 2,6 4,8 2,3 5,5 8,6l-59 0c2,-1 4,-2 5,-3 1,-1 2,-2 3,-3 4,-4 5,-11 5,-22l0 -89 0 -7c0,-3 -1,-5 -1,-7 -1,-3 -2,-6 -4,-8 -1,-2 -4,-4 -8,-7l76 0c-2,2 -2,3 -2,4 0,1 0,3 1,5l25 71c1,2 2,5 3,8 0,3 2,6 3,8 0,3 1,7 2,10 1,4 1,8 2,13 2,-5 3,-10 4,-14 1,-4 2,-7 3,-10 1,-3 1,-6 2,-8 1,-3 2,-5 3,-7l26 -71c1,-1 1,-2 1,-3l0 -1 0 -3c0,0 -1,-1 -2,-2l77 0c-2,2 -4,3 -5,4 -1,1 -2,2 -3,3 -3,4 -5,12 -5,22l0 89c0,2 0,5 0,8 1,2 1,5 2,6 0,3 1,6 3,8 2,2 5,4 8,6l-62 0z"/>
   <path class="fil0" d="M3130 138c-1,1 -1,2 -1,2l0 2c0,1 0,2 1,3 0,0 1,1 3,2l-161 0c6,-2 9,-5 12,-9 2,-5 3,-11 3,-18l0 -91c0,-2 -1,-5 -1,-7 0,-2 0,-5 -1,-7 -1,-3 -2,-5 -4,-7 -1,-2 -4,-4 -7,-7l156 0c-1,2 -2,3 -2,3 -1,1 -1,2 -1,3 0,1 0,1 1,2l0 3 9 27c-3,-1 -6,-3 -8,-4 -2,0 -4,-1 -7,-2 -2,-1 -4,-2 -6,-2 -3,-1 -5,-1 -7,-2 -5,-1 -9,-1 -13,-2 -4,0 -8,0 -13,0l-60 0 0 33 67 0c4,0 8,0 10,-1 3,0 5,-1 8,-2l-12 19c-3,6 -9,9 -18,9l-55 0 0 38 60 0c5,0 10,0 16,-1 5,-1 9,-1 14,-2 4,-1 7,-2 9,-2 3,-1 5,-2 7,-3 2,-1 5,-3 7,-4 2,-2 5,-4 8,-6l-14 33z"/>
   <path class="fil0" d="M3684 102c0,7 -2,13 -6,19 -3,7 -8,12 -14,16 -7,4 -14,8 -24,10 -8,3 -18,4 -29,4 -7,0 -17,-1 -30,-1 -3,-1 -6,-1 -9,-1 -3,-1 -5,-1 -6,-1 -2,0 -4,0 -5,-1l-2 0c-1,0 -3,1 -4,1 -1,0 -3,1 -4,2l-10 -43c2,1 3,2 4,2 0,1 1,1 2,1 3,2 6,3 8,4 3,1 5,2 7,3 2,1 5,1 7,2 2,1 5,2 8,2 10,3 21,4 32,4 24,0 35,-7 35,-19 0,-6 -2,-9 -6,-12 -4,-3 -10,-5 -19,-6l-17 -2c-21,-2 -35,-7 -45,-14 -10,-7 -14,-16 -14,-28 0,-7 2,-13 5,-19 3,-6 8,-10 14,-15 7,-3 15,-6 24,-8 9,-2 19,-4 30,-4 3,0 6,0 10,0 4,1 7,1 11,2l17 1c3,1 5,1 6,1 2,0 4,0 4,0 1,1 2,1 3,1l2 0c1,0 2,0 3,0 1,-1 2,-1 4,-2l-9 36c-1,-1 -1,-2 -2,-2 -1,-1 -4,-2 -6,-3 -7,-2 -15,-4 -23,-6 -8,-1 -16,-2 -23,-2 -10,0 -18,1 -24,4 -6,3 -9,7 -9,12 0,3 2,5 4,8 2,1 3,2 5,2 3,1 5,2 7,2 3,1 9,2 18,3 8,1 15,2 20,3 6,1 12,3 17,4 10,3 19,8 24,15 6,7 9,15 9,25z"/>
   <path class="fil0" d="M3006 1774c-4,-8 -9,-8 -18,-9 -16,-1 -28,2 -44,4 -34,4 -69,10 -104,15 -18,3 -35,6 -52,8 -9,1 -49,6 -49,6 0,0 -6,-8 -8,-10 -3,-3 -7,-5 -11,-5 -17,-2 -58,-2 -58,-2 0,0 -13,-6 -21,-10 -10,-3 -18,-9 -25,-17 -3,-5 -4,-9 -6,-15 -1,-7 -7,-11 -13,-15 -3,-2 -7,-5 -10,-8 -7,-6 -12,-13 -17,-21 -11,-13 -20,-27 -33,-38 -5,-6 -12,-11 -19,-15 -5,-2 -8,-3 -12,-5l0 0c-3,0 -5,0 -7,0 -2,-1 -4,-1 -5,-1l-3 0 -1 0 0 -4c0,-4 1,-12 -2,-16 0,0 -2,-2 -2,-3 15,3 28,-3 31,-5 3,-2 9,-9 -1,-9 -4,0 -24,0 -29,-4 6,-35 -39,-48 -63,-37 -15,6 -24,9 -30,25 -8,21 -7,37 3,57 4,7 15,35 27,30 -37,28 -26,59 -27,60 0,3 -1,13 -1,16 2,7 3,13 2,20 0,6 2,12 4,17 1,3 1,6 3,8 1,2 4,3 5,5 2,2 3,4 5,5 3,4 9,6 12,10 2,6 3,13 5,19 2,8 9,13 16,18 4,3 7,4 9,8 1,4 2,8 4,11 2,8 1,19 -1,28 -3,12 -3,30 1,42 2,5 3,8 3,13 0,3 -1,6 -1,10 0,1 1,9 0,10 -4,6 -5,15 -6,22 -1,4 -2,7 -3,10l0 9c-1,3 -1,6 -2,9 -1,3 -1,7 -2,11 -1,4 -1,9 -2,14 0,2 0,5 0,8 -2,1 -3,3 -3,5 1,1 2,2 2,3 0,1 -1,2 -1,4 -7,1 -7,8 -11,12 -5,4 -8,8 -14,12 -3,1 -4,4 -7,6 -2,3 -7,6 -9,10 -3,6 -5,16 -2,23 1,3 3,8 2,12 -1,8 -12,9 -18,12 -5,4 -10,9 -14,15 -8,13 -12,27 -20,40 -3,5 -6,9 -10,14 -2,1 -4,4 -6,5 -4,2 -4,0 -7,-1 -3,0 -6,1 -9,1 -7,-1 -12,11 -18,16 -7,4 -11,9 -16,15 -6,5 -11,12 -15,19 -2,5 -5,10 -7,16 -1,6 0,8 4,12 3,4 5,7 11,8 5,0 10,-1 13,-4 9,-9 19,-14 29,-20 8,-5 13,-13 21,-19 2,-3 5,-8 6,-11 2,-4 2,-4 4,-8 6,-6 14,-12 21,-17 15,-13 31,-25 50,-35 2,-1 3,-1 4,-2 2,-1 8,0 10,-1 3,0 7,0 11,-1 5,-1 12,-3 17,-6 10,-4 19,-11 26,-19 15,-17 21,-39 28,-59 6,-23 12,-46 21,-68 4,-8 9,-16 14,-23 5,-7 14,-21 23,-16 5,3 10,7 14,11 4,4 9,8 14,11 5,4 10,6 15,11 5,4 9,12 12,18 2,4 6,8 8,12 1,4 2,7 4,11 4,7 11,14 16,20 8,6 14,15 23,20 7,4 14,7 19,13 2,3 2,6 6,8 3,2 5,2 9,2 6,0 12,-2 17,2 3,2 5,5 8,7 8,8 17,15 25,23 8,7 17,15 24,22 4,3 9,7 13,11 3,3 3,7 2,11 0,2 -1,4 -1,6l0 5c0,5 -5,11 -3,17 1,2 4,4 6,5 2,2 5,2 6,4 6,6 8,16 14,23 6,6 12,12 18,16 7,3 13,4 19,2 8,-1 18,-5 23,-11 4,-7 -1,-13 -7,-17 -10,-8 -14,-19 -21,-31 -4,-8 -8,-15 -14,-21 -2,-3 -4,-5 -5,-8 -3,-4 -6,-8 -8,-13 -1,-2 -1,-4 -1,-6 -2,-3 -3,-5 -4,-7 -2,-5 -5,-10 -7,-14 -10,-18 -22,-34 -33,-51 -1,-3 -4,-6 -6,-9 -1,-3 0,-5 0,-8 0,-15 -8,-20 -16,-31 -2,-4 -7,-6 -9,-10 -1,-1 -1,-3 -1,-5 -1,-2 -2,-3 -3,-5 -3,-3 -5,-7 -8,-10 -6,-7 -11,-13 -17,-19 -12,-13 -24,-26 -36,-38 -23,-24 -45,-52 -51,-85 -10,-32 -51,-53 -49,-81 0,2 19,-5 20,-5 9,-2 12,6 20,6 2,0 2,5 0,5 -3,0 -4,5 -5,6 -1,2 0,6 2,8 3,2 5,1 8,2 5,2 7,7 12,8 4,1 7,2 9,1 5,-3 7,-4 12,-3 5,0 6,0 9,-3 3,-3 5,-5 10,-7 5,-2 8,-2 13,0 6,1 11,1 17,0 6,-2 12,1 18,0 5,-1 9,-12 9,-12 0,0 6,-1 9,-2 13,-1 27,-2 40,-3 35,-2 70,-3 105,-5 23,-2 45,-2 68,-4 12,0 31,0 36,-14 1,-5 4,-12 1,-18z"/>
  </g>
 </g>
</svg>
