<?xml version="1.0" encoding="UTF-8"?>
<!DOCTYPE svg PUBLIC "-//W3C//DTD SVG 1.1//EN" "http://www.w3.org/Graphics/SVG/1.1/DTD/svg11.dtd">
<!-- Creator: CorelDRAW X8 -->
<svg xmlns="http://www.w3.org/2000/svg" xml:space="preserve" width="25.3998mm" height="11.5146mm" version="1.1" style="shape-rendering:geometricPrecision; text-rendering:geometricPrecision; image-rendering:optimizeQuality; fill-rule:evenodd; clip-rule:evenodd"
viewBox="0 0 2540 1151"
 xmlns:xlink="http://www.w3.org/1999/xlink">
 <defs>
  <style type="text/css">
   <![CDATA[
    .fil0 {fill:#FEFEFE}
   ]]>
  </style>
 </defs>
 <g id="Warstwa_x0020_1">
  <metadata id="CorelCorpID_0Corel-Layer"/>
  <g id="_1087666224">
   <path class="fil0" d="M1461 364c-21,0 -41,5 -58,15 -16,11 -32,26 -42,42l-1 0c-15,-36 -44,-57 -91,-57 -42,0 -76,25 -97,55l-2 0 -6 -47 -96 0c2,39 4,79 4,124l0 288 110 0 0 -260c0,-12 2,-23 4,-31 8,-25 25,-37 41,-37 35,0 37,39 37,69l0 259 111 0 0 -261c0,-12 1,-23 3,-30 7,-23 22,-37 41,-37 33,0 38,38 38,84l0 244 110 0 0 -262c0,-99 -32,-158 -106,-158zm488 8l-119 0 -54 123c-6,17 -12,33 -20,57l-2 0 0 -351 -110 0 0 583 110 0 0 -134 19 -36 59 170 123 0 -106 -240 100 -172zm248 172l100 -172 -119 0 -54 123c-7,17 -12,33 -20,57l-2 0 0 -351 -110 0 0 583 110 0 0 -134 19 -36 59 170 123 0 -106 -240zm311 240l32 0 0 -168 -32 0 0 168zm-108 46l32 0 0 -56 0 0c3,5 10,12 20,12 20,0 38,-20 38,-62 0,-33 -11,-61 -36,-61 -12,0 -21,6 -25,16l-1 0 -2 -14 -27 0c0,12 1,23 1,38l0 127zm32 -121c0,-3 0,-7 1,-9 1,-6 6,-10 11,-10 9,0 15,12 15,35 0,18 -4,35 -16,35 -3,0 -7,-2 -10,-10 -1,-2 -2,-6 -2,-10l1 -31zm-70 77c12,0 19,-9 19,-22 0,-13 -8,-21 -18,-21 -10,0 -19,9 -19,21 0,13 9,22 18,22z"/>
   <path class="fil0" d="M2304 836c-6,0 -13,4 -19,13 0,-7 -4,-13 -12,-13 -7,0 -13,4 -19,13l0 0 1 -12 -10 0c0,6 -1,15 -3,26l-9 48 10 0 8 -41c3,-14 11,-24 17,-24 4,0 6,2 6,7 0,4 -1,7 -1,11l-9 47 11 0 7 -41c3,-14 11,-24 17,-24 5,0 6,2 6,7 0,4 0,7 -1,11l-9 47 11 0 9 -47c1,-5 2,-9 2,-13 0,-8 -4,-15 -13,-15zm-107 34c4,-16 11,-24 17,-24 5,0 7,2 7,8 0,12 -12,16 -24,16zm19 -34c-21,0 -32,30 -32,50 0,14 5,26 20,26 7,0 12,-2 18,-5l-2 -8c-3,2 -7,4 -13,4 -6,0 -10,-4 -11,-10 -2,-4 -1,-13 -1,-15 21,0 36,-7 36,-25 0,-9 -4,-17 -15,-17zm-28 0l-12 11 8 -41 -11 0 -9 49 -11 10 -2 10 11 -9 -9 45 11 0 10 -54 12 -10 2 -11zm-72 22c0,7 4,14 9,18 4,4 8,8 8,14 0,7 -5,13 -12,13 -6,0 -9,-2 -12,-4l-3 9c2,1 8,4 14,4 13,0 24,-8 24,-24 0,-7 -5,-14 -11,-19 -3,-3 -6,-7 -6,-12 0,-7 4,-12 11,-12 3,0 7,1 9,2l3 -8c-2,-2 -7,-3 -12,-3 -13,0 -22,10 -22,22zm-15 -21l-16 41c-2,7 -4,12 -6,19l0 0c-1,-8 -1,-12 -1,-19l-2 -41 -12 0 7 69c0,2 0,3 -1,4 -2,6 -7,13 -12,16 -3,4 -7,6 -11,7l5 10c3,-1 7,-4 11,-8 10,-8 18,-22 24,-38l25 -60 -11 0zm-48 14c0,-8 -4,-15 -12,-15 -7,0 -14,4 -19,13 -1,-7 -5,-13 -12,-13 -7,0 -14,4 -19,13l-1 0 2 -12 -10 0c-1,6 -2,15 -4,26l-9 48 11 0 8 -41c2,-14 10,-24 17,-24 4,0 5,2 5,7 0,4 0,7 -1,11l-9 47 11 0 8 -41c3,-14 10,-24 17,-24 4,0 6,2 6,7 0,4 0,7 -1,11l-9 47 11 0 9 -47c1,-5 1,-9 1,-13zm-118 52c-8,0 -8,-9 -8,-17 0,-14 7,-41 19,-41 6,0 8,7 8,15 0,12 -6,43 -19,43zm13 -67c-22,0 -33,31 -33,51 0,13 5,25 18,25 23,0 32,-33 32,-52 0,-10 -2,-24 -17,-24zm-74 67c-2,0 -5,-1 -7,-3l6 -28c2,-14 10,-26 17,-26 6,0 7,6 7,13 0,11 -6,44 -23,44zm21 -67c-7,0 -14,6 -19,13l0 0 1 -12 -9 0c-1,7 -2,16 -4,26l-15 77 11 0 6 -30 0 0c2,1 6,2 9,2 22,0 33,-32 33,-55 0,-11 -2,-21 -13,-21zm-99 11l26 0 -1 0c-3,4 -5,7 -10,14l-28 43 -1 7 40 0 2 -10 -29 0 0 0c3,-3 5,-6 10,-14l29 -42 1 -8 -37 0 -2 10zm-54 31c-2,7 -5,12 -6,19l-1 0c0,-8 0,-12 0,-19l-3 -41 -11 0 6 69c1,2 0,3 0,4 -2,6 -7,13 -12,16 -4,4 -8,6 -11,7l4 10c3,-1 7,-4 12,-8 10,-8 17,-22 24,-38l25 -60 -12 0 -15 41zm-50 19c0,-2 0,-5 1,-9l7 -42 14 0 2 -9 -14 0 4 -17 -13 5 -2 12 -9 0 -1 9 9 0 -8 42c-2,6 -2,9 -2,12 0,7 5,12 12,12 3,0 6,0 8,-1l1 -9c-1,0 -3,0 -4,0 -4,0 -5,-2 -5,-5zm-52 -27c4,-16 11,-24 17,-24 5,0 7,2 7,8 0,12 -12,16 -24,16zm19 -34c-21,0 -32,30 -32,50 0,14 5,26 20,26 7,0 12,-2 18,-5l-2 -8c-3,2 -7,4 -13,4 -6,0 -10,-4 -11,-10 -2,-4 -1,-13 -1,-15 21,0 36,-7 36,-25 0,-9 -4,-17 -15,-17zm-70 65c3,-3 5,-6 10,-14l29 -42 1 -8 -37 0 -2 10 25 0 0 0c-3,4 -5,7 -10,14l-29 43 -1 7 40 0 2 -10 -28 0 0 0zm23 -75c5,0 7,-4 7,-8 0,-3 -2,-6 -6,-6 -4,0 -7,3 -7,7 0,4 3,7 6,7zm-52 55c-3,15 -10,22 -16,22 -6,0 -8,-6 -8,-15 0,-15 9,-43 23,-43 3,0 5,2 7,3l-6 33zm14 -75l-6 33c-2,-2 -5,-3 -8,-3 -22,0 -35,29 -35,54 0,13 6,22 15,22 7,0 14,-5 18,-13l0 0 -1 12 9 0c1,-7 2,-18 4,-26l15 -79 -11 0zm-70 67c-3,15 -11,30 -19,30 -5,0 -7,-6 -6,-15 0,-16 9,-43 26,-43 1,0 3,0 4,1l-5 27zm-36 18c0,14 5,21 13,21 6,0 12,-3 19,-15l1 0c-1,6 -1,10 -1,14l10 0c0,-8 1,-21 3,-30l8 -42c-3,-2 -8,-3 -13,-3 -28,0 -40,33 -40,55zm-23 -12c-2,10 -8,23 -17,23 -6,0 -7,-7 -7,-16 0,-15 9,-41 24,-41 3,0 5,1 6,2l-6 32zm-35 11c0,14 6,21 14,21 5,0 11,-2 18,-12l0 0 -3 11c-2,14 -7,22 -18,22 -4,0 -9,-2 -12,-3l-3 9c3,2 9,3 14,3 8,0 15,-2 20,-8 5,-5 8,-14 11,-30l12 -63c-4,-2 -10,-4 -15,-4 -27,0 -38,32 -38,54zm-28 -79c-4,0 -7,4 -7,8 0,4 2,7 6,7 4,0 7,-3 7,-8 1,-4 -1,-7 -6,-7zm-23 100l11 0 14 -74 -11 0 -14 74zm-59 -64l26 0 -1 0c-3,4 -4,7 -9,14l-29 43 -1 7 40 0 2 -10 -28 0 0 0c2,-3 4,-6 9,-14l29 -42 1 -8 -37 0 -2 10zm23 -21c4,0 7,-4 7,-8 0,-3 -2,-6 -6,-6 -4,0 -7,3 -7,7 0,4 2,7 6,7zm-50 20c5,0 7,2 7,8 0,12 -12,16 -24,16 4,-16 11,-24 17,-24zm17 7c0,-9 -4,-17 -15,-17 -21,0 -32,30 -32,50 0,14 5,26 20,26 7,0 12,-2 18,-5l-2 -8c-3,2 -7,4 -13,4 -6,0 -10,-4 -11,-10 -2,-4 -1,-13 -1,-15 21,0 36,-7 36,-25zm-77 58l11 0 14 -74 -11 0 -14 74zm24 -100c-4,0 -7,4 -7,8 0,4 1,7 5,7 4,0 8,-3 8,-8 0,-4 -2,-7 -6,-7zm-61 90c3,-3 5,-6 10,-14l29 -42 1 -8 -37 0 -2 10 26 0 -1 0c-3,4 -5,7 -10,14l-29 43 0 7 40 0 2 -10 -29 0 0 0zm-29 -20c-3,15 -10,22 -15,22 -6,0 -8,-6 -8,-15 0,-15 8,-43 22,-43 3,0 6,2 7,3l-6 33zm14 -75l-6 33c-2,-2 -5,-3 -8,-3 -21,0 -34,29 -34,54 0,13 5,22 14,22 8,0 14,-5 18,-13l0 0 -1 12 10 0c0,-7 2,-18 3,-26l15 -79 -11 0zm-85 97c-8,0 -8,-9 -8,-17 0,-14 7,-41 19,-41 7,0 8,7 8,15 0,12 -6,43 -19,43zm13 -67c-22,0 -32,31 -32,51 0,13 4,25 17,25 23,0 32,-33 32,-52 0,-10 -2,-24 -17,-24z"/>
   <path class="fil0" d="M437 423c12,-71 70,-141 171,-163 100,-22 209,35 230,130 1,7 3,15 5,24l0 -163c0,-53 -44,-97 -97,-97l-649 0c-54,0 -97,44 -97,97l0 8 42 -9 162 747 542 0c53,0 97,-43 97,-97l0 -32 -18 4c0,0 -43,-204 -83,-388 -48,-221 -286,-83 -257,51 21,99 85,392 85,392l-120 26c0,0 -48,-223 -91,-421 -43,-198 -231,-8 -231,-8 0,0 -16,-76 -19,-92 -4,-16 183,-207 328,-9zm-437 187l0 290c0,54 43,97 97,97l6 0c-14,-23 -32,-62 -46,-123 -10,-45 -33,-153 -57,-264z"/>
   <polygon class="fil0" points="956,2 944,2 944,1150 956,1150 "/>
  </g>
 </g>
</svg>

