<?xml version="1.0" encoding="UTF-8"?>
<!DOCTYPE svg PUBLIC "-//W3C//DTD SVG 1.1//EN" "http://www.w3.org/Graphics/SVG/1.1/DTD/svg11.dtd">
<!-- Creator: CorelDRAW X7 -->
<svg xmlns="http://www.w3.org/2000/svg" xml:space="preserve" width="148.3mm" height="131.2mm" version="1.1" style="shape-rendering:geometricPrecision; text-rendering:geometricPrecision; image-rendering:optimizeQuality; fill-rule:evenodd; clip-rule:evenodd"
viewBox="0 0 14830 13120"
 xmlns:xlink="http://www.w3.org/1999/xlink">
 <defs>
  <style type="text/css">
   <![CDATA[
    .fil1 {fill:#FEFEFE}
    .fil0 {fill:#FEFEFE;fill-rule:nonzero}
   ]]>
  </style>
 </defs>
 <g id="Warstwa_x0020_1">
  <metadata id="CorelCorpID_0Corel-Layer"/>
  <g id="_2312397970544">
   <path class="fil0" d="M8522 10983l-952 0 0 -183 983 0 -31 183zm1560 -2765l248 -3305 0 0 0 -4 0 0c0,0 0,0 0,0l0 -2 205 -2732 5 -71 -71 0 -1281 0 -66 0 0 66 0 516c0,25 -10,48 -27,64 -16,17 -39,27 -65,27 -25,0 -48,-10 -65,-27 -16,-16 -26,-39 -26,-64l0 -516 0 -66 -66 0 -1967 0 -66 0 0 66 0 516c0,25 -10,48 -26,64 -17,17 -40,27 -65,27 -25,0 -48,-10 -65,-27 -16,-16 -26,-39 -26,-64l0 -516 0 -66 -66 0 -1233 0 -59 0 -6 59 -561 5083 -177 -64 571 -5180 0 0c3,-23 14,-43 30,-58 16,-14 37,-23 61,-23l1374 0 66 0 0 -66 0 -625c0,-339 138,-647 361,-870 223,-223 531,-362 871,-362 57,0 112,4 166,11 55,8 109,19 161,33l18 5 17 -5c53,-14 106,-25 161,-33 54,-7 109,-11 167,-11 339,0 647,139 870,362 223,223 361,531 361,870l0 625 0 66 67 0 1460 0c24,0 45,9 62,24 16,15 27,36 29,60l0 0 584 6811 -183 5 -571 -6657 -5 -60 -60 0 -409 0 -62 0 -4 61 -206 2749 -1 3 1 5 184 3938 -183 8 -64 -1362 -50 -1083 -81 1081 -66 872c-56,-60 -171,-158 -171,-158l0 0zm248 -3309l0 0 0 0 0 0 0 0zm-1142 -2988l375 0 66 0 0 -66 0 -625c0,-255 -92,-490 -244,-672 -155,-185 -372,-316 -620,-360l-228 -41 173 154c129,115 233,257 305,417 68,153 107,323 107,502l0 625 0 66 66 0zm-1592 0l1277 0 66 0 0 -66 0 -625c0,-221 -69,-426 -187,-596 -120,-174 -293,-311 -494,-386l-23 -9 -23 9c-202,75 -374,212 -495,386 -118,170 -187,375 -187,596l0 625 0 66 66 0zm-690 0l375 0 67 0 0 -66 0 -625c0,-179 38,-349 106,-502 72,-160 177,-302 305,-417l174 -154 -229 41c-247,44 -465,175 -620,360 -152,182 -244,417 -244,672l0 625 0 66 66 0z"/>
   <g>
    <path class="fil1" d="M2695 6671l-3 5327c0,111 128,119 234,156l852 302c224,80 957,371 1138,379l-4 -5392 -2217 -772zm4882 -176c34,237 12,1897 12,2277 0,260 40,2181 -34,2252 -191,185 -186,-228 -186,-329 4,-1277 27,-2794 -1,-4021 -122,3 -2020,682 -2231,779l-3 5390c103,-3 2106,-712 2235,-788 0,-281 -62,-753 141,-692 147,44 67,812 67,812 -58,126 -1956,749 -2272,863 -251,91 -232,118 -500,23l-1859 -664c-144,-51 -321,-147 -459,-103 -357,112 -2259,871 -2397,792 -87,-101 -82,-132 -81,-319l0 -4883c0,-635 -113,-551 533,-786 169,-62 233,-56 226,139 -134,87 -355,140 -529,208l-6 5390c190,-11 923,-302 1138,-379 145,-52 1068,-340 1096,-429l0 -5366c-296,62 -730,248 -1028,355 -85,30 -504,199 -385,-61 33,-73 1427,-552 1479,-562 109,-19 1772,597 2010,683 593,214 433,188 1026,-19l1506 -537c219,-79 345,-179 502,-25z"/>
    <path class="fil1" d="M3397 7903l2 1017 10 201 800 273 2 -119 1 -977 -4 -126 -811 -269zm1038 306l0 1214c0,389 -341,178 -849,-3 -505,-180 -408,-63 -411,-915 -4,-1055 -130,-976 905,-613 222,77 355,59 355,317z"/>
    <path class="fil1" d="M2163 8894c-101,51 -1482,618 -1573,527 -183,-182 480,-347 738,-444 163,-61 300,-111 454,-168 172,-65 401,-221 381,85z"/>
    <path class="fil1" d="M2905 10018l0 -120c153,-98 508,94 800,204 182,68 782,249 801,364 44,264 -510,-18 -781,-119 -209,-78 -688,-227 -820,-329z"/>
    <path class="fil1" d="M4494 11546c-161,73 -980,-292 -1271,-401 -106,-39 -398,-99 -305,-253 79,-130 1032,287 1277,379 173,64 346,54 299,275z"/>
    <path class="fil1" d="M2169 9837c-91,131 -631,285 -812,353 -97,36 -900,423 -788,102 30,-87 670,-296 808,-347 151,-56 285,-106 431,-161 147,-55 342,-186 361,53z"/>
    <path class="fil1" d="M5505 9190c-56,-211 94,-204 271,-270 143,-54 285,-107 430,-161 141,-53 782,-342 870,-248 139,148 -179,228 -265,259 -146,55 -278,104 -431,162 -201,75 -703,316 -875,258z"/>
    <path class="fil1" d="M7097 7646c-105,110 -1042,421 -1220,488 -174,66 -255,143 -386,40 -5,-187 128,-181 300,-245 264,-97 1115,-460 1278,-417l28 134z"/>
    <path class="fil1" d="M7104 8091c-40,116 -59,101 -177,144 -88,32 -168,62 -259,96 -97,37 -498,239 -465,2 15,-111 315,-184 442,-231 179,-66 394,-215 459,-11z"/>
    <path class="fil1" d="M2923 10363c93,-22 1053,211 840,420 -81,79 -402,-79 -505,-118 -197,-74 -405,-76 -335,-302z"/>
    <path class="fil1" d="M1304 9656c-83,-211 108,-216 296,-288 84,-31 445,-191 523,-147 316,177 -689,457 -819,435z"/>
    <path class="fil1" d="M2905 11497c-10,-259 162,-157 328,-93 109,41 387,113 426,198 155,341 -667,-39 -754,-105z"/>
    <path class="fil1" d="M6375 9384l-52 -79c27,-152 145,-151 307,-211 126,-48 292,-142 440,-103 96,196 -79,206 -244,267 -134,50 -310,142 -451,126z"/>
    <path class="fil1" d="M2166 10340c-63,82 -572,296 -733,254 -105,-203 122,-222 305,-291 151,-56 428,-235 428,37z"/>
    <path class="fil1" d="M6014 8535c-78,95 -324,205 -494,167 -85,-167 20,-188 177,-245 135,-50 313,-156 317,78z"/>
    <path class="fil1" d="M1091 9748c-93,136 -632,308 -521,43 5,-14 494,-362 521,-43z"/>
    <path class="fil1" d="M4193 10787c92,36 255,47 300,132 100,191 -118,166 -222,127 -540,-202 -241,-322 -78,-259z"/>
   </g>
   <path class="fil1" d="M8827 10536c6,-69 12,-139 17,-208 0,40 0,80 0,120 0,61 4,113 9,167 5,60 10,122 10,199 0,102 6,182 11,261 3,36 5,71 7,106 4,59 2,121 0,183 -1,62 -3,125 0,185l38 714 0 0c1,120 5,228 9,334 4,125 8,248 8,386l-281 0 54 -718 0 -1c1,-152 19,-385 38,-621 14,-175 28,-351 35,-498 2,-36 5,-57 9,-77 5,-27 9,-52 10,-107 0,-126 13,-274 26,-425zm4013 1052l-626 0 -55 -411 589 0c45,0 50,73 54,137 1,19 2,37 4,53 2,16 4,28 6,40 8,62 16,124 28,181zm-2346 0l-630 0c-1,-91 -16,-174 -30,-254 -9,-53 -18,-104 -23,-157l630 0c1,86 16,171 30,255 9,53 18,106 23,156zm-608 158l643 0c46,0 79,-9 99,-31 21,-22 28,-56 22,-107 -3,-30 -11,-73 -18,-116 -5,-34 -11,-67 -15,-94 -5,-36 -8,-75 -12,-113 -12,-138 -23,-265 -113,-265l-771 0c-57,0 -73,33 -73,77 0,23 5,49 10,73 1,7 2,13 3,21l0 0 83 524 1 11 12 1c24,2 39,6 53,9 20,5 39,10 76,10zm1782 -158l-630 0c-1,-77 -15,-151 -28,-224 -12,-64 -23,-126 -26,-187l631 0c1,91 16,174 30,255 9,52 18,104 23,156zm-644 158l679 0c95,0 121,-37 121,-104 0,-33 -6,-72 -15,-118 -6,-37 -14,-79 -19,-125 -2,-18 -3,-37 -5,-58 -12,-135 -29,-321 -119,-321l-771 0c-55,0 -74,39 -74,103 0,51 13,118 27,194 8,42 16,87 23,133 6,41 9,76 13,107 14,135 20,189 140,189zm774 796l-631 0c-1,-60 -7,-129 -15,-197 -10,-78 -23,-154 -37,-214l628 0c2,72 15,148 29,222 11,66 23,130 26,189zm-133 160c62,-1 117,-2 166,-2 47,0 80,-9 100,-31 21,-23 29,-57 24,-109 -3,-33 -12,-85 -20,-132 -5,-30 -10,-58 -13,-78 -4,-30 -7,-64 -10,-98 -12,-134 -25,-278 -118,-278l-752 0c-46,0 -69,20 -79,51 -9,27 -6,63 0,101l0 0 83 543 2 10 9 2c132,31 401,25 608,21zm1047 -2068l-626 0 -55 -411 589 0c44,0 49,73 53,137 2,19 3,37 5,53 2,16 4,28 5,40 8,62 17,124 29,181zm-642 158l642 0c118,0 154,-35 154,-127 0,-48 -10,-110 -25,-193 -11,-65 -24,-143 -36,-234 0,-6 -2,-18 -3,-29 -11,-91 -16,-130 -98,-145 -54,-10 -143,-8 -298,-4 -114,2 -263,6 -465,6 -25,0 -42,4 -53,16l-1 0c-11,11 -15,28 -15,53l0 1 0 1 69 554 0 1 1 1c9,38 19,62 38,78 20,15 47,21 90,21zm-1704 -158l-630 0c-2,-85 -16,-171 -31,-254 -9,-54 -18,-106 -23,-157l630 0c2,92 16,174 30,255 10,52 19,104 24,156zm-608 158l642 0c93,0 122,-48 122,-135 0,-55 -13,-127 -29,-213 -11,-62 -24,-133 -34,-209 0,-5 -2,-17 -3,-28 -11,-90 -16,-128 -97,-143 -54,-10 -143,-8 -298,-4 -114,2 -265,6 -468,6 -58,0 -73,33 -73,77 0,23 5,49 9,73 1,7 3,13 4,21 10,59 16,105 23,154l3 22c4,26 7,48 10,70 13,98 25,187 46,279l3 10 10 1c25,2 39,6 54,9 20,5 39,10 76,10zm4387 1750l-630 0c-2,-77 -15,-151 -29,-224 -11,-64 -23,-126 -26,-187l631 0c2,91 16,174 31,254 9,53 18,104 23,157zm-645 158l679 0c97,0 124,-40 124,-111 0,-36 -8,-80 -17,-131 -6,-33 -13,-68 -18,-106 -5,-38 -9,-76 -13,-112 -14,-143 -26,-266 -112,-266 -192,0 -337,-3 -450,-6 -170,-3 -266,-5 -321,6 -84,18 -77,60 -61,158 1,6 2,13 4,29 7,46 11,81 15,116 4,29 7,58 13,95 6,44 10,83 14,117 17,153 23,211 143,211zm-1962 -2066l-628 0c-2,-77 -15,-151 -29,-224 -11,-64 -23,-126 -26,-187l631 0c1,53 8,124 17,195 10,81 23,162 35,216zm-181 163c145,-4 278,-17 334,-43l8 -4 0 -9c0,-74 -16,-165 -31,-252 -6,-37 -12,-74 -17,-107 -7,-51 -10,-95 -13,-131 -8,-102 -12,-151 -81,-175 -59,-21 -165,-19 -370,-15 -108,2 -244,5 -420,5 -56,0 -74,40 -74,104 0,53 13,124 28,202 8,45 17,92 24,140 7,48 10,86 13,117 8,89 11,123 72,148 26,11 293,26 527,20zm1615 1745l-631 0c-2,-91 -16,-174 -30,-254 -9,-53 -19,-104 -24,-157l630 0c2,77 16,152 29,225 12,63 23,125 26,186zm-133 160c62,-1 118,-2 166,-2 42,0 73,-7 95,-25 22,-19 32,-49 29,-96 -1,-24 -11,-80 -20,-128 -5,-29 -9,-55 -11,-67 -8,-65 -13,-121 -18,-167 -12,-139 -18,-204 -90,-235 -59,-26 -164,-23 -361,-17 -118,4 -269,9 -468,9l-11 0 -3 11c-12,52 -8,152 4,262 17,160 50,340 70,423l2 9 8 2c132,31 401,25 608,21zm1173 -1114l-626 0c-3,-63 -14,-127 -26,-192 -13,-71 -27,-144 -28,-219l615 0c8,39 17,102 25,169 12,93 25,192 40,242zm-160 160c59,-1 114,-2 162,-2 119,0 155,-35 155,-124 0,-45 -11,-105 -25,-183 -12,-67 -26,-147 -39,-245 -1,-12 -2,-21 -3,-30 -11,-91 -15,-130 -97,-146 -54,-10 -143,-8 -299,-4 -113,2 -262,6 -462,6 -26,0 -42,4 -54,15 -12,12 -16,29 -16,54 0,62 17,218 38,360 18,123 40,237 55,270l3 6 7 2c132,31 379,25 575,21zm31 -1114l-625 0c-3,-63 -15,-127 -27,-192 -13,-71 -26,-144 -28,-219l616 0c8,39 16,103 25,169 12,93 25,192 39,242zm-159 160c59,-1 113,-2 162,-2 118,0 155,-35 155,-124 0,-45 -11,-105 -25,-183 -12,-67 -27,-147 -39,-245 -1,-12 -3,-21 -3,-30 -11,-91 -16,-130 -97,-146 -54,-10 -144,-8 -299,-4 -114,2 -263,6 -463,6 -18,0 -36,3 -48,12 -13,8 -21,21 -21,39 0,72 16,231 36,375 18,124 39,236 57,273l3 6 7 2c131,31 378,25 575,21zm-3102 1748l-589 0c-45,0 -50,-80 -54,-145 -1,-16 -2,-32 -3,-45 -2,-14 -3,-26 -4,-40 -6,-60 -13,-135 -28,-181l623 0 55 411zm-230 167c201,0 390,-15 390,-79 0,-98 -14,-184 -29,-275 -5,-28 -9,-57 -14,-88 -2,-13 -3,-30 -5,-50 -9,-97 -22,-243 -114,-243 -166,0 -295,-3 -400,-4 -216,-4 -329,-6 -385,16 -69,28 -59,81 -38,193 7,34 14,74 21,122 5,34 9,72 14,110 11,89 22,180 40,259l2 9 9 2c14,3 22,6 30,9 17,6 30,10 65,10 31,0 76,1 130,3 83,2 186,6 284,6zm1956 -960c218,7 534,18 646,-42l7 -4 0 -9c-1,-73 -18,-179 -33,-271 -5,-30 -10,-58 -14,-87 -8,-52 -11,-96 -14,-133 -9,-101 -13,-149 -82,-173 -58,-21 -164,-19 -368,-15 -108,2 -244,5 -420,5 -56,0 -75,45 -75,113l0 0c0,60 15,139 30,218 7,39 14,79 20,118 5,32 8,62 11,88 14,128 21,189 142,189 40,0 91,1 150,3zm-3888 -109c97,-534 196,-1081 233,-1344 -4,76 -11,150 -17,219 -6,69 -12,133 -15,188l0 0 -91 1413 0 0c-1,46 -5,66 -9,87 -4,19 -8,39 -10,78 -4,86 -10,168 -16,249 -10,148 -20,292 -21,453l-282 0c9,-134 117,-731 228,-1343zm898 1343l-265 0 -18 -354c0,-145 -5,-200 -11,-252 -3,-32 -6,-63 -8,-114 -1,-51 0,-106 2,-161 2,-77 4,-154 -2,-224l0 -6c-10,-111 -18,-206 -17,-343l0 0 -28 -1104c58,458 171,1241 227,1630 14,101 25,176 30,209 4,31 9,68 16,110 27,191 71,486 74,609zm-630 -2895c-3,0 -3,0 -3,-1 4,1 6,1 3,1zm5930 2895l-5142 0c-3,-85 -21,-201 -37,-298 -6,-35 -11,-69 -15,-97l-386 -2769 5160 0c1,111 17,207 33,308 5,29 9,58 14,92 12,76 20,141 29,206 8,64 16,128 26,197 19,131 36,252 52,374 19,137 38,274 58,415 21,138 38,266 55,394 18,130 36,261 56,395l97 783zm-443 -3303l-5158 0c-4,-61 -26,-237 -50,-406 -21,-152 -44,-299 -56,-353l1064 0c-11,43 -16,44 -35,49 -15,4 -37,10 -70,27 -47,24 -76,62 -88,104 -10,31 -10,64 -2,96 8,32 25,62 48,87 35,35 84,58 147,58 253,0 341,-264 382,-384 5,-15 9,-28 13,-37l685 0c-18,40 -52,54 -86,69 -55,24 -110,47 -110,154 0,55 14,98 37,129 26,34 63,55 104,63 41,8 87,5 133,-8 73,-22 147,-69 196,-135 60,-80 81,-147 99,-205 8,-24 15,-47 24,-67l686 0c-18,40 -53,54 -87,69 -55,24 -109,47 -109,154 0,96 39,155 99,181 32,14 69,19 109,15 39,-5 80,-17 121,-38 124,-63 240,-199 249,-381l700 0c-18,40 -52,54 -86,69 -56,24 -110,47 -110,154 0,97 39,155 98,181 32,14 70,19 110,14 38,-4 80,-17 120,-37 125,-64 241,-201 251,-381l467 0c4,64 26,246 50,417 20,148 42,288 55,342zm-4190 -1097c16,41 30,79 30,158l0 40 -99 0 0 -132c0,-30 6,-55 17,-76 9,-18 20,-32 34,-45 5,21 12,38 18,55zm2091 53c10,-42 27,-82 55,-108 6,21 12,39 18,55 16,45 30,84 31,198l-118 0c1,-45 3,-97 14,-145zm1083 0c10,-43 26,-82 55,-108 4,16 9,27 13,38 7,18 14,37 23,80 4,18 7,41 9,68 2,21 3,44 3,67l-117 0c0,-45 3,-97 14,-145zm-2061 145l-77 0c-9,0 -16,-2 -21,-7 -10,-9 -16,-26 -17,-46 -2,-23 1,-50 7,-78 11,-47 33,-94 59,-121 9,33 17,52 24,69 14,35 24,58 25,183zm-1100 324c68,-28 156,-65 156,-419 0,-142 -49,-248 -113,-297 -26,-19 -55,-30 -84,-30 -29,0 -58,11 -85,34 -62,53 -111,177 -113,388 -64,0 -79,-4 -79,-22 0,-9 2,-23 5,-39 3,-19 7,-41 9,-70 17,-177 85,-289 168,-337 35,-21 73,-30 111,-27 38,2 75,17 109,42 87,65 153,203 153,413 0,130 -24,250 -83,332 -48,66 -118,108 -217,112 5,-56 31,-67 63,-80zm1239 -417l0 0 0 -2c0,-142 -50,-248 -114,-297 -26,-19 -55,-30 -84,-30 -29,0 -58,11 -84,34 -63,53 -112,177 -114,388l-81 0c3,-244 76,-394 168,-459 36,-25 74,-37 112,-37 38,0 77,12 112,35 93,63 166,206 166,421 0,233 -80,435 -301,444l0 -63c220,-16 220,-277 220,-434zm912 424c74,-28 170,-64 170,-426 0,-140 -51,-246 -115,-295 -27,-20 -55,-31 -84,-31 -29,0 -58,10 -85,33 -61,53 -110,176 -112,388l-81 0c2,-118 23,-247 73,-343 40,-79 99,-137 181,-150 78,-12 141,18 188,72 43,49 74,118 92,196 19,78 25,164 19,248 -12,160 -70,308 -175,360 -86,43 -112,34 -119,20 -4,-8 -2,-18 -2,-19l0 0 0 0 0 -5 -1 -3c-4,-8 -9,-9 -15,-11 -1,0 0,2 -1,0l-1 0c-1,-1 7,0 25,-13 11,-10 26,-15 43,-21zm1253 -432l0 -12 0 0c0,-127 -52,-229 -117,-277 -27,-19 -55,-29 -84,-30 -29,0 -58,10 -84,33 -61,52 -109,173 -111,387l-81 0c3,-241 76,-392 169,-458 36,-25 74,-38 112,-38 39,0 77,12 112,36 93,64 165,211 165,438 0,75 -20,173 -57,256 -30,67 -72,124 -123,149 -87,43 -112,34 -119,20 -4,-8 -3,-18 -3,-19l0 0 0 0 1 -4 -2 -4c-2,-6 -6,-9 -11,-13 -1,-1 -2,-1 -2,-1 -1,-1 11,-6 69,-30 166,-68 166,-275 166,-433zm220 101l0 -132c0,-147 -53,-275 -132,-365 -51,-59 -113,-103 -180,-126 -67,-24 -138,-28 -206,-7 -78,24 -152,80 -210,175 -109,173 -109,266 -108,453l0 2 -247 0 0 -132c0,-149 -54,-279 -134,-370 -52,-57 -114,-100 -180,-123 -66,-23 -137,-25 -205,-4 -80,26 -156,85 -216,185 -48,81 -74,148 -87,218 -12,67 -14,137 -14,226l-243 0c35,-175 -20,-348 -117,-470 -46,-58 -103,-106 -164,-136 -61,-30 -127,-44 -193,-35 -96,13 -190,73 -264,197 -49,81 -74,148 -87,218 -13,67 -14,137 -14,226l-228 0c-3,-220 -62,-385 -148,-492 -54,-67 -117,-112 -184,-135 -67,-23 -137,-24 -204,-2 -83,27 -160,88 -218,185 -48,81 -73,148 -87,218 -12,67 -14,137 -14,226 -160,0 -284,-2 -382,-4 -183,-3 -280,-5 -335,11 -70,20 -75,62 -86,152 -3,24 -6,53 -11,84 -102,618 -214,1245 -326,1873 -103,577 -207,1154 -301,1720l0 0c-8,51 -20,104 -31,156 -20,91 -38,178 -38,241 0,66 19,108 76,108l6604 0c63,0 81,-36 81,-85 0,-28 -7,-60 -13,-92 -4,-17 -7,-34 -9,-49l0 0 -113 -824 0 0c-21,-147 -61,-445 -109,-807 -120,-906 -293,-2207 -355,-2472l-3 -12 -11 0 -554 0z"/>
  </g>
 </g>
</svg>
