<?xml version="1.0" encoding="UTF-8"?>
<!DOCTYPE svg PUBLIC "-//W3C//DTD SVG 1.1//EN" "http://www.w3.org/Graphics/SVG/1.1/DTD/svg11.dtd">
<!-- Creator: CorelDRAW X7 -->
<svg xmlns="http://www.w3.org/2000/svg" xml:space="preserve" width="81mm" height="71.7mm" version="1.1" style="shape-rendering:geometricPrecision; text-rendering:geometricPrecision; image-rendering:optimizeQuality; fill-rule:evenodd; clip-rule:evenodd"
viewBox="0 0 8100 7170"
 xmlns:xlink="http://www.w3.org/1999/xlink">
 <defs>
  <style type="text/css">
   <![CDATA[
    .fil1 {fill:#2B4B71}
    .fil0 {fill:#2B4B71;fill-rule:nonzero}
   ]]>
  </style>
 </defs>
 <g id="Warstwa_x0020_1">
  <metadata id="CorelCorpID_0Corel-Layer"/>
  <g id="_2312403057392">
   <path class="fil0" d="M4655 6001l-520 0 0 -99 537 0 -17 99zm852 -1510l135 -1806 0 0 1 -2 0 0c0,0 0,0 0,0l0 -1 112 -1493 3 -39 -39 0 -700 0 -37 0 0 36 0 282c0,14 -5,27 -14,35 -9,9 -22,15 -36,15 -13,0 -26,-6 -35,-15 -9,-9 -14,-21 -14,-35l0 -282 0 -36 -36 0 -1075 0 -36 0 0 36 0 282c0,14 -6,27 -15,35 -9,9 -21,15 -35,15 -14,0 -26,-6 -35,-15 -9,-9 -15,-21 -15,-35l0 -282 0 -36 -36 0 -673 0 -33 0 -3 32 -306 2778 -97 -35 312 -2830 0 0c1,-13 7,-24 16,-32 9,-8 21,-12 34,-12l750 0 36 0 0 -37 0 -341c0,-185 76,-354 198,-476 121,-122 290,-197 475,-197 32,0 62,2 91,6 30,4 60,10 88,18l10 3 9 -3c29,-8 58,-14 89,-18 29,-4 59,-6 90,-6 186,0 354,76 476,197 122,122 197,291 197,476l0 341 0 37 36 0 798 0c13,0 25,4 34,13 9,8 15,19 16,32l0 0 319 3722 -100 2 -312 -3637 -2 -33 -34 0 -223 0 -33 0 -3 34 -113 1502 0 1 0 3 101 2151 -100 5 -35 -744 -27 -592 -45 591 -35 476c-31,-33 -94,-86 -94,-86l0 0zm136 -1808l0 0 0 0 0 0 0 0zm-624 -1632l204 0 37 0 0 -37 0 -341c0,-139 -51,-268 -134,-367 -84,-101 -203,-173 -338,-197l-125 -23 94 85c71,63 128,140 167,228 38,83 58,176 58,274l0 341 0 37 37 0zm-870 0l698 0 36 0 0 -37 0 -341c0,-121 -38,-233 -102,-326 -66,-95 -160,-169 -271,-211l-12 -4 -13 4c-110,42 -204,116 -270,211 -64,93 -102,205 -102,326l0 341 0 37 36 0zm-377 0l205 0 36 0 0 -37 0 -341c0,-98 21,-191 59,-274 39,-88 96,-165 166,-228l95 -85 -125 23c-135,24 -254,96 -339,197 -83,99 -133,228 -133,367l0 341 0 37 36 0z"/>
   <g>
    <path class="fil1" d="M1471 3646l-2 2910c0,61 70,65 128,85l466 166c122,43 523,202 622,207l-3 -2947 -1211 -421zm2668 -96c18,129 6,1036 6,1243 0,143 22,1192 -18,1231 -105,101 -102,-125 -102,-180 2,-698 14,-1527 -1,-2197 -67,2 -1103,373 -1218,426l-2 2945c56,-2 1150,-389 1221,-431 0,-153 -34,-411 77,-378 80,24 36,444 36,444 -31,68 -1068,409 -1241,471 -137,50 -127,65 -273,13l-1016 -363c-79,-28 -175,-80 -251,-56 -194,61 -1234,476 -1309,433 -48,-56 -45,-73 -44,-175l0 -2668c0,-347 -62,-301 291,-429 92,-34 127,-31 123,76 -73,47 -193,76 -289,113l-3 2946c104,-7 505,-166 622,-208 79,-28 584,-185 599,-234l0 -2932c-162,34 -399,136 -562,194 -47,17 -275,109 -211,-33 19,-40 780,-302 808,-307 60,-10 969,326 1099,373 324,117 237,103 560,-11l823 -293c120,-43 189,-98 275,-13z"/>
    <path class="fil1" d="M1855 4319l1 555 5 110 437 150 2 -66 0 -533 -2 -69 -443 -147zm567 167l0 663c0,213 -186,98 -464,-1 -276,-99 -223,-35 -225,-500 -2,-577 -71,-534 495,-335 121,42 194,32 194,173z"/>
    <path class="fil1" d="M1180 4860c-55,28 -809,338 -859,288 -100,-100 262,-190 403,-242 89,-34 164,-61 248,-92 94,-35 220,-121 208,46z"/>
    <path class="fil1" d="M1586 5475l0 -67c84,-53 277,52 437,112 100,38 427,136 438,199 23,144 -279,-10 -427,-65 -114,-43 -376,-124 -448,-179z"/>
    <path class="fil1" d="M2454 6309c-88,40 -535,-159 -695,-219 -57,-21 -217,-54 -166,-138 43,-71 564,157 698,207 94,35 189,30 163,150z"/>
    <path class="fil1" d="M1184 5375c-50,72 -345,156 -444,193 -53,20 -491,231 -431,56 17,-48 366,-162 442,-190 83,-30 156,-57 236,-87 80,-31 186,-102 197,28z"/>
    <path class="fil1" d="M3006 5022c-30,-115 52,-111 148,-148 79,-29 156,-58 236,-88 76,-28 427,-186 475,-135 76,81 -98,124 -145,142 -80,30 -152,56 -236,88 -109,41 -384,173 -478,141z"/>
    <path class="fil1" d="M3876 4178c-57,61 -569,230 -666,267 -96,36 -140,78 -211,22 -3,-102 70,-99 164,-134 144,-53 609,-251 698,-228l15 73z"/>
    <path class="fil1" d="M3880 4421c-22,64 -32,55 -97,79 -48,18 -91,34 -141,53 -53,20 -272,130 -254,1 8,-61 172,-101 241,-126 98,-36 216,-118 251,-7z"/>
    <path class="fil1" d="M1596 5663c51,-12 575,115 459,229 -45,44 -220,-43 -276,-64 -108,-41 -221,-42 -183,-165z"/>
    <path class="fil1" d="M711 5277c-45,-116 59,-119 162,-158 46,-17 243,-104 286,-80 172,97 -377,250 -448,238z"/>
    <path class="fil1" d="M1586 6283c-5,-142 88,-86 179,-52 60,23 212,62 233,109 85,186 -365,-22 -412,-57z"/>
    <path class="fil1" d="M3482 5128l-29 -43c15,-83 80,-83 168,-116 69,-26 159,-77 240,-56 53,107 -43,113 -133,146 -73,27 -169,77 -246,69z"/>
    <path class="fil1" d="M1182 5650c-34,45 -313,162 -401,139 -57,-111 67,-121 168,-159 82,-31 233,-128 233,20z"/>
    <path class="fil1" d="M3285 4664c-43,52 -178,112 -271,91 -46,-91 12,-102 97,-134 74,-27 172,-85 174,43z"/>
    <path class="fil1" d="M595 5327c-51,74 -346,168 -285,23 3,-7 270,-198 285,-23z"/>
    <path class="fil1" d="M2289 5895c51,19 140,25 165,72 54,104 -65,90 -122,69 -295,-110 -132,-176 -43,-141z"/>
   </g>
   <path class="fil1" d="M4822 5758c3,-38 6,-77 9,-114 0,21 0,43 0,65 0,34 2,62 5,92 2,32 5,66 5,108 0,56 3,100 6,143 2,19 3,39 4,58 2,32 1,66 0,100 -1,34 -2,68 0,101l21 390 0 0c0,65 2,124 4,182 3,69 5,136 5,211l-154 0 30 -392 0 -1c1,-82 11,-210 21,-339 7,-95 15,-192 19,-272 1,-19 3,-31 5,-42 2,-15 5,-29 5,-58 1,-69 7,-150 15,-232zm2192 574l-342 0 -30 -224 322 0c24,0 27,39 29,74 1,11 1,21 3,29 1,9 2,16 2,22 5,34 9,68 16,99zm-1282 0l-344 0c-1,-50 -9,-95 -16,-139 -5,-28 -10,-57 -13,-85l344 0c1,46 9,93 17,139 5,29 10,58 12,85zm-332 86l351 0c25,0 43,-4 55,-16 11,-13 15,-31 12,-59 -2,-16 -6,-40 -10,-63 -3,-19 -6,-37 -8,-52 -3,-19 -5,-41 -7,-62 -7,-75 -13,-144 -62,-144l-421 0c-31,0 -40,18 -40,42 0,13 3,27 5,40 1,3 2,7 2,11l0 0 45 287 1 6 6 0c14,1 22,3 30,5 11,3 21,5 41,5zm974 -86l-344 0c-1,-42 -9,-83 -16,-122 -6,-35 -13,-69 -14,-102l345 0c0,50 8,94 16,139 5,28 10,56 13,85zm-352 86l371 0c51,0 66,-20 66,-57 0,-17 -4,-39 -8,-64 -4,-20 -8,-43 -10,-68 -2,-10 -3,-21 -4,-32 -6,-74 -15,-175 -64,-175l-421 0c-31,0 -41,21 -41,56 0,28 7,65 14,106 5,23 9,47 13,73 3,22 5,41 7,58 8,74 11,103 77,103zm423 435l-345 0c-1,-33 -4,-70 -8,-107 -6,-43 -13,-84 -20,-117l343 0c1,39 8,80 15,121 7,36 13,71 15,103zm-73 88c34,-1 64,-2 91,-2 25,0 43,-4 55,-17 11,-12 15,-31 12,-59 -1,-18 -6,-46 -11,-72 -2,-16 -5,-32 -7,-43 -2,-16 -4,-34 -5,-53 -7,-73 -14,-152 -64,-152l-411 0c-26,0 -38,11 -44,28 -4,15 -3,34 1,55l-1 0 46 297 1 5 5 1c72,17 219,14 332,12zm572 -1130l-342 0 -30 -225 322 0c24,0 27,40 29,75 1,10 1,20 2,29 2,9 2,15 3,22 5,34 9,68 16,99zm-351 86l351 0c64,0 84,-19 84,-69 0,-26 -5,-61 -13,-106 -6,-35 -14,-78 -20,-128 0,-3 -1,-9 -2,-15 -6,-50 -8,-71 -53,-80 -30,-5 -78,-4 -163,-2 -62,1 -144,3 -254,3 -14,0 -23,3 -29,9l0 0c-7,6 -9,16 -9,29l0 1 0 0 38 303 0 0 0 1c5,21 11,34 21,43 11,8 26,11 49,11zm-931 -86l-344 0c-1,-47 -9,-94 -17,-139 -5,-29 -10,-58 -12,-86l344 0c1,50 9,95 16,139 5,29 10,57 13,86zm-332 86l351 0c51,0 67,-26 67,-73 0,-31 -8,-70 -16,-117 -6,-34 -13,-72 -19,-114 0,-3 -1,-10 -2,-16 -6,-49 -8,-69 -53,-78 -29,-5 -78,-4 -162,-2 -63,1 -145,3 -256,3 -32,0 -40,19 -40,43 0,12 3,26 5,40 1,3 1,7 2,11 6,32 9,57 13,84l1 12c2,14 4,26 6,38 7,54 13,103 25,153l2 6 5 0c14,1 22,3 29,5 11,3 22,5 42,5zm2397 956l-344 0c-1,-42 -9,-82 -16,-122 -6,-35 -13,-69 -14,-102l345 0c0,50 8,95 16,139 5,28 10,57 13,85zm-352 86l371 0c52,0 67,-21 67,-60 0,-20 -4,-44 -9,-72 -3,-17 -7,-37 -10,-58 -3,-20 -5,-41 -7,-61 -7,-78 -14,-145 -61,-145 -105,0 -184,-2 -246,-3 -93,-2 -146,-3 -175,3 -46,10 -42,33 -34,86 1,4 1,8 3,16 3,25 6,44 8,64 2,15 4,31 7,51 3,25 5,46 7,64 10,84 13,115 79,115zm-1073 -1128l-343 0c0,-42 -8,-83 -15,-123 -7,-34 -13,-68 -14,-102l344 0c1,29 5,68 9,107 6,44 13,88 19,118zm-98 89c79,-2 151,-9 182,-24l4 -2 0 -5c0,-40 -8,-90 -16,-137 -4,-21 -7,-41 -9,-59 -4,-28 -6,-52 -8,-71 -4,-56 -6,-83 -44,-96 -32,-11 -90,-10 -202,-8 -59,1 -133,2 -230,2 -30,0 -40,22 -40,58 0,28 7,67 15,110 5,24 9,50 13,76 4,27 6,47 7,64 5,49 6,67 40,81 14,6 160,14 288,11zm882 953l-345 0c-1,-50 -8,-94 -16,-139 -5,-28 -10,-56 -13,-85l344 0c1,42 9,83 16,122 6,35 12,69 14,102zm-72 88c33,-1 64,-2 90,-2 23,0 40,-3 52,-13 12,-11 17,-27 16,-53 -1,-12 -6,-43 -11,-69 -3,-16 -5,-30 -6,-37 -5,-36 -7,-66 -10,-91 -6,-76 -10,-112 -49,-129 -33,-14 -90,-12 -197,-9 -65,2 -147,5 -256,5l-6 0 -2 6c-6,29 -4,83 3,143 9,87 27,186 38,231l1 5 4 1c73,17 219,14 333,12zm640 -609l-342 0c-1,-34 -8,-69 -14,-105 -7,-39 -15,-79 -15,-119l336 0c4,21 9,56 14,92 6,51 13,105 21,132zm-87 88c32,-1 62,-2 88,-2 65,0 85,-19 85,-67 0,-25 -6,-58 -13,-100 -7,-37 -15,-81 -22,-134 0,-7 -1,-12 -2,-16 -5,-50 -8,-72 -53,-80 -29,-6 -78,-5 -163,-3 -62,2 -143,4 -252,4 -14,0 -23,2 -30,8 -6,7 -8,16 -8,30 0,33 9,118 20,196 10,68 22,130 30,148l2 3 4 1c72,17 207,14 314,12zm17 -609l-342 0c-1,-35 -8,-69 -14,-105 -7,-39 -15,-79 -16,-120l337 0c4,22 9,56 13,93 7,51 14,105 22,132zm-87 87c32,0 62,-1 88,-1 65,0 85,-19 85,-67 0,-25 -6,-58 -14,-100 -6,-37 -14,-81 -21,-134 -1,-7 -1,-12 -2,-17 -6,-50 -8,-71 -53,-79 -29,-6 -78,-5 -163,-3 -62,1 -143,3 -253,3 -10,0 -19,2 -26,7 -7,5 -12,12 -12,21 0,39 9,127 20,205 10,68 22,129 31,150l2 3 4 1c72,17 206,14 314,11zm-1695 955l-322 0c-24,0 -27,-43 -29,-79 -1,-9 -1,-17 -2,-25 -1,-7 -1,-14 -2,-21 -3,-33 -7,-74 -15,-99l340 0 30 224zm-125 91c109,0 212,-8 212,-43 0,-53 -7,-100 -15,-150 -3,-15 -5,-31 -8,-48 -1,-7 -2,-17 -3,-27 -4,-53 -11,-133 -62,-133 -90,0 -161,-1 -219,-2 -118,-2 -179,-3 -210,9 -37,15 -32,44 -20,105 3,19 7,41 11,67 3,18 5,39 8,60 5,48 11,98 22,141l1 5 4 1c8,2 13,4 17,5 9,3 16,5 35,5 17,0 42,1 71,2 46,2 102,3 156,3zm1068 -524c119,4 292,10 353,-23l4 -2 0 -5c-1,-40 -10,-98 -18,-148 -3,-17 -5,-32 -8,-48 -4,-28 -6,-52 -8,-72 -4,-55 -6,-82 -44,-95 -32,-11 -90,-10 -201,-8 -59,1 -133,3 -230,3 -30,0 -40,24 -40,62l0 0c0,32 7,75 15,119 4,21 8,43 11,64 3,18 5,34 6,48 8,70 12,103 78,103 22,0 50,1 82,2zm-2124 -59c53,-292 107,-591 127,-735 -2,41 -6,82 -9,120 -4,38 -7,72 -8,103l0 0 -50 772 0 0c-1,25 -3,36 -5,47 -2,10 -4,21 -5,43 -3,46 -6,92 -9,136 -6,81 -11,159 -11,247l-155 0c5,-73 64,-399 125,-733zm491 733l-145 0 -10 -193c0,-80 -3,-110 -6,-138 -2,-17 -3,-34 -4,-62 -1,-28 0,-58 1,-88 1,-42 2,-84 -1,-123l-1 -3c-5,-60 -9,-112 -9,-187l0 0 -15 -603c32,250 93,678 124,890 8,55 14,96 16,115 3,16 6,37 9,60 15,104 39,265 41,332zm-345 -1581c-1,0 -1,-1 -1,-1 2,1 3,1 1,1zm3240 1581l-2809 0c-1,-46 -12,-110 -20,-162 -4,-20 -7,-38 -9,-53l-211 -1513 2820 0c1,60 9,113 18,168 2,16 5,32 8,50 6,42 10,77 15,113 5,34 9,70 15,107 10,72 19,138 28,205 10,75 21,149 32,226 11,76 20,146 30,215 10,72 19,143 30,216l53 428zm-242 -1804l-2818 0c-2,-34 -14,-130 -27,-222 -12,-83 -24,-163 -31,-193l581 0c-6,24 -8,24 -19,27 -8,2 -20,5 -38,14 -26,13 -41,34 -48,57 -5,17 -5,36 -1,53 5,17 13,34 26,47 19,19 46,32 80,32 138,0 187,-144 209,-210 3,-8 5,-15 7,-20l375 0c-10,22 -29,30 -47,38 -31,13 -60,25 -60,84 0,30 7,53 20,70 14,19 34,30 57,35 22,4 47,2 72,-5 40,-12 80,-37 107,-73 33,-44 45,-81 54,-113 5,-13 8,-25 13,-36l375 0c-10,22 -28,30 -47,38 -30,13 -60,25 -60,84 0,52 22,84 54,99 18,8 38,10 60,8 21,-3 44,-10 66,-21 68,-34 131,-109 136,-208l382 0c-9,22 -28,30 -47,38 -30,13 -60,25 -60,84 0,53 22,84 54,99 18,8 38,10 60,8 21,-3 44,-10 65,-21 69,-35 132,-110 138,-208l255 0c2,35 14,134 27,228 11,80 23,157 30,187zm-2289 -600c9,23 17,44 17,87l0 22 -55 0 0 -73c0,-16 4,-30 10,-41 4,-10 11,-18 18,-25 3,12 7,21 10,30zm1143 29c5,-23 14,-44 29,-59 4,12 7,21 10,30 9,25 17,46 17,109l-64 0c0,-25 2,-54 8,-80zm591 0c5,-23 15,-44 30,-59 2,9 5,15 7,21 4,10 8,20 13,44 2,9 4,22 5,37 1,11 1,24 2,37l-65 0c1,-25 2,-54 8,-80zm-1126 80l-42 0c-5,0 -9,-2 -12,-4 -5,-5 -8,-14 -9,-26 -1,-12 1,-27 4,-42 6,-26 18,-51 32,-66 5,18 10,28 13,38 8,19 14,31 14,100zm-601 177c37,-16 86,-36 86,-230 0,-77 -28,-135 -63,-161 -14,-11 -30,-17 -45,-17 -16,0 -32,6 -46,18 -35,30 -62,97 -63,213 -34,-1 -43,-3 -43,-12 0,-6 1,-13 3,-22 2,-10 4,-22 5,-38 9,-97 47,-158 92,-184 19,-12 40,-16 60,-15 21,1 41,9 60,23 48,36 84,111 84,226 0,70 -14,136 -46,181 -26,36 -64,59 -118,61 3,-30 17,-36 34,-43zm677 -228l0 0 0 -2c0,-77 -27,-135 -62,-161 -14,-11 -30,-17 -46,-17 -16,0 -32,6 -46,18 -34,30 -61,97 -62,213l-45 0c2,-134 42,-216 92,-251 20,-14 41,-21 62,-21 20,0 41,7 61,20 51,34 90,112 90,230 0,127 -43,237 -164,242l0 -34c120,-9 120,-152 120,-237zm498 231c41,-15 93,-35 93,-233 0,-76 -27,-134 -63,-161 -14,-11 -30,-17 -46,-17 -16,0 -31,6 -46,19 -33,29 -60,96 -61,212l-44 0c1,-65 12,-135 39,-188 22,-43 54,-75 99,-82 43,-6 77,10 103,40 23,26 40,64 50,106 11,43 14,90 11,136 -7,88 -38,168 -96,197 -47,23 -61,18 -65,10 -2,-4 -1,-9 -1,-10l0 0 0 0 0 -2 -1 -2c-2,-4 -5,-5 -8,-6 0,0 0,1 -1,0l0 0c0,-1 4,0 14,-7 6,-5 14,-9 23,-12zm685 -236l0 -7 0 0c0,-69 -28,-124 -64,-150 -15,-11 -30,-17 -46,-17 -16,0 -32,6 -46,18 -33,28 -59,94 -61,212l-44 0c2,-132 42,-215 93,-251 19,-14 40,-21 61,-21 21,0 42,7 61,20 51,35 90,115 90,240 0,40 -11,94 -31,139 -17,37 -39,68 -67,82 -48,23 -62,18 -65,10 -3,-4 -2,-9 -2,-10l0 0 0 0 1 -2 -1 -2c-2,-3 -4,-5 -6,-7 -1,-1 -1,0 -2,-1 0,0 7,-3 38,-16 91,-37 91,-150 91,-237zm120 56l0 -73c0,-80 -29,-150 -72,-199 -28,-32 -62,-56 -98,-69 -37,-13 -76,-15 -113,-3 -43,13 -83,43 -115,95 -59,95 -59,145 -59,248l0 1 -134 0 0 -73c0,-81 -30,-152 -74,-202 -28,-31 -62,-54 -98,-67 -36,-12 -75,-14 -112,-2 -44,14 -85,46 -118,101 -27,44 -40,81 -48,119 -6,37 -7,75 -7,124l-133 0c19,-96 -11,-191 -64,-257 -25,-32 -56,-58 -89,-75 -34,-16 -70,-24 -106,-19 -52,7 -104,40 -144,108 -27,44 -41,81 -48,119 -7,37 -8,75 -8,124l-124 0c-2,-120 -34,-211 -81,-270 -29,-36 -64,-60 -100,-73 -37,-13 -75,-13 -112,-1 -45,15 -87,48 -119,101 -26,44 -40,81 -47,119 -7,37 -8,75 -8,124 -88,0 -155,-2 -209,-3 -100,-1 -153,-2 -183,6 -38,11 -41,34 -47,83 -2,14 -3,29 -6,46 -56,338 -117,681 -178,1023 -57,316 -113,631 -164,940l0 0c-5,28 -11,57 -17,85 -11,50 -21,98 -21,132 0,36 10,59 41,59l3608 0c35,0 44,-19 44,-46 0,-16 -3,-33 -7,-51 -1,-9 -3,-18 -4,-27l0 0 -62 -449 0 0c-11,-81 -33,-244 -59,-441 -66,-496 -161,-1206 -195,-1351l-1 -6 -6 0 -303 0z"/>
  </g>
 </g>
</svg>
