<?xml version="1.0" encoding="utf-8"?>
<!-- Generator: Adobe Illustrator 27.5.0, SVG Export Plug-In . SVG Version: 6.00 Build 0)  -->
<svg version="1.1" xmlns="http://www.w3.org/2000/svg" xmlns:xlink="http://www.w3.org/1999/xlink" x="0px" y="0px"
	 viewBox="0 0 706.964 500" style="enable-background:new 0 0 706.964 500;" xml:space="preserve">
<g id="BACKGROUND">
	<rect style="fill:#FFFFFF;" width="706.964" height="500"/>
</g>
<g id="OBJECTS">
	<g>
		<path style="fill:#DCE0FA;" d="M467.984,450.538c-80.63,6.69-161.911,4.078-242.865,1.453
			c-14.849-0.481-29.697-0.963-44.546-1.444c-21.109-0.684-42.783-1.488-62.216-9.761c-34.736-14.787-43.789-53.148-48.594-87.213
			c-10.084-71.495-7.675-144.736,7.085-215.414c1.692-8.103,3.566-16.236,6.968-23.783c3.254-7.219,7.852-13.769,12.98-19.802
			c34.207-40.242,81.394-44.175,130.117-48.932c58.84-5.744,118.062-4.269,177.069-2.812c41.584,1.027,83.619,2.115,123.833,12.753
			c24.104,6.377,47.957,16.59,65.369,34.436c9.194,9.424,16.308,20.688,22.397,32.362c27.377,52.488,28.726,112.074,28.776,169.92
			c0.043,50.412-7.223,99.899-53.679,129.337c-25.438,16.12-56.068,21.551-85.965,25.17
			C492.488,448.289,480.244,449.521,467.984,450.538z"/>
		<polygon style="fill:#A295DB;" points="471.081,320.059 292.204,320.059 292.204,73.236 392.042,75.609 471.081,165.795 		"/>
		<polygon style="fill:#D7D3F1;" points="455.96,301.108 304.551,301.108 304.299,88.329 388.807,90.338 455.96,170.533 		"/>
		<rect x="384.235" y="194.931" style="fill:#8477D9;" width="126.288" height="38.078"/>
		<g>
			<rect x="332.724" y="121.576" style="fill:#162D52;" width="55.185" height="28.041"/>
			<rect x="337.257" y="121.576" style="fill:#55B4D8;" width="35.296" height="28.041"/>
			<g>
				<rect x="374.215" y="141.413" style="fill:#EF1400;" width="3.12" height="3.12"/>
				<rect x="374.215" y="136.56" style="fill:#D7D3F1;" width="3.12" height="3.12"/>
				<rect x="374.215" y="131.706" style="fill:#55B4D8;" width="3.12" height="3.12"/>
				<rect x="378.837" y="141.413" style="fill:#EF1400;" width="3.12" height="3.12"/>
				<rect x="378.837" y="136.56" style="fill:#D7D3F1;" width="3.12" height="3.12"/>
				<rect x="378.837" y="131.706" style="fill:#55B4D8;" width="3.12" height="3.12"/>
				<rect x="383.459" y="141.413" style="fill:#EF1400;" width="3.12" height="3.12"/>
				<rect x="383.459" y="136.56" style="fill:#D7D3F1;" width="3.12" height="3.12"/>
				<rect x="383.459" y="131.706" style="fill:#55B4D8;" width="3.12" height="3.12"/>
			</g>
			<g>
				<circle style="fill:#EF1400;" cx="375.573" cy="126.33" r="1.672"/>
				<circle style="fill:#EF1400;" cx="380.397" cy="126.33" r="1.672"/>
				<circle style="fill:#EF1400;" cx="385.221" cy="126.33" r="1.672"/>
			</g>
			<rect x="339.568" y="124.08" style="fill:none;stroke:#162D52;stroke-miterlimit:10;" width="30.532" height="22.874"/>
		</g>
		<rect x="300.534" y="194.931" style="fill:#A295DB;" width="77.795" height="38.078"/>
		<rect x="300.534" y="245.312" style="fill:#B6AEEB;" width="77.795" height="87.539"/>
		<g>
			<path style="fill:#050504;" d="M323.413,354.085c-0.06,1.538,1.126,2.819,2.662,2.912c5.839,0.354,11.7,0.362,17.54,0.026
				c1.922-0.111,7.755,0.376,8.986-1.199c1.393-1.785-0.557-4.869-1.976-6.076c-2.184-1.856-5.782-2.936-8.481-3.745
				c-1.691-0.507-3.533-0.964-4.679-2.307c-0.778-0.912-1.12-2.116-1.304-3.301c-0.387-2.494-0.165-5.056-0.591-7.544
				s-1.712-5.061-4.053-6.005c-1.72-0.693-3.793-0.336-5.247,0.814c-3.171,2.509-2.476,8.917-2.595,12.624
				C323.529,344.884,323.593,349.488,323.413,354.085z"/>
			<path style="fill:#050504;" d="M286.774,332.097c-0.835-3.538-3.714-8.801-7.141-4.855c-1.097,1.263-1.431,2.994-1.767,4.632
				c-0.694,3.391-1.842,6.101-3.082,9.221c-1.265,3.182-1.496,7.148-1.994,10.521c-0.261,1.767-0.336,3.926,1.133,4.944
				c0.735,0.509,1.678,0.578,2.571,0.629c2.197,0.127,4.394,0.254,6.591,0.381c1.357,0.078,2.808,0.135,3.971-0.569
				c0.893-0.541,1.482-1.455,2.039-2.337c1.136-1.797,2.285-3.624,2.885-5.664s0.588-4.356-0.517-6.172
				c-0.953-1.566-2.775-2.254-3.628-3.849c-0.84-1.571-0.691-3.82-0.834-5.532C286.967,333.049,286.89,332.589,286.774,332.097z"/>
			<g id="XMLID_115_">
				<path id="XMLID_116_" style="fill:#EF1400;" d="M240.674,169.962c0.154-0.133,0.311-0.263,0.468-0.391
					c11.537-9.466,24.922-19.381,41.203-21.746c2.424-0.352,5.204-0.445,7.025,0.969c7.466,5.801-5.212,15.393-9.168,19.112
					c-3.577,3.364-19.494,9.915-22.294,12.229c-4.021,3.324-8.165,1.591-13.332,0.843c-1.532-0.222-3.162-0.484-4.29-1.4
					c-1.67-1.356-1.643-3.602-1.496-5.569c0.066-0.882,0.139-1.789,0.586-2.586C239.689,170.87,240.164,170.401,240.674,169.962z"/>
			</g>
			<g id="XMLID_209_">
				<path style="fill:#EB7CB8;" d="M270.003,188.439c3.524,1.182,6.694,3.391,10.029,4.754c2.19,0.895,2.08,3.367,1.276,5.246
					c-1.118,2.615-4.745,3.499-6.925,1.634c-0.501-0.428-0.926-0.944-1.251-1.517c-0.224-0.395-0.415-0.833-0.78-1.104
					c-0.202-0.15-0.444-0.236-0.683-0.316c-0.899-0.301-1.816-0.545-2.746-0.731c-2.87-0.573-1.614-1.593-0.636-3.39
					C268.467,192.684,270.334,188.55,270.003,188.439z"/>
			</g>
			<g id="XMLID_219_">
				<path id="XMLID_114_" style="fill:#EF1400;" d="M247.707,169.238c0.341,0.073,0.678,0.155,1.007,0.246
					c4.531,1.246,9.523,4.388,12.62,7.951c1.674,1.926,3.416,3.779,5.246,5.603c0.648,0.646,6.21,5.405,6.013,5.994
					c-1.414,3.564-3.23,6.969-5.401,10.129c-8.115-2.903-14.244-7.88-20.98-12.997c-3.947-2.998-11.834-9.641-6.602-14.87
					C241.834,169.07,244.513,168.559,247.707,169.238z"/>
			</g>
			<g id="XMLID_110_">
				<path style="fill:#EB7CB8;" d="M286.377,154.088c-0.385-0.755-0.436-1.653-0.472-2.51c-0.295-7.124-0.352-14.258-0.17-21.387
					c0.051-1.991,0.126-4.586,1.48-6.2c1.248-1.488,3.316-1.265,5.068-1.814c2.972-0.932,6.295-1.205,9.238-0.017
					c1.024,0.413,1.953,1.026,2.096,2.175c0.299,2.407,0.59,4.817,0.871,7.199c0.444,3.771-0.639,5.539-4.217,6.588
					c-0.161,0.047-0.331,0.1-0.443,0.225c-0.142,0.159-0.154,0.391-0.159,0.604c-0.093,4.254,0.201,8.639-0.155,12.874
					c-0.304,3.623-4.867,3.967-7.834,4.105c-1.888,0.088-4.135-0.004-5.158-1.593C286.469,154.257,286.421,154.173,286.377,154.088z
					"/>
			</g>
			<g id="XMLID_101_">
				<path style="fill:#396BC5;" d="M269.969,237.247c-0.757,6.24-1.24,12.516-1.767,18.778c-1.508,17.93-2.63,35.405-1.352,53.418
					c0.37,5.22,0.339,11.05,1.65,16.128c0.982,3.803,1.894,8.388,4.58,11.426c3.678,4.16,9.171,3.936,13.871,2.023
					c5.299-2.157,6.241-6.238,6.782-11.814c1.623-16.736,3.246-33.471,4.869-50.207c1.558-16.069,4.032-31.801,6.851-47.707
					c1.165-6.571,2.326-13.352,0.86-19.863c-2.315-10.281-10.457-14.083-20.285-14.614c-5.346-0.289-7.408,4.011-8.513,8.697
					c-2.012,8.53-4.856,16.757-6.343,25.42C270.697,231.695,270.306,234.467,269.969,237.247z"/>
			</g>
			<g id="XMLID_95_">
				<path style="fill:#396BC5;" d="M307.618,259.172c8.451,20.608,10.365,43.013,10.776,65.871
					c0.069,3.843,0.146,7.935,2.275,11.136c2.758,4.148,15.233,8.178,18.875,3.228c0.925-1.258,1.124-2.891,1.293-4.443
					c2.856-26.258,7.668-53.546-0.62-79.301c-4.624-14.367-12.029-27.448-18.359-41.017c-1.403-3.007-2.612-6.132-3.371-9.367
					c-0.631-2.688-0.055-6.229-0.931-8.712c-1.427-4.043-7.184-5.751-10.996-5.059c-3.543,0.644-7.197,0.426-10.718,1.493
					c-9.436,2.86-10.518,15.767-9.605,23.658c1.158,10.021,6.861,16.8,12.198,24.979
					C302.135,247.308,305.154,253.164,307.618,259.172z"/>
			</g>
			<g id="XMLID_91_">
				<path style="fill:#EF1400;" d="M319.639,194.017c0.362,4.073,0.087,8.202-0.821,12.189c-13.335,1.397-26.677-1.797-39.706-4.966
					c-0.055-2.189-0.093-4.827-0.818-6.914c-0.548-1.578-1.572-2.5-2.343-3.992c-1.441-2.789-1.264-6.103-1.052-9.235
					c0.124-1.826,0.247-3.651,0.371-5.477c0.092-1.353,0.534-3.122,0.094-4.43c-0.73-2.174-2.82-3.811-4.811-4.716
					c-2.362-1.074-5.268-1.897-6.743-4.215c-1.519-2.387-0.731-5.482,1.198-7.641c1.929-2.159,4.798-3.544,7.688-4.671
					c9.25-3.605,19.59-5.134,29.716-4.396c9.185,0.67,14.934,3.156,16.556,11.156c0.882,4.347,1.181,8.81,0.887,13.237
					c0,3.744-1.688,6.555-2.171,10.032c-0.408,2.938,0.64,6.499,1.248,9.351C319.264,190.876,319.499,192.442,319.639,194.017z"/>
			</g>
			<path style="fill:#EB7CB8;" d="M361.741,156.408c1.884-2.113,3.808-4.211,5.591-6.382c1.842-2.242,4.293-4.057,6.108-6.322
				c0.162-0.202,0.321-0.414,0.546-0.566c0.225-0.153,0.536-0.238,0.804-0.15c0.482,0.158,0.534,0.73,0.398,1.156
				c-0.237,0.737-0.796,1.548-1.373,2.128c-0.545,0.548-1.207,1.131-1.572,1.779c0.759,0.337,1.656,0.358,2.44,0.815
				c2.317,1.353,2.717,3.759,1.23,5.796c-0.796,1.091-2.061,2.158-3.354,2.819c-0.965,0.493-2.808,0.609-3.474,1.413
				c-1.877,2.271-4.055,7.103-8.335,5.361c-1.167-0.475-1.995-1.511-2.089-2.614c-0.128-1.502,0.982-2.852,2.038-4.056
				C361.044,157.192,361.392,156.8,361.741,156.408z"/>
			<g id="XMLID_53_">
				<defs>
					<path id="SVGID_1_" d="M281.591,153.79c0.424-3.316,0.778-13.861,1.117-15.891c-0.149-0.693,0.318-3.393,0.325-4.089
						c0.04-3.985,0.988-7.549,5.195-9.394c4.17-1.829,9.586-1.163,12.568,2.069c0.063,0.068,0.116,0.142,0.177,0.212
						c1.41,1.06,2.51,2.454,3.13,4.039c1.305,3.338,0.578,8.041-2.033,10.667c0.811,3.239,1.655,7.494,2.257,9.197
						c0.32,0.905,1.457,2.131,0.941,3.076c-3.505,6.419-12.796,6.919-19.489,4.194C282.699,156.616,281.146,157.268,281.591,153.79z
						"/>
				</defs>
				<clipPath id="SVGID_00000148619987367984739100000001069896407660887199_">
					<use xlink:href="#SVGID_1_"  style="overflow:visible;"/>
				</clipPath>
			</g>
			<g id="XMLID_51_">
				<path style="fill:#EF1400;" d="M332.025,164.139c-1.926-2.515-3.942-4.979-6.045-7.387c-3.774-4.322-9.703-9.625-16.319-10.217
					c-8.036-0.72-14.006,6.41-12.532,13.033c1.869,8.401,14.618,18.908,20.988,25.211c5.208,5.154,10.946,10.183,18.221,12.947
					c5.305,2.015,8.748-0.584,8.948-5.276c0.305-7.165-3.374-13.995-7.502-20.233C335.966,169.472,334.045,166.777,332.025,164.139z
					"/>
				<path style="fill:#EF1400;" d="M360.225,156.065c-4.465,3.236-14.009,11.047-15.217,11.97
					c-5.411,4.134-10.349,8.453-12.928,14.429c-1.604,3.717-1.819,8.078,0.533,11.49c2.261,3.281,7.96,5.749,11.899,3.376
					c4.676-2.817,7.114-8.51,10.134-12.48c3.896-5.123,7.738-10.154,10.904-15.653c0.811-1.409,2.83-4.047,3.766-6.219
					C366.271,160.687,363.101,158.512,360.225,156.065z"/>
			</g>
			<g id="XMLID_220_">
				<path style="fill:#EB7CB8;" d="M276.96,203.285c-1.36-1.179-2.121-4.132-1.551-5.846c0.298-0.895,1.284-1.634,2.171-1.313
					c0.773,0.28,1.111,1.188,1.211,2.004c0.069,0.566-0.254,3.488,0.219,3.884c0.335,0.281,0.56,0.468,0.784,0.604
					c-0.009,0.021-0.016,0.043-0.025,0.064c0.089,0.09,0.174,0.186,0.254,0.29c0.296,0.387,0.499,0.846,0.58,1.303
					c0.1,0.563-0.166,1.136-0.862,1.3c-0.583,0.137-1.417-0.17-1.518-0.738c-0.057-0.321-0.123-0.51-0.281-0.73
					C277.648,203.895,277.363,203.635,276.96,203.285z"/>
			</g>
			<path style="fill:none;stroke:#050504;stroke-width:0.5;stroke-miterlimit:10;" d="M338.541,173.755
				c0.337,1.708,0.462,3.457,0.371,5.195"/>
			<path style="fill:#050504;" d="M315.136,182.611c1.037,0.754,2.083,1.494,3.119,2.249c0.027-0.114,0.009-0.239-0.068-0.329
				l-5.157-10.876c-0.279,2.165-0.618,4.324-1.024,6.469C313.02,181.034,314.03,181.808,315.136,182.611z"/>
			<g id="XMLID_58_">
				<path id="XMLID_59_" style="fill:#050504;" d="M288.033,140.721c-0.858-0.109-1.667-0.393-2.31-0.966
					c-0.701-0.624-1.107-1.511-1.418-2.397c-0.738-2.106-0.766-4.14-1.105-6.277c-0.346-2.175-0.008-4.198,1.251-6.052
					c1.376-2.028,3.465-3.465,5.633-4.607c2.614-1.376,5.417-2.394,8.308-3.004c1.362-0.287,2.805-0.48,4.125-0.038
					c1.32,0.442,2.463,1.691,2.351,3.079c-0.084,1.037-0.811,1.896-1.535,2.643c-1.298,1.339-2.451,2.364-3.377,3.98
					c-0.774,1.352-1.181,2.86-1.55,4.361c-0.726,2.952-1.36,6.261-4.146,7.995c-1.141,0.71-2.478,1.039-3.809,1.224
					C289.662,140.772,288.826,140.821,288.033,140.721z"/>
			</g>
			<path style="fill:#050504;" d="M265.126,175.32c0.439,0.052,0.877,0.108,1.314,0.165c-0.813,0.424-1.714,0.792-2.479,1.297
				c-0.659,0.436-1.286,0.9-2.031,1.21c-0.486-0.525-1.373-0.899-2.011-1.214c-0.508-0.251-1.04-0.479-1.59-0.619
				c-0.236-0.06-1.175-0.242-1.368-0.131c1.459-0.668,3.081-0.917,4.686-0.935C262.811,175.079,263.97,175.184,265.126,175.32z"/>
			<path style="fill:#EB7CB8;" d="M306.25,130.535c-0.802,0.494-1.796,0.589-2.717,0.558c-0.438-0.014-0.888-0.05-1.322-0.096
				c-0.403-0.043-0.499-0.464-0.426-0.811c0.184-0.873,0.457-1.726,0.811-2.545c0.177-0.409,0.375-0.809,0.592-1.199
				c0.111-0.2,0.25-0.39,0.352-0.594c0.067-0.135,0.074-0.288,0.147-0.418c0.463,1.575,0.876,3.364,2.507,4.152
				C306.585,129.771,306.618,130.308,306.25,130.535z"/>
			<path style="fill:none;stroke:#050504;stroke-width:0.5;stroke-miterlimit:10;" d="M302.496,247.895
				c-2.533-5.321-5.066-10.641-7.599-15.962c-2.209-0.23-4.38-0.832-6.391-1.775"/>
			<path style="fill:#EB7CB8;" d="M300.523,131.475c0,1.532-1.242,2.773-2.773,2.773c-1.532,0-2.773-1.242-2.773-2.773
				c0-1.532,1.242-2.773,2.773-2.773C299.282,128.702,300.523,129.944,300.523,131.475z"/>
			<ellipse style="fill:#050504;" cx="280.764" cy="120.613" rx="7.511" ry="7.627"/>
		</g>
		<g>
			<polygon style="fill:#6F94DE;" points="300.303,405.379 177.357,405.379 213.032,378.384 335.978,378.384 			"/>
			<polygon style="fill:#FFFFFF;" points="300.303,401.821 177.357,401.821 213.032,374.826 335.978,374.826 			"/>
			<polygon style="fill:#ED5151;" points="299.626,397.248 176.679,397.248 212.354,370.253 335.3,370.253 			"/>
			<polygon style="fill:#378259;" points="299.626,393.352 176.679,393.352 212.354,366.357 335.3,366.357 			"/>
			<polygon style="fill:#ED5151;" points="296.238,389.456 173.292,389.456 208.966,362.461 331.913,362.461 			"/>
			<polygon style="fill:#6F94DE;" points="292.173,387.762 169.226,387.762 204.901,360.767 327.847,360.767 			"/>
			<path style="fill:#FFFFFF;" d="M186.728,398.264"/>
		</g>
		<g>
			<path style="fill:#A295DB;" d="M180.985,429.176H98.789c-3.662,0-6.63-2.968-6.63-6.63V260.942c0-3.662,2.968-6.63,6.63-6.63
				h82.196c3.662,0,6.63,2.968,6.63,6.63v161.604C187.615,426.208,184.646,429.176,180.985,429.176z"/>
			<rect x="109.623" y="254.312" style="fill:#B6AEEB;" width="95.456" height="174.864"/>
			<rect x="126.13" y="311.082" style="fill:#A295DB;" width="52.757" height="118.877"/>
		</g>
		<rect x="397.6" y="245.312" style="fill:#B6AEEB;" width="77.795" height="87.539"/>
		<rect x="368.469" y="214.674" style="fill:#4271CF;" width="262.076" height="71.076"/>
		<rect x="382.336" y="245.18" style="fill:#4271CF;" width="8.32" height="144.211"/>
		<rect x="602.812" y="245.18" style="fill:#4271CF;" width="8.32" height="144.211"/>
		<rect x="368.469" y="236.559" style="fill:#6F94DE;" width="262.076" height="28.773"/>
		<rect x="412.842" y="216.527" style="fill:#264E8F;" width="176.104" height="20.908"/>
		<rect x="414.456" y="228.723" style="fill:#1C0C00;" width="161.915" height="5.448"/>
		<g>
			<rect x="394.584" y="112.062" style="fill:#EF1400;" width="27.733" height="79.039"/>
			<rect x="436.415" y="112.062" style="fill:#F6B000;" width="27.733" height="79.039"/>
			<rect x="477.52" y="112.062" style="fill:#55B4D8;" width="27.733" height="79.039"/>
		</g>
		<g>
			<path style="fill:#B6AEEB;" d="M513.605,423.133H331.954c54.079-47.146,89.483-112.195,85.904-185.28l165.078-0.531
				C580.655,312.51,563.524,385.694,513.605,423.133z"/>
			<path style="fill:#FFFFFF;" d="M514.067,417.124H333.803c54.079-47.146,86.791-112.727,83.212-185.811h167.771
				C582.503,306.501,563.986,379.685,514.067,417.124z"/>
			<g>
				
					<ellipse transform="matrix(0.854 -0.5203 0.5203 0.854 -131.203 290.8042)" style="fill:#F6B000;" cx="452.495" cy="379.153" rx="30.157" ry="24.75"/>
				
					<ellipse transform="matrix(0.854 -0.5203 0.5203 0.854 -113.1903 300.888)" style="fill:#EF51B3;" cx="479.469" cy="352.105" rx="30.157" ry="24.75"/>
				
					<ellipse transform="matrix(0.854 -0.5203 0.5203 0.854 -117.5724 280.6108)" style="fill:#57C0F7;" cx="441.15" cy="349.772" rx="30.157" ry="24.75"/>
			</g>
			<path style="fill:#F6B000;" d="M403.162,319.311c7.689-5.819,16.257-10.465,25.148-14.159c9.753-4.053,19.972-6.994,30.358-8.896
				c9.431-1.727,19.074-2.613,28.664-2.205c10.65,0.454,21.243,2.41,31.194,6.28c9.155,3.561,17.651,8.754,25.006,15.264
				c7.211,6.383,13.313,13.964,18.288,22.196c1.221,2.02,2.371,4.079,3.465,6.169c12.54-33.659,18.293-72.872,19.501-112.648
				H417.015C418.531,262.27,413.534,291.878,403.162,319.311z"/>
			<g>
				<defs>
					<path id="SVGID_00000070806724188067629140000002313704961599947155_" d="M403.162,319.311
						c7.689-5.819,16.257-10.465,25.148-14.159c9.753-4.053,19.972-6.994,30.358-8.896c9.431-1.727,19.074-2.613,28.664-2.205
						c10.65,0.454,21.243,2.41,31.194,6.28c9.155,3.561,17.651,8.754,25.006,15.264c7.211,6.383,13.313,13.964,18.288,22.196
						c1.221,2.02,2.371,4.079,3.465,6.169c12.54-33.659,18.293-72.872,19.501-112.648H417.015
						C418.531,262.27,413.534,291.878,403.162,319.311z"/>
				</defs>
				<clipPath id="SVGID_00000060753326268219427240000009627031104966787007_">
					<use xlink:href="#SVGID_00000070806724188067629140000002313704961599947155_"  style="overflow:visible;"/>
				</clipPath>
				<g style="clip-path:url(#SVGID_00000060753326268219427240000009627031104966787007_);">
					<path style="fill:none;stroke:#162D52;stroke-width:2;stroke-miterlimit:10;" d="M403.864,307.047
						c7.689-5.819,16.257-10.465,25.148-14.159c9.753-4.053,19.972-6.994,30.358-8.896c9.431-1.727,19.074-2.613,28.664-2.205
						c10.65,0.454,21.243,2.41,31.194,6.28c9.155,3.561,17.651,8.754,25.006,15.264c7.211,6.383,13.313,13.964,18.288,22.196
						c1.221,2.02,2.371,4.079,3.465,6.169"/>
					<path style="fill:none;stroke:#FFFFFF;stroke-width:2;stroke-miterlimit:10;" d="M406.913,294.342
						c7.689-5.819,16.257-10.465,25.148-14.159c9.753-4.053,19.972-6.994,30.358-8.896c9.431-1.727,19.074-2.613,28.664-2.205
						c10.65,0.454,21.243,2.41,31.194,6.28c9.155,3.561,17.651,8.754,25.006,15.264c7.211,6.383,13.313,13.964,18.288,22.196
						c1.221,2.02,2.371,4.079,3.465,6.169"/>
					<path style="fill:none;stroke:#162D52;stroke-width:2;stroke-miterlimit:10;" d="M409.962,281.638
						c7.689-5.819,16.257-10.465,25.148-14.159c9.753-4.053,19.972-6.994,30.358-8.896c9.431-1.727,19.074-2.614,28.664-2.205
						c10.65,0.454,21.243,2.41,31.194,6.28c9.155,3.561,17.651,8.754,25.006,15.264c7.211,6.383,13.313,13.964,18.288,22.196
						c1.221,2.02,2.371,4.079,3.465,6.169"/>
					<path style="fill:none;stroke:#FFFFFF;stroke-width:2;stroke-miterlimit:10;" d="M413.011,268.934
						c7.689-5.819,16.257-10.465,25.148-14.159c9.753-4.053,19.972-6.994,30.358-8.896c9.431-1.727,19.074-2.614,28.664-2.205
						c10.65,0.454,21.243,2.41,31.194,6.28c9.155,3.561,17.651,8.754,25.006,15.264c7.211,6.383,13.313,13.964,18.288,22.196
						c1.221,2.02,2.371,4.079,3.465,6.169"/>
				</g>
			</g>
		</g>
		<g>
			<g>
				<path style="fill:#4271CF;" d="M74.717,262.56h24.456v-72.154H74.717c-4.505,0-8.158,3.652-8.158,8.158v55.839
					C66.56,258.907,70.212,262.56,74.717,262.56z"/>
				<path style="fill:#6F94DE;" d="M84.053,262.56h113.149c3.528,0,6.387-2.86,6.387-6.387v-59.38c0-3.528-2.86-6.387-6.387-6.387
					H84.053c-3.24,0-5.867,2.627-5.867,5.867v60.42C78.186,259.933,80.813,262.56,84.053,262.56z"/>
				<rect x="167.097" y="200.037" style="fill:#4271CF;" width="26.078" height="17.777"/>
				<path style="fill:#162D52;" d="M157.506,215.721H91.905c-1.15,0-2.082-0.932-2.082-2.082v-13.568
					c0-1.15,0.932-2.082,2.082-2.082h65.601c1.15,0,2.082,0.932,2.082,2.082v13.568
					C159.588,214.789,158.656,215.721,157.506,215.721z"/>
				<path style="fill:#4271CF;" d="M157.506,217.769H91.905c-1.15,0-2.082-0.932-2.082-2.082v-13.568
					c0-1.15,0.932-2.082,2.082-2.082h65.601c1.15,0,2.082,0.932,2.082,2.082v13.568
					C159.588,216.837,158.656,217.769,157.506,217.769z"/>
				<rect x="90.37" y="233.009" style="fill:#162D52;" width="74.254" height="24.725"/>
				<polygon style="fill:#4271CF;" points="158.74,240.404 158.74,250.338 96.254,250.338 96.254,240.404 90.37,240.404 
					90.37,257.733 164.624,257.733 164.624,240.404 				"/>
				<path style="fill:#FFFFFF;" d="M169.563,282.311l-62.553,0.154c0.77-13.404-4.308-23.911-10.756-32.128l62.273-0.051
					C166.577,257.45,171.103,270.448,169.563,282.311z"/>
				<rect x="82.512" y="234.78" style="fill:#4271CF;" width="4.93" height="21.57"/>
				<rect x="153.847" y="201.578" style="fill:#162D52;" width="3.698" height="3.698"/>
				<rect x="153.847" y="206.971" style="fill:#162D52;" width="3.698" height="3.698"/>
				<rect x="153.847" y="212.363" style="fill:#162D52;" width="3.698" height="3.698"/>
				<rect x="148.609" y="201.578" style="fill:#162D52;" width="3.698" height="3.698"/>
				<rect x="148.609" y="206.971" style="fill:#162D52;" width="3.698" height="3.698"/>
				<path style="fill:#FFFFFF;" d="M144.734,216.065h-6.05c-0.778,0-1.409-0.631-1.409-1.409v-11.488
					c0-0.778,0.631-1.409,1.409-1.409h6.05c0.778,0,1.409,0.631,1.409,1.409v11.488
					C146.144,215.434,145.513,216.065,144.734,216.065z"/>
				<rect x="148.609" y="212.363" style="fill:#162D52;" width="3.698" height="3.698"/>
				<path style="fill:#EF1400;" d="M173.497,216.061h-2.533c-0.519,0-0.939-0.421-0.939-0.939v-12.45
					c0-0.519,0.42-0.939,0.939-0.939h2.533c0.519,0,0.939,0.421,0.939,0.939v12.45C174.436,215.64,174.016,216.061,173.497,216.061z
					"/>
				<path style="fill:#FFFFFF;" d="M181.614,216.215h-2.533c-0.519,0-0.939-0.421-0.939-0.939v-12.45
					c0-0.519,0.421-0.939,0.939-0.939h2.533c0.519,0,0.939,0.421,0.939,0.939v12.45
					C182.553,215.794,182.133,216.215,181.614,216.215z"/>
				<path style="fill:#ED5151;" d="M189.731,216.369h-2.533c-0.519,0-0.939-0.421-0.939-0.939v-12.45
					c0-0.519,0.421-0.939,0.939-0.939h2.533c0.519,0,0.939,0.42,0.939,0.939v12.45C190.67,215.948,190.25,216.369,189.731,216.369z"
					/>
				<path style="fill:#FFFFFF;" d="M101.001,205.391c0,1.468-1.19,2.658-2.658,2.658c-1.468,0-2.658-1.19-2.658-2.658
					c0-1.468,1.19-2.658,2.658-2.658C99.811,202.734,101.001,203.923,101.001,205.391z"/>
				<path style="fill:#FFFFFF;" d="M107.934,205.391c0,1.468-1.19,2.658-2.658,2.658c-1.468,0-2.658-1.19-2.658-2.658
					c0-1.468,1.19-2.658,2.658-2.658C106.744,202.734,107.934,203.923,107.934,205.391z"/>
				<path style="fill:#FFFFFF;" d="M114.867,205.391c0,1.468-1.19,2.658-2.658,2.658c-1.468,0-2.658-1.19-2.658-2.658
					c0-1.468,1.19-2.658,2.658-2.658C113.677,202.734,114.867,203.923,114.867,205.391z"/>
				<path style="fill:#162D52;" d="M133.471,215.444H96.032c-0.574,0-1.04-0.466-1.04-1.04l0,0c0-0.574,0.466-1.04,1.04-1.04h37.439
					c0.574,0,1.04,0.466,1.04,1.04l0,0C134.511,214.979,134.046,215.444,133.471,215.444z"/>
				<polygon style="fill:#162D52;" points="66.56,233.575 74.678,231.791 74.678,219.39 66.56,217.605 				"/>
			</g>
			<g>
				<defs>
					<path id="SVGID_00000143575869052719802720000012120496239941291165_" d="M169.563,282.311l-62.553,0.154
						c0.77-13.404-4.308-23.911-10.756-32.128l62.273-0.051C166.577,257.45,171.103,270.448,169.563,282.311z"/>
				</defs>
				<clipPath id="SVGID_00000113338546390793415720000006819997365234823328_">
					<use xlink:href="#SVGID_00000143575869052719802720000012120496239941291165_"  style="overflow:visible;"/>
				</clipPath>
				<path style="clip-path:url(#SVGID_00000113338546390793415720000006819997365234823328_);fill:#ED5151;" d="M121.782,253.245
					c1.086-0.013,2.254,0.191,3.025,0.955c3.108,3.08-3.179,9.89-4.84,12.367c-2.295,3.424-3.871,8.309-1.162,11.414
					c2.033,2.329,5.733,2.498,8.575,1.281c4.664-1.998,9.234-12.946,14.908-11.029c1.944,0.657,3.076,2.607,4.448,4.132
					c3.939,4.376,11.564,5.241,15.763,1.114c1.295-1.273,2.245-3.098,1.864-4.873c-0.255-1.187-1.067-2.184-1.998-2.963
					c-2.536-2.122-5.913-2.861-8.935-4.202c-3.023-1.341-6.03-3.824-6.108-7.13c-0.061-2.562,1.683-4.941,1.485-7.496
					c-0.205-2.652-2.528-4.753-5.066-5.549c-4.112-1.288-9.861-0.611-14.208-0.782c-4.999-0.198-10.106,0.255-14.719,2.323
					c-3.129,1.403-8.636,5.695-5.743,9.554C111.921,256.164,118.086,253.29,121.782,253.245z"/>
			</g>
		</g>
		<g>
			<g>
				<circle style="fill:none;stroke:#A295DB;stroke-width:7;stroke-miterlimit:10;" cx="206.738" cy="71.26" r="25.265"/>
				<polyline style="fill:none;stroke:#050504;stroke-width:2;stroke-miterlimit:10;" points="206.738,51.584 206.738,71.26 
					224.161,64.676 				"/>
			</g>
		</g>
		<g>
			<path style="fill:#EB7CB8;" d="M230.066,206.396c16.162,4.321,33.119,9.009,41.192,16.166c6.481,5.745,6.293,12.476,2.01,18.554
				c-4.283,6.078-12.386,11.593-21.342,16.757"/>
			<path style="fill:#EB7CB8;" d="M242.346,413.653c0.16,2.689,1.362,22.858,1.362,22.858l16.186-1.564l-1.423-23.866
				L242.346,413.653z"/>
			<path d="M259.985,432.074c0.029-0.565-6.981-0.673-7.798-0.618c-1.676,0.114-3.37,0.056-5.023-0.26
				c-1.111-0.212-3.159-1.438-4.203-1.121c-0.787,0.239-2.016,2.036-2.887,2.542c-1.296,0.753-2.746,1.234-4.148,1.749
				c-5.268,1.938-11.77,5.119-14.487,10.407c-0.195,0.38,0.109,0.829,0.535,0.815c1.367-0.043,40.635,0.018,41.174,0
				C263.245,441.503,259.778,436.091,259.985,432.074z"/>
			<path d="M219.548,319.05c-0.822-8.715-1.586-17.474-1.474-26.217c0.103-8.086-1.046-16.601-0.158-24.626
				c0.674-6.1,2.93-12.156,7.154-15.724c3.528-2.979,8.089-3.956,12.516-3.845c4.759,0.12,9.984,1.76,12.775,6.36
				c2.297,3.787,2.433,8.686,2.426,13.25c-0.021,13.517-1.245,26.964-0.047,40.355c1.306,14.599,0.671,29.706,1.599,44.404
				c1.159,18.354,4.719,36.708,7.096,55.063c1.174,9.068-5.719,16.91-14.835,16.98c-0.113,0.001-0.226,0.002-0.339,0.003
				c-7.948,0.08-14.853-5.796-15.99-13.69C225.909,381.081,222.358,348.83,219.548,319.05z"/>
			<path style="fill:#EB7CB8;" d="M193.52,414.578c-0.112,2.711-0.949,23.042-0.949,23.042l16.335-1.024l0.991-24.059
				L193.52,414.578z"/>
			<rect x="212.183" y="188.523" style="fill:#EB7CB8;" width="14.148" height="17.805"/>
			<path d="M222.357,320.161c0.943-2.598,1.943-5.175,2.963-7.743c4.215-10.617,8.848-21.16,11.285-32.369
				c1.238-5.693,1.862-11.8-0.293-17.212c-2.432-6.108-10.367-10.305-16.596-11.371c-6.805-1.165-14.075,0.788-18.598,6.199
				c-4.323,5.172-5.366,6.747-6.513,13.389c-3.495,20.228-9.397,43.099-11.942,63.521c-1.089,8.741-0.392,20.143-0.1,28.947
				c0.468,14.128,2.202,27.862,2.107,42.011c-0.069,10.211,4.37,20.828,16.274,20.771c0.695-0.003,1.391,0.001,2.086,0.014
				c12.905,0.24,15.051-10.762,15.643-20.929c0.788-13.539-0.547-27.081-0.954-40.608c-0.213-7.068-0.597-14.63-0.128-21.639
				c0.329-4.911,0.608-9.841,1.989-14.568C220.408,325.737,221.35,322.937,222.357,320.161z"/>
			<path style="fill:#F6B000;" d="M193.081,271.054l61.532-1.779c0.815-2.085,0.531-5.072,0.501-7.141
				c-0.121-8.587-0.933-17.565-2.662-25.993c-2.488-12.125-8.016-23.418-17.773-31.315c-2.223-1.799-2.138-3.73-4.819-4.725
				c-6.891-2.557-24.17-0.944-29.693,3.204c-2.16,1.623-3.773,3.605-5.031,5.817c0.056,5.507,0.241,11.012,0.349,16.519
				C195.695,236.47,194.054,267.277,193.081,271.054z"/>
			<path style="fill:#EB7CB8;" d="M172.008,238.177c-1.388,0.193-2.387-0.848-4.015-2.86c-5.21-6.439-10.201-13.068-15.298-19.596
				c-0.853-1.093-1.766-2.216-2.869-3.025c-0.594-0.586-1.202-1.157-1.838-1.696c-1.012-0.857-2.078-1.636-3.178-2.377
				c-1.039-0.7-2.102-1.405-2.802-2.467c-0.853-1.295-2.828,0.086-1.973,1.382c0.724,1.1,1.746,1.919,2.821,2.655
				c0.604,0.413,1.202,0.829,1.792,1.257c-1.246,0.338-2.309,1.176-3.149,2.134c-0.91,1.038-1.675,2.237-2.243,3.494
				c-0.593,1.313-1.216,2.924-0.974,4.385c0.258,1.556,1.551,2.97,2.403,4.246c0.544,0.816,1.089,1.631,1.633,2.447
				c5.139,7.699,8.694,15.758,14.944,22.839c5.277,5.978,13.399,17.468,22.093,12.291c10.66-6.348,19.16-14.198,26.34-24.368
				c2.645-3.746,5.204-8.384,3.637-12.694c-1.264-3.475-5.035-5.594-8.728-5.777c-3.693-0.184-7.289,1.249-10.493,3.096
				c-3.093,1.783-6.408,3.687-8.827,6.322c-2.088,2.275-3.759,4.702-6.246,6.661C173.76,237.531,172.818,238.064,172.008,238.177z"
				/>
			<g>
				<defs>
					
						<rect id="SVGID_00000162341456549139802520000004905149106858265231_" x="212.183" y="188.523" width="14.148" height="17.805"/>
				</defs>
				<clipPath id="SVGID_00000079470695224817354290000002603669507098611340_">
					<use xlink:href="#SVGID_00000162341456549139802520000004905149106858265231_"  style="overflow:visible;"/>
				</clipPath>
				<path style="clip-path:url(#SVGID_00000079470695224817354290000002603669507098611340_);fill:#050504;" d="M210.84,195.928
					c0.113,0.181,0.215,0.371,0.269,0.604c0.133,0.567-0.007,1.207,0.377,1.701c0.372,0.478,1.065,0.537,1.669,0.501
					c0.895-0.053,1.799-0.233,2.577-0.676c0.401-0.228,0.769-0.531,1.009-0.925c0.91-1.498-0.254-3.672-1.601-4.501
					c-1.147-0.706-3.204-1.696-4.453-0.72c-0.865,0.676-0.616,2.274-0.319,3.17C210.48,195.416,210.673,195.662,210.84,195.928z"/>
			</g>
			<path style="fill:#F6B000;" d="M177.927,224.738c5.581-5.577,11.161-11.154,16.742-16.73c1.71-1.708,3.439-3.433,5.496-4.702
				c6.81-4.203,16.08-4.605,20.199,3.022c4.498,8.331-0.658,18.809-5.597,25.903c-4.566,6.559-10.512,12.012-16.407,17.408
				c0.673,0.09,1.383-0.278,1.699-0.879"/>
			<path style="fill:#EB7CB8;" d="M208.592,182.995c-0.866,2.337-1.566,4.852-1.098,7.3c0.492,2.571,2.329,4.833,4.721,5.897
				c2.392,1.064,5.273,0.923,7.579-0.317c1.396-0.751,2.568-1.864,3.598-3.069c2.396-2.803,4.165-6.37,2.606-9.994
				c-0.432-1.004-1-1.969-1.807-2.706c-1.037-0.948-2.391-1.458-3.709-1.945c-1.744-0.646-3.492-1.293-5.298-1.738
				c-2.217-0.547-3.152-0.732-4.384,1.285C209.798,179.349,209.254,181.206,208.592,182.995z"/>
			<path style="fill:#050504;" d="M230.266,178.929c-0.021-0.064-0.042-0.128-0.065-0.192c-0.7-1.968-2.337-3.579-4.317-4.247
				c-0.963-0.325-1.997-0.438-2.92-0.862c-1.489-0.685-2.496-2.159-4.016-2.772c-1.786-0.72-2.578,0.32-4.173,0.503
				c-0.986,0.113-1.602-1.013-2.443-1.541c-1.078-0.676-2.536-0.297-3.563,0.455c-1.449,1.061-2.363,2.89-2.14,4.672
				c0.223,1.783,1.68,3.394,3.464,3.61c0.84,0.102,1.896,0.015,2.308,0.754c0.277,0.497,0.088,1.138,0.298,1.667
				c0.292,0.737,1.192,0.967,1.942,1.223c1.716,0.585,1.185,1.875,1.63,3.27c0.631,1.976,2.646,5.01,4.162,6.404
				c1.665,1.531,3.463,2.829,5.672,1.683c1.713-0.889,2.954-2.756,2.657-4.738c-0.104-0.692-0.37-1.379-0.265-2.07
				c0.113-0.747,0.634-1.354,1.037-1.993C230.611,183.046,230.883,180.853,230.266,178.929z"/>
			<path style="fill:#EB7CB8;" d="M217.862,182.561c-4.269,0-4.276,5.961,0,5.961C222.131,188.523,222.138,182.561,217.862,182.561z
				"/>
			<path style="fill:#EB7CB8;" d="M210.031,182.417c-1.115,1.191-2.718,1.91-4.349,1.953c0.269,1.028,1.308,1.688,2.346,1.91
				c0.364,0.078,0.804,0.168,0.928,0.519"/>
			<path style="fill:#050504;" d="M217.556,183.84c0.757-0.089,1.424,0.646,1.494,1.405c0.07,0.759-0.307,1.491-0.769,2.096"/>
			<path style="fill:none;stroke:#000000;stroke-width:0.5;stroke-miterlimit:10;" d="M208.277,189.95
				c0.761,0.237,1.649-0.002,2.189-0.589"/>
			<path style="fill:none;stroke:#000000;stroke-width:0.5;stroke-miterlimit:10;" d="M199.051,247.862
				c6.804-5.248,12.655-11.723,17.206-19.01"/>
			<path d="M210.94,445.563c0.192-3.921-2.235-8.021-1.654-11.853c0.086-0.567-6.907-0.914-7.728-0.886
				c-1.26,0.043-2.529-0.007-3.776-0.2c-1.34-0.207-2.999-1.236-4.272-1.253c-2-0.026-3.345,3.075-5.442,3.885
				c-3.354,1.296-6.92,2.027-10.191,3.52c-2.836,1.295-6.199,3.631-7.178,6.787H210.94z"/>
			<path style="fill:#F6B000;" d="M230.476,220.516c1.807,2.68,3.614,5.359,5.42,8.039c1.275,1.893,2.451,4.306,4.888,4.803
				c2.07,0.427,3.45,4.478,4.915,5.784c4.948,4.407,8.551-4.09,10.64-7.408c3.417-5.428,6.71-10.934,9.874-16.512
				c-11.521-7.742-24.403-13.879-38.159-15.736c-1.193-0.161-2.432-0.286-3.58,0.077
				C217.834,201.661,228.323,217.323,230.476,220.516z"/>
			<path style="fill:none;stroke:#000000;stroke-width:0.5;stroke-miterlimit:10;" d="M253.256,241.931
				c-0.444-7.714-2.832-15.308-6.884-21.887"/>
			<path style="fill:#EB7CB8;" d="M149.817,210.73c-0.565-0.28-1.354-0.027-1.607,0.566c-0.259,0.607-0.038,1.308,0.566,1.607
				c0.112,0.055,0.222,0.113,0.33,0.174c0.036,0.021,0.072,0.043,0.109,0.064c0.185,0.134,0.368,0.266,0.541,0.416
				c0.084,0.074,0.166,0.149,0.246,0.227c0.039,0.038,0.077,0.078,0.116,0.117c0.147,0.175,0.291,0.35,0.421,0.538
				c0.128,0.185,0.228,0.385,0.351,0.572c-0.193-0.295,0.01,0.028,0.053,0.124c0.046,0.102,0.088,0.206,0.128,0.31
				c0.082,0.217,0.148,0.437,0.207,0.661c0.008,0.045,0.017,0.09,0.025,0.136c0.02,0.123,0.035,0.246,0.047,0.37
				c0.063,0.627,0.645,1.185,1.299,1.102c0.638-0.081,1.169-0.628,1.102-1.299C153.507,213.997,151.996,211.809,149.817,210.73z"/>
			<path style="fill:none;stroke:#F6B000;stroke-width:0.5;stroke-miterlimit:10;" d="M220.013,325.935
				c2.768-7.941,7.904-27.122,10.671-35.063"/>
		</g>
		<g>
			<polygon style="fill:#EB7CB8;" points="572.676,438.484 572.759,412.194 555.504,409.825 555.343,438.253 			"/>
			<path d="M573.111,446.323c-0.075-2.304,1.974-11.622-0.435-12.924c-0.34-0.184-12.264-0.919-17.387-0.664
				c-1.219,5.748-7.319,4.858-12.66,6.435c-1.808,0.534-3.649,1.083-5.196,2.108c-2.316,1.535-3.747,3.996-4.63,6.517"/>
			<path style="fill:#1C0C00;" d="M548.824,403.233c0.333,8.274,0.557,18.471,9.661,21.337c3.857,1.215,8.334,0.658,11.883-1.154
				c8.952-4.572,10.532-14.926,11.134-23.826c1.925-28.447-0.894-55.941,5.833-84.301c2.151-9.066,19.527-59.624-5.613-51.12
				c-4.304,1.456-7.655,4.871-10.384,8.503c-9.552,12.715-13.237,28.79-16.178,44.419c-5.35,28.424-7.504,57.18-6.339,86.075
				C548.822,403.188,548.823,403.21,548.824,403.233z"/>
			<polygon style="fill:#EB7CB8;" points="624.907,421.151 610.116,394.111 593.452,406.762 611.271,429.239 			"/>
			<path style="fill:#EF1400;" d="M561.959,322.326c-0.005-2.157-0.029-4.314-0.089-6.473c-0.328-11.799,0.112-23.615,1.33-35.363
				c0.57-5.501,2.969-11.777,5.596-16.654c2.036-3.78,4.972-7.208,8.835-9.082c4.516-2.191,10.111-1.992,14.46,0.513
				c4.496,2.59,7.434,7.331,8.907,12.307c1.976,6.671,2.629,15.117,1.804,22.009c-0.858,7.176-3.504,13.984-4.661,21.105
				c-1.766,10.873-2.065,21.927-2.151,32.921c-0.096,12.287,1.962,24.514,8.939,35.139c3.718,5.662,8.561,10.723,11.358,16.831
				c2.797,6.107,3.056,13.925-1.863,18.721c-7.096,6.919-15.863,6.639-23.238,0.824c-8.041-6.34-14.245-14.45-18.667-23.339
				c-7.778-15.637-10.31-33.224-10.592-50.322C561.823,335.052,561.974,328.688,561.959,322.326z"/>
			<g>
				<defs>
					<path id="SVGID_00000005953430385988485210000014077590369980319161_" d="M561.959,322.326
						c-0.005-2.157-0.029-4.314-0.089-6.473c-0.328-11.799,0.112-23.615,1.33-35.363c0.281-2.71,0.67-5.575,2.48-7.708
						c7.979-9.402,25.138-7.955,33.039,0.741c3.445,3.791,5.259,8.668,5.61,13.595c0.177,2.493-0.014,5.01-0.551,7.457
						c-0.56,2.551-2.846,3.574-3.457,5.844c-3.715,13.798-4.219,29.008-4.33,43.19c-0.096,12.287,1.962,24.514,8.939,35.139
						c3.718,5.662,8.561,10.723,11.358,16.831c2.797,6.107,3.056,13.925-1.863,18.721c-7.096,6.919-15.863,6.639-23.238,0.824
						c-8.041-6.34-14.245-14.45-18.667-23.339c-7.778-15.637-10.31-33.224-10.592-50.322
						C561.823,335.052,561.974,328.688,561.959,322.326z"/>
				</defs>
				<clipPath id="SVGID_00000101061524709335945200000015139690185294427822_">
					<use xlink:href="#SVGID_00000005953430385988485210000014077590369980319161_"  style="overflow:visible;"/>
				</clipPath>
			</g>
			<path style="fill:#EB7CB8;" d="M570.018,191.435c0.91,2.538,1.82,5.076,2.73,7.613c2.13,5.94,8.402,7.501,13.074,2.702
				c1.873-1.924,2.486-4.13,1.986-6.787c-0.328-1.738-1.037-3.377-1.709-5.013c-1.263-3.072-2.414-6.189-3.452-9.344
				c-0.993-3.021-1.882-6.077-2.943-9.076c-0.706-1.996-1.346-4.981-2.891-6.503c-1.225-1.206-3.104-2.398-4.667-3.078
				c-4.055-1.765-8.887-1.012-12.62,1.188c-0.964,0.568-1.885,1.259-2.503,2.192c-0.787,1.189-1.014,2.679-0.905,4.101
				c0.384,5.024,2.864,14.393,9.058,15.051c0.505,0.053,1.027,0.044,1.499,0.229c1.009,0.396,1.481,1.53,1.847,2.551
				C569.021,188.653,569.52,190.044,570.018,191.435z"/>
			<path style="fill:#1C0C00;" d="M601.987,274.352c-13.811-0.423-27.622-0.845-41.433-1.268c1.68-5.177,1.816-11.329,2.46-16.776
				c1.033-8.744,0.38-14.058,0.569-22.861c0.166-7.691-0.945-15.488-0.625-23.073c0.062-1.462,0.181-2.939,0.391-4.398
				c0.501-3.478,1.519-6.86,3.508-9.725c1.594-2.297,2.297-5.24,5.06-6.495c1.097-0.499,2.305-0.687,3.496-0.87
				c3.532-0.543,7.064-1.086,10.596-1.629c5.839,6.227,12.138,11.617,15.292,19.631c2.976,7.563,3.849,15.772,4.793,23.782
				c0.427,3.623,3.151,43.904,1.99,43.869C606.052,274.476,604.02,274.414,601.987,274.352z"/>
			<path style="fill:#1C0C00;" d="M579.657,164.484c-0.77-0.866-1.515-1.756-2.385-2.52c-5.181-4.548-12.95-3.613-18.795-1.191
				c-1.333,0.552-2.673,1.16-3.753,2.117c-1.08,0.957-1.881,2.324-1.841,3.767c0.042,1.527,1.105,2.974,2.549,3.472
				c1.348,0.465,2.826,0.139,4.214-0.191c1.591-0.378,5.012-1.889,6.472-1.167c1.617,0.8,1.581,3.504,2.605,4.785
				c1.464,1.83,4.307,1.738,6.254,2.872c2.52,1.467,4.253,3.269,7.437,3.218c2.736-0.043,5.422-1.406,7.072-3.588
				c1.048-1.385,1.666-3.353,0.774-4.844c-0.886-1.482-2.809-1.859-4.442-2.421c-1.806-0.621-3.476-1.633-4.863-2.946
				C580.499,165.416,580.074,164.954,579.657,164.484z"/>
			<path style="fill:#EB7CB8;" d="M543.514,207.215c1.375-0.235,2.875-0.115,4.187,0.188c6.69,1.548,13.629,1.592,20.424,2.577
				c1.082,0.157,2.181,0.344,3.151,0.849c2.255,1.173,3.379,3.936,3.126,6.465c-0.253,2.529-1.668,4.817-3.416,6.662
				c-3.066,3.235-8.953,0.159-12.308-1.23c-5.242-2.171-10.485-4.342-15.727-6.514c-0.889-0.368-1.8-0.75-2.503-1.409
				c-0.99-0.928-1.456-2.383-1.187-3.714C539.749,208.67,541.497,207.56,543.514,207.215z"/>
			<g id="XMLID_6_">
				<g id="XMLID_7_">
					<g id="XMLID_8_">
						<g id="XMLID_9_">
							<path id="XMLID_10_" style="fill:#EB7CB8;" d="M559.682,261.31c0.677,0.715,1.45,1.337,2.311,1.835
								c2.129,1.233,4.81,1.725,7.077,0.77c2.232-0.941,3.696-3.067,5.035-5.086c2.201-3.321,4.286-7.989,6.359-11.708
								c4.416-7.926,9.335-17.162,7.275-26.539c-1.04-4.732-4.627-10.238-9.283-12.008c-3.918-1.49-5.831-0.353-8.432,2.344
								c-3.821,3.962-4.391,9.916-5.344,15.337c-1.402,7.976-3.843,15.169-7.227,22.335
								C555.492,252.738,556.557,258.01,559.682,261.31z"/>
						</g>
					</g>
				</g>
			</g>
			<g id="XMLID_1_">
				<g id="XMLID_2_">
					<g id="XMLID_3_">
						<g id="XMLID_4_">
							<path id="XMLID_5_" style="fill:#EB7CB8;" d="M572.573,248.885c4.577,8.309-1.968,19.821-11.752,13.937
								c-7.822-4.704-15.414-12.689-20.947-19.866c-4.619-5.992-7.797-12.566-10.491-19.646c-0.594-1.561-1.127-3.421-0.193-4.806
								c0.656-0.973,1.91-1.416,3.082-1.36c1.173,0.056,2.282,0.537,3.319,1.089c3.407,1.813,6.283,4.62,9.461,6.819
								c3.25,2.249,6.542,4.437,9.754,6.741C561.306,236.456,568.63,241.727,572.573,248.885z"/>
						</g>
					</g>
				</g>
			</g>
			<path style="fill:#1C0C00;" d="M590.77,227.282c-0.925,0.036-1.85,0.073-2.776,0.101c-8.969,0.276-18.037,0.096-26.79-2.038
				c1.033-6.036,1.717-17.103,2.941-23.176c0.659-3.273,2.064-1.564,4.481-3.867c3.556-3.387,9.679-2.798,13.465,0.331
				c4.108,3.394,5.523,8.979,6.941,13.837c0.74,2.537,0.685,5.539,0.875,8.154C589.981,221.672,590.653,224.991,590.77,227.282z"/>
			<path style="fill:#EB7CB8;" d="M544.352,225.773c0.283,0.691,0.525,1.408,0.792,2.026c0.508,1.176,0.799,2.835,0.293,4.053
				c-0.345,0.829-0.988,1.492-1.617,2.133c-1.226,1.25-2.518,3.154-4.07,3.964c-0.865,0.452-1.953,0.594-2.806,0.12
				c-0.56-0.311-0.955-0.843-1.332-1.361c-1.986-2.727-3.906-5.501-5.821-8.278c-0.957-1.388-1.914-2.777-2.877-4.162
				c-2.282-3.28-4.421-6.729-6.961-9.827c-1.35-1.647-1.89-3.989-1.611-6.082c0.12-0.902,0.414-1.825,1.074-2.45
				c0.774-0.733,1.923-0.933,2.986-0.851c1.719,0.132,3.37,0.946,4.549,2.199c1.157,1.229,2.352,2.73,3.16,4.22
				c0.661,1.219,1.155,2.547,2.039,3.614c1.211,1.462,3.062,2.563,4.597,3.656c1.878,1.338,3.715,2.734,5.507,4.185
				c0.44,0.356,0.881,0.72,1.218,1.174C543.826,224.587,544.105,225.17,544.352,225.773z"/>
			<path d="M543.336,199.954l-10.426-13.993c-0.439-0.589-1.294-0.662-1.827-0.156l-17.452,16.596
				c-0.449,0.427-0.509,1.123-0.138,1.62l11.246,15.094c0.341,0.458,14.942-14.083,18.476-17.559
				C543.652,201.127,543.702,200.445,543.336,199.954z"/>
			<path style="fill:#55B4D8;" d="M542.247,201.906l-11.597-15.245l-16.109,15.489l11.597,15.245
				C526.48,217.853,542.217,201.865,542.247,201.906z"/>
			<path style="fill:#162D52;" d="M534.44,203.341l-2.228-2.929l-8.811,8.507l2.228,2.929
				C525.695,211.936,534.434,203.333,534.44,203.341z"/>
			<path style="fill:#162D52;" d="M535.075,194.956l-1.713-2.158l-12.895,12.464l1.78,2.136
				C522.323,207.499,535.068,194.947,535.075,194.956z"/>
			<path style="fill:#EF1400;" d="M527.437,196.247l-1.246-1.468l-8.098,7.876l1.24,1.517
				C519.408,204.273,527.43,196.237,527.437,196.247z"/>
			<path style="fill:#EB7CB8;" d="M525.035,207.665c0.226-0.387,0.715-0.589,1.148-0.467c0.495,0.139,0.913,0.478,1.345,0.749
				c0.409,0.257,0.822,0.509,1.237,0.756c0.76,0.453,1.533,0.882,2.301,1.321c0.04-0.83,0.377-1.663,0.723-2.438
				c0.515-1.155,1.165-2.434,2.377-2.799c1.363-0.411,3.87,0.348,5.357,0.5c2.536,0.26,5.237,1.442,7.691,2.138
				c2.16,0.612,4.436,2.022,4.151,4.582c-0.223,2.001-1.998,3.526-3.753,4.258c-2.149,0.895-3.48,0.362-5.544-0.405
				c-2.383-0.887-5.025-0.728-7.388-1.668c-2.368-0.942-4.791-2.33-6.994-3.642c-0.391-0.233-0.779-0.47-1.164-0.711
				c-0.436-0.273-1.001-0.539-1.328-0.94C524.904,208.544,524.791,208.083,525.035,207.665z"/>
			<path style="fill:#050504;" d="M568.908,182.752c0.421-0.578,0.679-1.252,0.904-1.934c0.066,0.04,0.132,0.08,0.197,0.121
				c0.071,0.043,0.037,0.628,0.039,0.723c0.006,0.255,0.005,0.509-0.004,0.764c-0.016,0.428-0.03,0.871-0.097,1.294
				c-0.091,0.574-0.3,1.128-0.609,1.62c-0.313,0.498-0.76,0.904-1.033,1.431c-0.161-0.423-0.403-0.819-0.655-1.188
				c-0.119-0.174-0.267-0.323-0.426-0.458c-0.237-0.236-0.509-0.422-0.813-0.514C567.337,184.119,568.275,183.62,568.908,182.752z"
				/>
			<path style="fill:#1C0C00;" d="M566.054,170.766c0.124,0.246,0.231,0.5,0.313,0.764c0.157,0.507,0.221,1.049,0.477,1.513
				c0.256,0.464,0.794,0.839,1.301,0.682c0.425-0.131,0.669-0.578,0.794-1.005c0.388-1.318,0.089-2.812,0.708-4.039
				c0.181-0.359,0.442-0.706,0.437-1.108c-0.007-0.54-0.495-0.948-0.984-1.176c-0.771-0.359-7.388-0.479-5.503,1.462
				c0.108,0.111,0.257,0.168,0.393,0.242c0.433,0.235,0.736,0.648,1.025,1.048C565.388,169.669,565.767,170.196,566.054,170.766z"/>
			<path style="fill:none;stroke:#1C0C00;stroke-width:0.5;stroke-miterlimit:10;" d="M561.966,237.255
				c0.317,2.606,1.026,5.165,2.098,7.562"/>
			<path style="fill:#1C0C00;" d="M568.779,259.16c-0.146,0.817-0.75,1.537-1.53,1.821c-0.78,0.284-1.706,0.122-2.343-0.41"/>
			<path d="M631.627,425.868c-1.59-1.855-6.295-9.391-9.143-9.068c-0.402,0.046-0.78,0.198-1.15,0.353
				c-4.826,2.021-9.349,4.67-13.4,7.848c2.809,5.44-2.805,8.24-6.158,12.634c-1.135,1.487-2.287,3.006-2.881,4.746
				c-0.889,2.605-0.435,5.462,0.51,8.049"/>
			<path style="fill:none;stroke:#FF6161;stroke-width:0.5;stroke-miterlimit:10;" d="M589.548,226.987
				c0.366,0.472,0.984-0.306,1.056-0.9c0.797-6.607,1.399-13.681-1.699-19.571"/>
			<path style="fill:none;stroke:#000000;stroke-width:0.5;stroke-miterlimit:10;" d="M561.243,180.431
				c1.092,0.326,2.36-0.049,3.098-0.917"/>
			<path style="fill:#EB7CB8;" d="M570.838,169.105c1.03,0.015,1.997,0.569,2.581,1.333c0.583,0.764,0.814,1.713,0.803,2.64
				c-0.009,0.799-0.197,1.614-0.673,2.289c-0.476,0.675-1.265,1.195-2.149,1.279c-1.433,0.135-2.755-0.914-3.211-2.143
				C567.514,172.679,567.977,169.064,570.838,169.105z"/>
			<path style="fill:#1C0C00;" d="M570.37,171.151c0.631-0.057,1.204,0.347,1.583,0.804c0.341,0.411,0.594,0.904,0.586,1.417
				c-0.009,0.513-0.323,1.041-0.851,1.235"/>
			<path style="fill:#EB7CB8;" d="M522.092,218.702c-0.687-1.958-0.604-4.026-1.133-6.018c-0.138-0.52-0.305-1.061-0.19-1.587
				c0.114-0.526,0.634-1.009,1.153-0.865c0.27,0.075,0.472,0.295,0.641,0.519c0.945,1.256,0.881,4.29,2.26,5.002
				c0.452,0.233,0.974,0.275,1.48,0.326c1.081,0.107,2.293,0.355,2.871,1.275c0.417,0.664,0.38,1.537,0.084,2.263
				c-1.347,3.307-5.375,2.88-6.832-0.111C522.298,219.243,522.188,218.975,522.092,218.702z"/>
		</g>
		<g>
			<g>
				<g>
					<path style="fill:#48AEE3;" d="M136.725,159.624c-2.064-2.065-2.063-5.413,0.002-7.477c2.065-2.064,5.413-2.063,7.477,0.002
						c0.13,0.13,0.227,0.278,0.341,0.417c1.215-1.704,2.245-3.499,3.087-5.359c-0.193-0.03-0.386-0.043-0.579-0.095
						c-2.82-0.757-4.493-3.656-3.737-6.476c0.756-2.82,3.656-4.493,6.476-3.737c0.189,0.051,0.359,0.134,0.538,0.204
						c0.2-2.066,0.2-4.147,0-6.213c-0.194,0.078-0.382,0.167-0.589,0.223c-2.821,0.755-5.719-0.92-6.474-3.74
						c-0.755-2.821,0.92-5.719,3.74-6.474c0.211-0.056,0.422-0.073,0.632-0.103c-0.851-1.883-1.894-3.7-3.128-5.423
						c-0.141,0.184-0.274,0.372-0.442,0.541c-2.065,2.064-5.413,2.063-7.477-0.002c-2.064-2.065-2.063-5.413,0.002-7.477
						c0.172-0.172,0.365-0.308,0.553-0.452c-1.735-1.251-3.565-2.307-5.464-3.168c-0.029,0.257-0.057,0.514-0.126,0.772
						c-0.757,2.82-3.656,4.493-6.476,3.737c-2.82-0.756-4.493-3.656-3.737-6.476c0.069-0.259,0.175-0.496,0.279-0.734
						c-2.115-0.21-4.247-0.21-6.362-0.001c0.113,0.254,0.224,0.509,0.298,0.786c0.755,2.821-0.919,5.719-3.74,6.474
						c-2.821,0.755-5.719-0.92-6.474-3.74c-0.074-0.275-0.105-0.55-0.134-0.825c-1.922,0.87-3.774,1.939-5.528,3.209
						c0.235,0.168,0.466,0.342,0.677,0.553c2.064,2.065,2.063,5.413-0.002,7.477c-2.065,2.064-5.413,2.063-7.477-0.002
						c-0.202-0.202-0.367-0.424-0.529-0.648c-1.258,1.76-2.316,3.619-3.175,5.545c0.284,0.028,0.57,0.063,0.855,0.139
						c2.82,0.757,4.493,3.656,3.737,6.476c-0.757,2.82-3.656,4.493-6.476,3.737c-0.265-0.071-0.51-0.179-0.754-0.286
						c-0.197,2.116-0.18,4.247,0.043,6.36c0.246-0.109,0.494-0.217,0.762-0.289c2.821-0.755,5.719,0.919,6.474,3.74
						c0.755,2.821-0.919,5.719-3.74,6.474c-0.247,0.066-0.494,0.091-0.741,0.12c0.873,1.893,1.941,3.719,3.203,5.447
						c0.149-0.199,0.295-0.401,0.476-0.582c2.065-2.064,5.413-2.063,7.477,0.002c2.064,2.065,2.063,5.413-0.002,7.477
						c-0.159,0.159-0.339,0.283-0.512,0.418c1.73,1.223,3.552,2.254,5.44,3.093c0.03-0.221,0.049-0.442,0.108-0.663
						c0.757-2.82,3.656-4.493,6.476-3.737c2.82,0.757,4.493,3.656,3.737,6.476c-0.052,0.195-0.138,0.37-0.21,0.553
						c2.066,0.187,4.146,0.173,6.21-0.039c-0.074-0.187-0.161-0.366-0.214-0.566c-0.755-2.82,0.919-5.719,3.74-6.474
						c2.821-0.755,5.719,0.92,6.474,3.74c0.049,0.183,0.061,0.366,0.089,0.549c1.855-0.853,3.644-1.895,5.342-3.122
						C137.021,159.868,136.863,159.763,136.725,159.624z M103.185,149.236c-8.412-8.416-8.408-22.058,0.008-30.47
						c8.416-8.412,22.058-8.409,30.47,0.008c8.412,8.416,8.409,22.058-0.008,30.47C125.239,157.656,111.597,157.652,103.185,149.236
						z"/>
				</g>
				<path style="fill:#48AEE3;" d="M127.174,119.778c-7.839-4.816-18.134-2.357-22.949,5.481c-4.816,7.838-2.357,18.134,5.481,22.95
					c7.838,4.816,18.133,2.356,22.949-5.482C137.471,134.888,135.012,124.593,127.174,119.778z M127.31,139.442
					c-3.005,4.891-9.429,6.426-14.32,3.421c-4.891-3.005-6.426-9.43-3.421-14.321c3.005-4.891,9.43-6.425,14.321-3.42
					C128.781,128.127,130.316,134.551,127.31,139.442z"/>
			</g>
			<g>
				<g>
					<path style="fill:#A295DB;" d="M141.063,97.438c-1.585-1.586-1.584-4.156,0.001-5.74c1.585-1.585,4.156-1.584,5.74,0.001
						c0.1,0.1,0.174,0.213,0.262,0.321c0.933-1.308,1.724-2.686,2.37-4.114c-0.148-0.023-0.296-0.033-0.445-0.073
						c-2.165-0.581-3.45-2.807-2.869-4.972c0.581-2.165,2.807-3.45,4.972-2.869c0.145,0.039,0.276,0.103,0.413,0.157
						c0.154-1.586,0.154-3.184,0-4.77c-0.149,0.06-0.293,0.129-0.452,0.171c-2.165,0.579-4.391-0.706-4.97-2.871
						c-0.58-2.165,0.706-4.391,2.871-4.97c0.162-0.043,0.324-0.056,0.485-0.079c-0.653-1.446-1.454-2.841-2.401-4.163
						c-0.108,0.141-0.21,0.286-0.339,0.415c-1.585,1.585-4.155,1.584-5.74-0.001c-1.585-1.586-1.584-4.156,0.001-5.74
						c0.132-0.132,0.28-0.237,0.425-0.347c-1.332-0.96-2.737-1.771-4.195-2.432c-0.023,0.197-0.044,0.395-0.097,0.592
						c-0.581,2.165-2.807,3.45-4.972,2.869c-2.165-0.581-3.45-2.807-2.869-4.972c0.053-0.198,0.134-0.381,0.214-0.564
						c-1.624-0.161-3.26-0.161-4.884,0c0.087,0.195,0.172,0.391,0.229,0.603c0.58,2.166-0.706,4.391-2.871,4.971
						c-2.165,0.58-4.391-0.706-4.97-2.871c-0.056-0.211-0.081-0.423-0.103-0.633c-1.475,0.668-2.898,1.489-4.244,2.463
						c0.18,0.129,0.358,0.263,0.52,0.425c1.584,1.585,1.584,4.155-0.002,5.74c-1.586,1.585-4.155,1.584-5.74-0.001
						c-0.155-0.155-0.282-0.326-0.406-0.498c-0.966,1.351-1.778,2.778-2.437,4.257c0.218,0.022,0.438,0.048,0.657,0.107
						c2.165,0.581,3.45,2.807,2.869,4.972c-0.581,2.165-2.807,3.45-4.972,2.869c-0.204-0.055-0.391-0.137-0.579-0.219
						c-0.151,1.624-0.138,3.26,0.033,4.883c0.189-0.084,0.379-0.166,0.585-0.222c2.165-0.58,4.391,0.706,4.97,2.871
						c0.58,2.165-0.706,4.391-2.871,4.97c-0.19,0.051-0.379,0.07-0.569,0.092c0.67,1.454,1.49,2.855,2.459,4.182
						c0.115-0.153,0.226-0.308,0.365-0.447c1.586-1.585,4.155-1.584,5.74,0.001c1.585,1.585,1.584,4.155-0.002,5.74
						c-0.122,0.122-0.26,0.218-0.393,0.321c1.328,0.938,2.727,1.73,4.177,2.375c0.023-0.17,0.037-0.339,0.083-0.509
						c0.581-2.165,2.807-3.45,4.972-2.869c2.165,0.581,3.45,2.807,2.869,4.972c-0.04,0.149-0.106,0.284-0.161,0.425
						c1.586,0.144,3.183,0.133,4.767-0.03c-0.057-0.144-0.123-0.281-0.164-0.434c-0.58-2.165,0.706-4.391,2.871-4.97
						c2.166-0.58,4.391,0.706,4.97,2.871c0.038,0.141,0.046,0.281,0.068,0.421c1.424-0.655,2.798-1.455,4.101-2.397
						C141.291,97.626,141.17,97.545,141.063,97.438z M115.315,89.464c-6.458-6.461-6.455-16.934,0.006-23.392
						c6.461-6.458,16.934-6.455,23.392,0.006c6.458,6.461,6.455,16.934-0.006,23.392C132.246,95.928,121.773,95.925,115.315,89.464z
						"/>
				</g>
				<path style="fill:#A295DB;" d="M133.731,66.848c-6.018-3.697-13.921-1.81-17.618,4.208c-3.697,6.017-1.81,13.921,4.208,17.619
					c6.017,3.697,13.921,1.809,17.618-4.209C141.636,78.449,139.748,70.545,133.731,66.848z M133.836,81.945
					c-2.307,3.755-7.239,4.933-10.994,2.626c-3.755-2.307-4.933-7.239-2.626-10.994s7.239-4.933,10.995-2.625
					C134.965,73.258,136.143,78.19,133.836,81.945z"/>
			</g>
		</g>
		<rect x="392.273" y="188.79" style="fill:#162D52;" width="32.355" height="6.009"/>
		<rect x="392.273" y="109.289" style="fill:#162D52;" width="32.355" height="6.009"/>
		<rect x="434.489" y="188.79" style="fill:#162D52;" width="32.355" height="6.009"/>
		<rect x="434.489" y="109.289" style="fill:#162D52;" width="32.355" height="6.009"/>
		<rect x="474.92" y="188.79" style="fill:#162D52;" width="32.355" height="6.009"/>
		<rect x="474.92" y="109.289" style="fill:#162D52;" width="32.355" height="6.009"/>
		<rect x="310.692" y="68.614" style="fill:#162D52;" width="6.984" height="6.075"/>
		<rect x="331.954" y="68.614" style="fill:#162D52;" width="6.984" height="6.075"/>
		<rect x="353.216" y="68.614" style="fill:#162D52;" width="6.984" height="6.075"/>
		<path style="fill:none;stroke:#162D52;stroke-width:2;stroke-miterlimit:10;" d="M313.481,70.83
			c5.763-23.568,36.708-35.119,57.618-25.646c24.056,10.898,29.716,43.983,35.996,66.793"/>
		<path style="fill:none;stroke:#162D52;stroke-width:2;stroke-miterlimit:10;" d="M335.976,70.83
			c6.894-23.568,43.915-35.119,68.931-25.646c28.779,10.898,35.551,43.983,43.063,66.793"/>
		<path style="fill:none;stroke:#162D52;stroke-width:2;stroke-miterlimit:10;" d="M356.621,70.83
			c8.26-23.568,52.615-35.119,82.586-25.646c34.48,10.898,42.594,43.983,51.594,66.793"/>
		<g>
			<rect x="394.584" y="115.216" style="fill:#264E8F;" width="27.733" height="27.045"/>
			<rect x="436.415" y="115.216" style="fill:#264E8F;" width="27.733" height="31.7"/>
			<rect x="477.52" y="115.216" style="fill:#264E8F;" width="27.733" height="21.625"/>
		</g>
		<rect x="376.327" y="219.296" style="fill:none;stroke:#162D52;stroke-miterlimit:10;" width="27.271" height="12.018"/>
		<g>
			<path style="fill:#ED5151;" d="M206.738,114.231c-10.339,0-18.72,8.381-18.72,18.72c0,10.339,8.381,18.72,18.72,18.72
				c10.339,0,18.72-8.381,18.72-18.72C225.457,122.613,217.076,114.231,206.738,114.231z M206.738,144.921
				c-6.611,0-11.97-5.359-11.97-11.97c0-6.611,5.359-11.97,11.97-11.97s11.97,5.359,11.97,11.97
				C218.708,139.562,213.348,144.921,206.738,144.921z"/>
			<path style="fill:#396BC5;" d="M217.267,138.648c-2.026,3.736-5.981,6.273-10.529,6.273c-6.611,0-11.97-5.359-11.97-11.97
				c0-4.87,2.913-9.052,7.087-10.921v-7.132c-7.966,2.151-13.836,9.408-13.836,18.054c0,10.339,8.381,18.72,18.72,18.72
				c8.351,0,15.419-5.471,17.83-13.022H217.267z"/>
		</g>
		<g>
			<path style="fill:#ED5151;" d="M267.936,90.825c0.416,1.002,0.648,2.1,0.648,3.252c0,4.688-3.801,8.489-8.489,8.489
				c-4.688,0-8.489-3.801-8.489-8.489s3.801-8.489,8.489-8.489c1.712,0,3.303,0.511,4.637,1.383V81.65
				c-1.445-0.54-3.003-0.849-4.637-0.849c-7.332,0-13.276,5.944-13.276,13.276s5.944,13.276,13.276,13.276
				c7.332,0,13.276-5.944,13.276-13.276c0-1.124-0.155-2.21-0.418-3.252H267.936z"/>
			<path style="fill:#396BC5;" d="M267.562,98.117c-1.437,2.649-4.242,4.449-7.467,4.449c-4.688,0-8.489-3.801-8.489-8.489
				c0-3.453,2.066-6.419,5.026-7.745v-5.058c-5.65,1.525-9.812,6.672-9.812,12.803c0,7.332,5.944,13.276,13.276,13.276
				c5.922,0,10.935-3.88,12.645-9.235H267.562z"/>
		</g>
		<g>
			<path style="fill:#ED5151;" d="M509.349,54.122c-7.332,0-13.276,5.944-13.276,13.276c0,7.332,5.944,13.276,13.276,13.276
				c7.332,0,13.276-5.944,13.276-13.276C522.625,60.066,516.682,54.122,509.349,54.122z M509.349,75.887
				c-4.688,0-8.489-3.801-8.489-8.489c0-4.688,3.801-8.489,8.489-8.489c4.688,0,8.489,3.801,8.489,8.489
				C517.839,72.086,514.038,75.887,509.349,75.887z"/>
			<path style="fill:#396BC5;" d="M504.247,74.167c-2.053-1.548-3.386-3.999-3.386-6.769c0-3.132,1.708-5.85,4.233-7.32v-5.234
				c-5.24,1.775-9.02,6.714-9.02,12.554c0,5.523,3.374,10.256,8.173,12.256V74.167z"/>
		</g>
		<g>
			<path style="fill:#ED5151;" d="M625.973,165.41c-7.332,0-13.276,5.944-13.276,13.276c0,7.332,5.944,13.276,13.276,13.276
				c7.332,0,13.276-5.944,13.276-13.276C639.249,171.354,633.305,165.41,625.973,165.41z M625.973,187.175
				c-4.688,0-8.489-3.801-8.489-8.489c0-4.688,3.801-8.489,8.489-8.489s8.489,3.801,8.489,8.489
				C634.462,183.374,630.661,187.175,625.973,187.175z"/>
		</g>
		<g>
			<g>
				
					<rect x="555.841" y="124.023" style="fill:none;stroke:#A295DB;stroke-width:2;stroke-miterlimit:10;" width="26.536" height="26.536"/>
				<g>
					<path style="fill:#48AEE3;" d="M577.875,137.915c0,5.115-4.146,9.261-9.261,9.261c-5.115,0-9.261-4.146-9.261-9.261
						c0-5.115,4.146-9.261,9.261-9.261C573.729,128.654,577.875,132.8,577.875,137.915z"/>
					<polyline style="fill:none;stroke:#1B2258;stroke-width:2;stroke-miterlimit:10;" points="559.353,131.938 568.614,141.383 
						582.164,124.017 					"/>
				</g>
			</g>
			<g>
				
					<rect x="555.841" y="86.685" style="fill:none;stroke:#A295DB;stroke-width:2;stroke-miterlimit:10;" width="26.536" height="26.536"/>
				<g>
					<path style="fill:#F6B000;" d="M577.875,100.576c0,5.115-4.146,9.261-9.261,9.261c-5.115,0-9.261-4.146-9.261-9.261
						c0-5.115,4.146-9.261,9.261-9.261C573.729,91.315,577.875,95.461,577.875,100.576z"/>
					<polyline style="fill:none;stroke:#1B2258;stroke-width:2;stroke-miterlimit:10;" points="559.353,94.6 568.614,104.044 
						582.164,86.678 					"/>
				</g>
			</g>
			<g>
				
					<rect x="555.841" y="49.346" style="fill:none;stroke:#A295DB;stroke-width:2;stroke-miterlimit:10;" width="26.536" height="26.536"/>
				<g>
					<path style="fill:#ED5151;" d="M577.875,63.237c0,5.115-4.146,9.261-9.261,9.261c-5.115,0-9.261-4.146-9.261-9.261
						s4.146-9.261,9.261-9.261C573.729,53.977,577.875,58.123,577.875,63.237z"/>
					<polyline style="fill:none;stroke:#1B2258;stroke-width:2;stroke-miterlimit:10;" points="559.353,57.261 568.614,66.706 
						582.164,49.34 					"/>
				</g>
			</g>
		</g>
		<g>
			<g>
				<rect x="64.706" y="385.056" style="fill:#396BC5;" width="6.772" height="65.663"/>
				<rect x="146.547" y="385.056" style="fill:#396BC5;" width="6.772" height="65.663"/>
			</g>
			<g>
				<rect x="76.619" y="381.538" style="fill:#162D52;" width="4.911" height="65.663"/>
				<rect x="135.974" y="381.538" style="fill:#162D52;" width="4.912" height="65.663"/>
			</g>
			<rect x="49.684" y="341.428" style="fill:#396BC5;" width="119.136" height="52.83"/>
			<rect x="60.177" y="342.005" style="fill:#162D52;" width="98.15" height="45.541"/>
			<rect x="64.963" y="340.947" style="opacity:0.69;fill:#FFFFFF;" width="89.615" height="43.755"/>
			<rect x="64.963" y="337.839" style="opacity:0.69;fill:#FFFFFF;" width="89.615" height="43.755"/>
			<rect x="64.963" y="333.177" style="fill:#FFFFFF;" width="89.615" height="43.755"/>
			<g>
				<defs>
					
						<rect id="SVGID_00000122714164095664454820000001794880873663369355_" x="64.963" y="333.177" width="89.615" height="43.755"/>
				</defs>
				<clipPath id="SVGID_00000162346373939021316660000013934037305496451752_">
					<use xlink:href="#SVGID_00000122714164095664454820000001794880873663369355_"  style="overflow:visible;"/>
				</clipPath>
				<g style="clip-path:url(#SVGID_00000162346373939021316660000013934037305496451752_);">
					<path style="fill:#ED5151;" d="M112.813,331.118c-3.467-1.831-8.123-1.449-10.917,1.302c-2.794,2.751-3.099,7.804-0.32,10.569
						c1.386,1.379,3.294,2.092,4.841,3.287c1.548,1.194,2.759,3.3,1.919,5.065c-0.427,0.897-1.291,1.497-2.152,1.992
						c-2.904,1.672-6.217,2.663-8.828,4.762c-2.611,2.099-4.349,5.922-2.678,8.826c1.628,2.829,5.667,3.319,8.731,2.193
						c3.064-1.126,5.526-3.422,8.277-5.178c1.631-1.041,3.769-1.897,5.427-0.899c1.329,0.8,1.789,2.461,2.339,3.911
						c1.199,3.16,3.432,6.028,6.495,7.458c3.063,1.429,6.98,1.196,9.535-1.016s3.255-6.461,1.153-9.108
						c-2.173-2.736-6.784-3.712-7.258-7.174c-0.776-5.664,9.295-7.145,11.779-11.21c1.645-2.691,1.52-6.664-0.99-8.575
						c-3.645-2.776-8.475-0.881-11.743,1.411c-1.411,0.99-2.734,2.176-4.366,2.73C118.178,343.46,117.298,333.486,112.813,331.118z"
						/>
					<path style="fill:#396BC5;" d="M86.979,348.158c0,3.433-2.783,6.216-6.216,6.216s-6.216-2.783-6.216-6.216
						c0-3.433,2.783-6.216,6.216-6.216S86.979,344.725,86.979,348.158z"/>
					<path style="fill:#F6B000;" d="M74.227,362.144c1.174,2.806,4.286,4.635,5.773,5.052c2.949,0.827,6.192-0.941,8.04-4.983
						c0.01-0.021,0.018-0.047,0.027-0.069H74.227z"/>
				</g>
			</g>
		</g>
	</g>
</g>
</svg>
