<?xml version="1.0" encoding="UTF-8"?>
<!DOCTYPE svg PUBLIC "-//W3C//DTD SVG 1.1//EN" "http://www.w3.org/Graphics/SVG/1.1/DTD/svg11.dtd">
<!-- Creator: CorelDRAW X7 -->
<svg xmlns="http://www.w3.org/2000/svg" xml:space="preserve" width="32.4mm" height="32mm" version="1.1" style="shape-rendering:geometricPrecision; text-rendering:geometricPrecision; image-rendering:optimizeQuality; fill-rule:evenodd; clip-rule:evenodd"
viewBox="0 0 3240 3200"
 xmlns:xlink="http://www.w3.org/1999/xlink">
 <defs>
  <style type="text/css">
   <![CDATA[
    .fil0 {fill:#FEFEFE;fill-rule:nonzero}
   ]]>
  </style>
 </defs>
 <g id="Warstwa_x0020_1">
  <metadata id="CorelCorpID_0Corel-Layer"/>
  <g id="_2480720704544">
   <path class="fil0" d="M3194 972c26,0 47,-22 47,-48l0 -124c0,-26 -21,-47 -47,-47l-167 0 118 -118c9,-9 14,-21 14,-33 0,-13 -5,-25 -14,-34l-470 -470c-18,-18 -48,-18 -67,0l-118 118 0 -167c0,-26 -21,-47 -47,-47l-664 0c-27,0 -48,21 -48,47l0 167 -118 -118c-18,-18 -48,-18 -67,0l-348 348 -40 -40c-9,-9 -21,-14 -33,-14 -13,0 -25,5 -34,14l-52 52 0 -74c0,-26 -21,-47 -47,-47l-444 0c-26,0 -47,21 -47,47l0 74 -52 -52c-9,-9 -21,-14 -34,-14 -12,0 -25,5 -33,14l-314 314c-9,8 -14,21 -14,33 0,13 5,25 14,34l52 52 -74 0c-26,0 -47,21 -47,47l0 444c0,26 21,47 47,47l74 0 -52 52c-19,19 -19,49 0,67l314 314c18,19 48,19 67,0l52 -52 0 74c0,26 21,47 47,47l156 0c26,0 47,-21 47,-47 0,-27 -21,-48 -47,-48l-108 0 0 -140c0,-20 -12,-37 -30,-44 -17,-8 -38,-4 -52,10l-99 99 -246 -246 99 -100c13,-13 18,-34 10,-51 -7,-18 -24,-30 -44,-30l-140 0 0 -348 140 0c20,0 37,-12 44,-30 8,-18 3,-38 -10,-52l-99 -99 246 -247 100 100c13,13 34,17 51,10 18,-7 30,-25 30,-44l0 -140 348 0 0 140c0,19 12,37 30,44 17,7 38,3 51,-10l100 -100 246 247 -99 99c-13,14 -18,34 -10,52 7,18 24,30 44,30l140 0 0 348 -140 0c-20,0 -37,12 -44,30 -8,17 -3,38 10,51l99 100 -246 246 -100 -99c-13,-14 -34,-18 -51,-10 -18,7 -30,24 -30,44l0 140 -16 0c-27,0 -48,21 -48,48 0,26 21,47 48,47l64 0c26,0 47,-21 47,-47l0 -74 52 52c19,19 49,19 67,0l16 -15 163 163 -80 80c-18,19 -18,49 0,68l52 51 -73 0c-27,0 -48,22 -48,48l0 444c0,26 21,47 48,47l73 0 -52 52c-18,19 -18,49 0,67l314 314c18,19 49,19 67,0l52 -52 0 74c0,26 21,47 47,47l444 0c26,0 48,-21 48,-47l0 -74 52 52c18,19 48,19 67,0l313 -314c19,-18 19,-48 0,-67l-51 -52 73 0c26,0 47,-21 47,-47l0 -444c0,-26 -20,-47 -46,-47l461 -461c9,-9 14,-21 14,-33 0,-13 -5,-25 -14,-34l-118 -118 167 0c26,0 47,-21 47,-47l0 -332c0,-26 -21,-47 -47,-47 -27,0 -48,21 -48,47l0 284 -234 0c-19,0 -36,12 -44,29 -7,18 -3,39 11,52l165 166 -379 379c-1,-2 -317,-318 -317,-318 -19,-19 -49,-19 -68,0l-51 52 0 -74c0,-26 -22,-47 -48,-47l-95 0c-27,0 -48,21 -48,47 0,26 21,48 48,48l48 0 0 140c0,19 11,37 29,44 18,7 38,3 52,-10l99 -100 247 247 -100 99c-13,14 -17,34 -10,52 7,18 25,29 44,29l140 0 0 349 -140 0c-19,0 -37,12 -44,30 -7,17 -3,38 10,51l100 100 -247 246 -99 -99c-14,-14 -34,-18 -52,-10 -18,7 -29,24 -29,44l0 140 -349 0 0 -140c0,-20 -12,-37 -29,-44 -18,-8 -39,-4 -52,10l-100 99 -246 -246 99 -100c14,-13 18,-34 10,-51 -7,-18 -24,-30 -43,-30l-141 0 0 -349 141 0c19,0 36,-11 43,-29 8,-18 4,-38 -10,-52l-99 -99 246 -247 100 100c13,13 34,17 52,10 17,-7 29,-25 29,-44l0 -140 86 0c26,0 48,-22 48,-48 0,-26 -22,-47 -48,-47l-134 0c-26,0 -47,21 -47,47l0 74 -52 -52c-19,-19 -49,-19 -67,0l-166 166 -164 -164 231 -231c19,-18 19,-48 0,-67l-52 -52 74 0c26,0 47,-21 47,-47l0 -444c0,-26 -21,-47 -47,-47l-74 0 52 -52c9,-9 14,-21 14,-34 0,-13 -5,-25 -14,-33l-206 -207 314 -314 165 165c14,14 34,18 52,11 17,-8 29,-25 29,-44l0 -234 569 0 0 234c0,19 12,36 29,44 18,7 39,3 52,-11l166 -165 402 402 -165 166c-14,13 -18,34 -11,52 8,17 25,29 44,29l234 0 0 76c0,26 21,48 48,48z"/>
   <path class="fil0" d="M2690 1123c0,26 21,47 47,47 26,0 48,-21 48,-47 0,-372 -303,-674 -674,-674 -27,0 -48,21 -48,47 0,27 21,48 48,48 319,0 579,260 579,579z"/>
   <path class="fil0" d="M1813 1133c0,-163 132,-295 295,-295 162,0 294,132 294,295 0,162 -132,294 -294,294 -163,0 -295,-132 -295,-294zm684 0c0,-215 -175,-390 -389,-390 -215,0 -390,175 -390,390 0,214 175,389 390,389 214,0 389,-175 389,-389z"/>
   <path class="fil0" d="M776 1574c257,0 466,-209 466,-466 0,-26 -21,-48 -47,-48 -26,0 -48,22 -48,48 0,205 -166,371 -371,371 -26,0 -47,21 -47,47 0,27 21,48 47,48z"/>
   <path class="fil0" d="M808 686c0,-26 -21,-47 -47,-47 -257,0 -466,209 -466,466 0,26 21,47 47,47 26,0 48,-21 48,-47 0,-205 166,-371 371,-371 26,0 47,-22 47,-48z"/>
   <path class="fil0" d="M770 925c100,0 181,81 181,181 0,100 -81,181 -181,181 -100,0 -181,-81 -181,-181 0,-100 81,-181 181,-181zm0 457c152,0 276,-124 276,-276 0,-152 -124,-276 -276,-276 -152,0 -276,124 -276,276 0,152 124,276 276,276z"/>
   <path class="fil0" d="M1918 2845c0,27 22,48 48,48 257,0 466,-209 466,-466 0,-26 -21,-48 -48,-48 -26,0 -47,22 -47,48 0,204 -167,371 -371,371 -26,0 -48,21 -48,47z"/>
   <path class="fil0" d="M1950 1958c-257,0 -466,209 -466,466 0,26 21,47 47,47 27,0 48,-21 48,-47 0,-205 166,-371 371,-371 26,0 47,-22 47,-48 0,-26 -21,-47 -47,-47z"/>
   <path class="fil0" d="M1959 2606c-99,0 -181,-81 -181,-181 0,-100 82,-181 181,-181 100,0 181,81 181,181 0,100 -81,181 -181,181zm0 -457c-152,0 -276,124 -276,276 0,152 124,276 276,276 152,0 276,-124 276,-276 0,-152 -124,-276 -276,-276z"/>
  </g>
 </g>
</svg>
