<?xml version="1.0" encoding="UTF-8"?>
<!DOCTYPE svg PUBLIC "-//W3C//DTD SVG 1.1//EN" "http://www.w3.org/Graphics/SVG/1.1/DTD/svg11.dtd">
<!-- Creator: CorelDRAW X7 -->
<svg xmlns="http://www.w3.org/2000/svg" xml:space="preserve" width="31.9mm" height="32mm" version="1.1" style="shape-rendering:geometricPrecision; text-rendering:geometricPrecision; image-rendering:optimizeQuality; fill-rule:evenodd; clip-rule:evenodd"
viewBox="0 0 3190 3200"
 xmlns:xlink="http://www.w3.org/1999/xlink">
 <defs>
  <style type="text/css">
   <![CDATA[
    .fil0 {fill:#FEFEFE}
   ]]>
  </style>
 </defs>
 <g id="Warstwa_x0020_1">
  <metadata id="CorelCorpID_0Corel-Layer"/>
  <path class="fil0" d="M2091 1190c32,0 32,17 51,40 113,137 100,77 174,255 61,147 153,328 215,478 59,142 157,336 216,478 18,43 34,78 54,119l212 481c0,15 -2,8 -7,27 -75,18 -766,7 -901,7 -54,0 -66,-71 -108,-155 -123,-244 -96,-172 -8,-273 89,-100 209,-207 260,-267 134,-160 133,-46 33,-397l-193 -673c-9,-32 -49,-120 2,-120zm-235 -1123c0,52 58,63 99,81 45,20 80,36 125,55l190 81c134,56 -32,97 -98,128 -28,13 -139,64 -164,64 -70,0 29,-208 -90,-208 -79,0 -62,95 -62,174l0 360c0,53 -9,58 -28,90 -136,222 -261,455 -396,678 -13,21 -41,58 -41,84 0,51 80,111 137,5 26,-49 319,-566 335,-566 48,0 53,78 65,115l264 921c7,23 19,56 22,76 5,41 -49,79 -72,103l-360 368c-30,45 2,90 23,131 28,56 106,198 106,261 -15,4 -16,7 -34,7l-1421 0c-105,0 30,-105 54,-126 24,-22 41,-44 65,-66l208 -194c80,-80 61,-83 80,-191 26,-156 49,-303 74,-459 9,-57 7,-56 44,-88 65,-57 156,-150 223,-186 51,44 82,124 117,182 39,65 73,130 112,193l165 285c22,36 38,82 84,82 35,0 63,-28 63,-62 0,-38 -331,-593 -365,-654 -22,-38 -41,-73 -64,-110 -23,-39 -37,-89 -91,-89 -32,0 -159,115 -192,147 -19,19 -27,22 -45,39 -44,39 -100,80 -139,124 -25,27 -29,91 -37,137 -9,53 -15,96 -25,147 -19,94 -34,196 -51,296 -23,135 -23,90 -140,207l-357 336c-44,45 -36,51 -123,50 -84,0 -118,-3 -118,76 0,30 43,49 77,49l3042 0c141,0 45,-158 14,-222 -104,-213 -238,-521 -340,-748 -22,-51 -43,-97 -67,-148 -12,-27 -23,-50 -34,-77l-102 -224c-65,-153 -139,-296 -202,-449 -33,-84 -234,-271 -298,-354 -133,-173 -101,-25 -101,-335 0,-28 55,-39 78,-48 32,-13 58,-25 92,-40l358 -154c31,-12 59,-23 70,-55 13,-38 -14,-63 -43,-78 -57,-29 -117,-50 -178,-78 -73,-34 -409,-192 -445,-190 -30,1 -63,32 -63,67z"/>
 </g>
</svg>
